<svg width="81" height="81" viewBox="0 0 81 81" fill="none" xmlns="http://www.w3.org/2000/svg">
<path d="M18.7555 17.4706L11.6685 52.9082L14.1506 53.4046L21.2377 17.967L18.7555 17.4706Z" fill="white"/>
<path d="M78.4442 66.8299L67.0536 9.8768L67.0517 9.87718C66.9954 9.59005 66.841 9.33146 66.6149 9.14575C66.3888 8.96004 66.1051 8.8588 65.8125 8.85938H64.5469V7.59375C64.5469 6.25109 64.0135 4.96342 63.0641 4.01402C62.1147 3.06462 60.827 2.53125 59.4844 2.53125C58.1417 2.53125 56.8541 3.06462 55.9046 4.01402C54.9552 4.96342 54.4219 6.25109 54.4219 7.59375V10.125C54.4234 11.4672 54.9573 12.754 55.9063 13.703C56.8554 14.6521 58.1422 15.186 59.4844 15.1875V12.6562C58.8133 12.6555 58.1699 12.3886 57.6954 11.914C57.2208 11.4395 56.9539 10.7961 56.9531 10.125V7.59375C56.9531 6.92242 57.2198 6.27859 57.6945 5.80389C58.1692 5.32918 58.813 5.0625 59.4844 5.0625C60.1557 5.0625 60.7995 5.32918 61.2742 5.80389C61.7489 6.27859 62.0156 6.92242 62.0156 7.59375V8.85938H59.4844V11.3906H64.2686L55.9651 52.9081L58.4473 53.4044L65.8125 16.5785L75.2949 63.9906L66.5895 57.2197C66.3673 57.0469 66.0939 56.9531 65.8125 56.9531C65.5311 56.9531 65.2577 57.0469 65.0356 57.2197L63.4083 58.4853L64.9622 60.4834L65.8125 59.8221L73.5145 65.8125H65.8125V68.3438H77.2031C77.3904 68.3437 77.5753 68.3022 77.7445 68.2221C77.9138 68.142 78.0632 68.0253 78.1819 67.8805C78.3006 67.7357 78.3857 67.5664 78.4311 67.3847C78.4764 67.203 78.4809 67.0135 78.4442 66.8299Z" fill="white"/>
<path d="M21.5156 15.1875V12.6562C20.8445 12.6555 20.2011 12.3886 19.7266 11.914C19.2521 11.4395 18.9851 10.7961 18.9844 10.125V7.59375C18.9848 7.1889 19.0822 6.79004 19.2684 6.43058C19.4547 6.07112 19.7244 5.76152 20.0549 5.52772C20.3854 5.29392 20.7671 5.14273 21.1681 5.08679C21.5691 5.03086 21.9776 5.07183 22.3595 5.20626L23.203 2.81962C22.4393 2.55029 21.6222 2.46798 20.8202 2.5796C20.0181 2.69121 19.2546 2.99349 18.5934 3.4611C17.9323 3.9287 17.3929 4.54799 17.0205 5.26705C16.6481 5.98611 16.4536 6.78398 16.4531 7.59375V10.125C16.4546 11.4672 16.9885 12.754 17.9376 13.703C18.8867 14.6521 20.1734 15.186 21.5156 15.1875Z" fill="white"/>
<path d="M29.1094 15.1875V12.6562C28.4383 12.6555 27.7949 12.3886 27.3204 11.914C26.8458 11.4395 26.5789 10.7961 26.5781 10.125V7.59375C26.5785 7.1889 26.6759 6.79004 26.8622 6.43058C27.0484 6.07112 27.3181 5.76152 27.6486 5.52772C27.9792 5.29392 28.3609 5.14273 28.7619 5.08679C29.1628 5.03086 29.5714 5.07183 29.9532 5.20626L30.7968 2.81962C30.0331 2.55029 29.216 2.46798 28.4139 2.5796C27.6119 2.69121 26.8483 2.99349 26.1872 3.4611C25.5261 3.9287 24.9867 4.54799 24.6143 5.26705C24.2419 5.98611 24.0473 6.78398 24.0469 7.59375V10.125C24.0484 11.4672 24.5823 12.754 25.5313 13.703C26.4804 14.6521 27.7672 15.186 29.1094 15.1875Z" fill="white"/>
<path d="M36.7031 15.1875V12.6562C36.032 12.6555 35.3886 12.3886 34.9141 11.914C34.4396 11.4395 34.1726 10.7961 34.1719 10.125V7.59375C34.1723 7.1889 34.2697 6.79004 34.4559 6.43058C34.6422 6.07112 34.9119 5.76152 35.2424 5.52772C35.5729 5.29392 35.9546 5.14273 36.3556 5.08679C36.7566 5.03086 37.1651 5.07183 37.547 5.20626L38.3905 2.81962C37.6268 2.55029 36.8097 2.46798 36.0077 2.5796C35.2056 2.69121 34.4421 2.99349 33.7809 3.4611C33.1198 3.9287 32.5804 4.54799 32.208 5.26705C31.8356 5.98611 31.6411 6.78398 31.6406 7.59375V10.125C31.6421 11.4672 32.176 12.754 33.1251 13.703C34.0742 14.6521 35.3609 15.186 36.7031 15.1875Z" fill="white"/>
<path d="M44.2969 15.1875V12.6562C43.6258 12.6555 42.9824 12.3886 42.5079 11.914C42.0333 11.4395 41.7664 10.7961 41.7656 10.125V7.59375C41.766 7.1889 41.8634 6.79004 42.0497 6.43058C42.2359 6.07112 42.5056 5.76152 42.8361 5.52772C43.1667 5.29392 43.5484 5.14273 43.9494 5.08679C44.3503 5.03086 44.7589 5.07183 45.1407 5.20626L45.9843 2.81962C45.2206 2.55029 44.4035 2.46798 43.6014 2.5796C42.7994 2.69121 42.0358 2.99349 41.3747 3.4611C40.7136 3.9287 40.1742 4.54799 39.8018 5.26705C39.4294 5.98611 39.2348 6.78398 39.2344 7.59375V10.125C39.2359 11.4672 39.7698 12.754 40.7188 13.703C41.6679 14.6521 42.9547 15.186 44.2969 15.1875Z" fill="white"/>
<path d="M51.8906 15.1875V12.6562C51.2195 12.6555 50.5761 12.3886 50.1016 11.914C49.6271 11.4395 49.3601 10.7961 49.3594 10.125V7.59375C49.3598 7.1889 49.4572 6.79004 49.6434 6.43058C49.8297 6.07112 50.0994 5.76152 50.4299 5.52772C50.7604 5.29392 51.1421 5.14273 51.5431 5.08679C51.9441 5.03086 52.3526 5.07183 52.7345 5.20626L53.578 2.81962C52.8143 2.55029 51.9972 2.46798 51.1952 2.5796C50.3931 2.69121 49.6296 2.99349 48.9684 3.4611C48.3073 3.9287 47.7679 4.54799 47.3955 5.26705C47.0231 5.98611 46.8286 6.78398 46.8281 7.59375V10.125C46.8296 11.4672 47.3635 12.754 48.3126 13.703C49.2617 14.6521 50.5484 15.186 51.8906 15.1875Z" fill="white"/>
<path d="M40.5933 41.7656H33.5723C33.2797 41.7656 32.9961 41.867 32.7699 42.0525C32.5436 42.238 32.3886 42.4962 32.3312 42.7831L31.0656 49.1112C31.0289 49.2948 31.0334 49.4843 31.0787 49.6659C31.1241 49.8476 31.2092 50.0169 31.3279 50.1617C31.4466 50.3066 31.596 50.4232 31.7652 50.5033C31.9345 50.5834 32.1194 50.625 32.3066 50.625H39.3277C39.6202 50.625 39.9038 50.5236 40.1301 50.3381C40.3563 50.1526 40.5113 49.8945 40.5687 49.6076L41.8343 43.2794C41.8711 43.0958 41.8666 42.9064 41.8212 42.7247C41.7758 42.543 41.6907 42.3737 41.572 42.2289C41.4533 42.0841 41.3039 41.9674 41.1347 41.8873C40.9654 41.8072 40.7805 41.7656 40.5933 41.7656ZM38.2901 48.0938H33.8505L34.6098 44.2969H39.0494L38.2901 48.0938Z" fill="white"/>
<path d="M55.1702 30.375H48.1475C47.8549 30.375 47.5713 30.4764 47.3451 30.6619C47.1188 30.8474 46.9638 31.1055 46.9064 31.3924L45.6408 37.7206C45.6041 37.9042 45.6086 38.0936 45.6539 38.2753C45.6993 38.457 45.7844 38.6263 45.9031 38.7711C46.0218 38.9159 46.1712 39.0326 46.3404 39.1127C46.5097 39.1928 46.6946 39.2344 46.8818 39.2344H53.9046C54.1972 39.2344 54.4807 39.133 54.707 38.9475C54.9332 38.762 55.0882 38.5038 55.1456 38.2169L56.4113 31.8888C56.448 31.7052 56.4435 31.5157 56.3981 31.3341C56.3527 31.1524 56.2676 30.9831 56.1489 30.8383C56.0302 30.6934 55.8808 30.5768 55.7116 30.4967C55.5424 30.4166 55.3574 30.375 55.1702 30.375ZM52.867 36.7031H48.4257L49.185 32.9063H53.6263L52.867 36.7031Z" fill="white"/>
<path d="M38.1284 18.9844C37.8358 18.9844 37.5523 19.0858 37.326 19.2713C37.0998 19.4567 36.9447 19.7149 36.8874 20.0018L35.6217 26.3299C35.585 26.5135 35.5895 26.703 35.6349 26.8847C35.6802 27.0664 35.7653 27.2357 35.8841 27.3805C36.0028 27.5253 36.1521 27.642 36.3214 27.7221C36.4906 27.8022 36.6755 27.8437 36.8628 27.8438H43.884C44.1766 27.8437 44.4601 27.7424 44.6864 27.5569C44.9126 27.3714 45.0677 27.1132 45.125 26.8263L46.3907 20.4982C46.4274 20.3146 46.4229 20.1251 46.3775 19.9434C46.3322 19.7618 46.2471 19.5924 46.1283 19.4476C46.0096 19.3028 45.8603 19.1862 45.691 19.1061C45.5218 19.0259 45.3369 18.9844 45.1496 18.9844H38.1284ZM42.8464 25.3125H38.4067L39.166 21.5156H43.6057L42.8464 25.3125Z" fill="white"/>
<path d="M57.4238 26.8263L58.6894 20.4982C58.7261 20.3146 58.7216 20.1251 58.6763 19.9434C58.6309 19.7618 58.5458 19.5924 58.4271 19.4476C58.3084 19.3028 58.159 19.1862 57.9898 19.1061C57.8205 19.0259 57.6356 18.9844 57.4484 18.9844H50.4258C50.1332 18.9844 49.8497 19.0858 49.6234 19.2713C49.3971 19.4567 49.2421 19.7149 49.1847 20.0018L47.9191 26.3299C47.8824 26.5135 47.8869 26.703 47.9322 26.8847C47.9776 27.0664 48.0627 27.2357 48.1814 27.3805C48.3001 27.5253 48.4495 27.642 48.6187 27.7221C48.788 27.8022 48.9729 27.8437 49.1602 27.8438H56.1827C56.4753 27.8437 56.7589 27.7424 56.9851 27.5569C57.2114 27.3714 57.3664 27.1132 57.4238 26.8263ZM55.1451 25.3125H50.704L51.4634 21.5156H55.9045L55.1451 25.3125Z" fill="white"/>
<path d="M42.847 38.2169L44.1126 31.8888C44.1493 31.7052 44.1448 31.5157 44.0994 31.3341C44.0541 31.1524 43.969 30.9831 43.8502 30.8383C43.7315 30.6934 43.5822 30.5768 43.4129 30.4967C43.2437 30.4166 43.0588 30.375 42.8715 30.375H35.8503C35.5577 30.375 35.2742 30.4764 35.0479 30.6619C34.8217 30.8474 34.6667 31.1055 34.6093 31.3924L33.3436 37.7206C33.3069 37.9042 33.3114 38.0936 33.3568 38.2753C33.4022 38.457 33.4873 38.6263 33.606 38.7711C33.7247 38.9159 33.8741 39.0326 34.0433 39.1127C34.2125 39.1928 34.3975 39.2344 34.5847 39.2344H41.6059C41.8985 39.2344 42.182 39.133 42.4083 38.9475C42.6346 38.762 42.7896 38.5038 42.847 38.2169ZM40.5683 36.7031H36.1286L36.8879 32.9063H41.3276L40.5683 36.7031Z" fill="white"/>
<path d="M22.3739 31.3924L21.1083 37.7206C21.0716 37.9042 21.0761 38.0936 21.1214 38.2753C21.1668 38.457 21.2519 38.6263 21.3706 38.7711C21.4893 38.9159 21.6387 39.0326 21.808 39.1127C21.9772 39.1928 22.1621 39.2344 22.3494 39.2344H29.3721C29.6647 39.2344 29.9482 39.133 30.1745 38.9475C30.4008 38.762 30.5558 38.5038 30.6132 38.2169L31.8788 31.8888C31.9155 31.7052 31.911 31.5157 31.8656 31.3341C31.8203 31.1524 31.7352 30.9831 31.6165 30.8383C31.4977 30.6934 31.3484 30.5768 31.1791 30.4967C31.0099 30.4166 30.825 30.375 30.6377 30.375H23.615C23.3224 30.375 23.0389 30.4764 22.8126 30.6619C22.5863 30.8474 22.4313 31.1055 22.3739 31.3924ZM24.6526 32.9063H29.0939L28.3345 36.7031H23.8932L24.6526 32.9063Z" fill="white"/>
<path d="M28.3595 41.7656H21.3369C21.0443 41.7656 20.7608 41.867 20.5345 42.0525C20.3083 42.238 20.1532 42.4962 20.0958 42.7831L18.8302 49.1112C18.7935 49.2948 18.798 49.4843 18.8434 49.6659C18.8887 49.8476 18.9738 50.0169 19.0926 50.1617C19.2113 50.3066 19.3606 50.4232 19.5299 50.5033C19.6991 50.5834 19.884 50.625 20.0713 50.625H27.0939C27.3864 50.625 27.67 50.5236 27.8963 50.3381C28.1225 50.1526 28.2775 49.8945 28.3349 49.6076L29.6005 43.2794C29.6373 43.0958 29.6328 42.9064 29.5874 42.7247C29.542 42.543 29.4569 42.3737 29.3382 42.2289C29.2195 42.0841 29.0701 41.9674 28.9009 41.8873C28.7316 41.8072 28.5467 41.7656 28.3595 41.7656ZM26.0563 48.0938H21.6152L22.3745 44.2969H26.8156L26.0563 48.0938Z" fill="white"/>
<path d="M24.0469 75.9375C22.6134 75.9375 21.2014 75.5897 19.932 74.9239C18.6626 74.2581 17.5737 73.2942 16.7587 72.115C15.9438 70.9357 15.4271 69.5764 15.2531 68.1535C15.0791 66.7307 15.253 65.2869 15.7598 63.946C16.2665 62.6052 17.0911 61.4073 18.1626 60.4552C19.2342 59.5031 20.5208 58.8253 21.912 58.4799C23.3032 58.1344 24.7574 58.1317 26.1499 58.4719C27.5423 58.8122 28.8314 59.4852 29.9066 60.4333L31.5816 58.5355C29.5014 56.6991 26.8217 55.6862 24.0469 55.6875H13.9219C10.9009 55.6875 8.00364 56.8876 5.86749 59.0237C3.73133 61.1599 2.53125 64.0572 2.53125 67.0781C2.53125 70.0991 3.73133 72.9964 5.86749 75.1325C8.00364 77.2687 10.9009 78.4688 13.9219 78.4688H24.0469C26.8217 78.47 29.5014 77.4572 31.5816 75.6208L29.9066 73.723C28.2887 75.151 26.2048 75.9386 24.0469 75.9375ZM12.6562 67.0781C12.6559 68.6825 12.9953 70.2689 13.652 71.7327C14.3088 73.1965 15.2682 74.5046 16.4669 75.571C14.6354 75.0285 13.0283 73.9084 11.8854 72.3779C10.7425 70.8473 10.125 68.9883 10.125 67.0781C10.125 65.168 10.7425 63.309 11.8854 61.7784C13.0283 60.2479 14.6354 59.1278 16.4669 58.5853C15.2682 59.6516 14.3088 60.9598 13.652 62.4236C12.9953 63.8874 12.6559 65.4737 12.6562 67.0781ZM5.0625 67.0781C5.06508 65.1686 5.68356 63.3108 6.82608 61.7808C7.9686 60.2507 9.5742 59.1301 11.4044 58.5853C10.2059 59.6519 9.24683 60.9601 8.59006 62.4238C7.93329 63.8876 7.59375 65.4738 7.59375 67.0781C7.59375 68.6825 7.93329 70.2687 8.59006 71.7324C9.24683 73.1962 10.2059 74.5044 11.4044 75.571C9.5742 75.0262 7.9686 73.9055 6.82608 72.3755C5.68356 70.8455 5.06508 68.9877 5.0625 67.0781Z" fill="white"/>
<path d="M51.8906 55.6875H41.7656C39.411 55.6905 37.115 56.4219 35.1926 57.7815C33.2701 59.1411 31.8155 61.0622 31.0281 63.2812H24.0469C23.0399 63.2812 22.0741 63.6813 21.3621 64.3933C20.65 65.1054 20.25 66.0711 20.25 67.0781C20.25 68.0851 20.65 69.0509 21.3621 69.7629C22.0741 70.475 23.0399 70.875 24.0469 70.875H31.0281C31.8155 73.0941 33.2701 75.0152 35.1926 76.3748C37.115 77.7343 39.411 78.4658 41.7656 78.4688H51.8906C54.9116 78.4688 57.8089 77.2687 59.945 75.1325C62.0812 72.9964 63.2812 70.0991 63.2812 67.0781C63.2812 64.0571 62.0812 61.1599 59.945 59.0237C57.8089 56.8876 54.9116 55.6875 51.8906 55.6875ZM37.9688 67.0781C37.9713 65.1686 38.5898 63.3108 39.7323 61.7808C40.8749 60.2507 42.4805 59.1301 44.3106 58.5853C43.1122 59.6519 42.1531 60.9601 41.4963 62.4238C40.8395 63.8876 40.5 65.4738 40.5 67.0781C40.5 68.6825 40.8395 70.2687 41.4963 71.7324C42.1531 73.1962 43.1122 74.5044 44.3106 75.571C42.4805 75.0262 40.8749 73.9055 39.7323 72.3755C38.5898 70.8454 37.9713 68.9877 37.9688 67.0781ZM24.0469 68.3438C23.7112 68.3438 23.3893 68.2104 23.1519 67.9731C22.9146 67.7357 22.7812 67.4138 22.7812 67.0781C22.7812 66.7425 22.9146 66.4205 23.1519 66.1832C23.3893 65.9458 23.7112 65.8125 24.0469 65.8125H30.447C30.351 66.6535 30.351 67.5027 30.447 68.3438H24.0469ZM32.9062 67.0781C32.9088 65.1686 33.5273 63.3108 34.6698 61.7808C35.8124 60.2507 37.418 59.1301 39.2481 58.5853C38.0497 59.6519 37.0906 60.9601 36.4338 62.4238C35.777 63.8876 35.4375 65.4738 35.4375 67.0781C35.4375 68.6825 35.777 70.2687 36.4338 71.7324C37.0906 73.1962 38.0497 74.5044 39.2481 75.571C37.418 75.0262 35.8124 73.9055 34.6698 72.3755C33.5273 70.8454 32.9088 68.9877 32.9062 67.0781ZM51.8906 75.9375C50.1384 75.9375 48.4255 75.4179 46.9686 74.4444C45.5117 73.4709 44.3762 72.0873 43.7056 70.4685C43.0351 68.8496 42.8596 67.0683 43.2015 65.3497C43.5433 63.6312 44.3871 62.0526 45.6261 60.8136C46.8651 59.5746 48.4437 58.7308 50.1622 58.389C51.8808 58.0471 53.6621 58.2226 55.281 58.8931C56.8998 59.5637 58.2834 60.6992 59.2569 62.1561C60.2304 63.613 60.75 65.3259 60.75 67.0781C60.7474 69.427 59.8131 71.6788 58.1522 73.3397C56.4913 75.0006 54.2395 75.9349 51.8906 75.9375Z" fill="white"/>
<path d="M54.4219 63.2812H51.8906C50.8836 63.2812 49.9179 63.6813 49.2058 64.3933C48.4938 65.1054 48.0938 66.0711 48.0938 67.0781C48.0938 68.0851 48.4938 69.0509 49.2058 69.7629C49.9179 70.475 50.8836 70.875 51.8906 70.875H54.4219C55.4289 70.875 56.3946 70.475 57.1067 69.7629C57.8187 69.0509 58.2188 68.0851 58.2188 67.0781C58.2188 66.0711 57.8187 65.1054 57.1067 64.3933C56.3946 63.6813 55.4289 63.2812 54.4219 63.2812ZM54.4219 68.3438H51.8906C51.555 68.3438 51.233 68.2104 50.9957 67.9731C50.7583 67.7357 50.625 67.4138 50.625 67.0781C50.625 66.7425 50.7583 66.4205 50.9957 66.1832C51.233 65.9458 51.555 65.8125 51.8906 65.8125H54.4219C54.7575 65.8125 55.0795 65.9458 55.3168 66.1832C55.5542 66.4205 55.6875 66.7425 55.6875 67.0781C55.6875 67.4138 55.5542 67.7357 55.3168 67.9731C55.0795 68.2104 54.7575 68.3438 54.4219 68.3438Z" fill="white"/>
</svg>
