<svg width="16" height="16" viewBox="0 0 16 16" fill="none" xmlns="http://www.w3.org/2000/svg">
<path d="M8 10.1334C9.17821 10.1334 10.1333 9.17824 10.1333 8.00003C10.1333 6.82182 9.17821 5.8667 8 5.8667C6.82179 5.8667 5.86667 6.82182 5.86667 8.00003C5.86667 9.17824 6.82179 10.1334 8 10.1334Z" fill="white"/>
<path d="M6 1.33325L4.78 2.66659H2.66666C1.93333 2.66659 1.33333 3.26659 1.33333 3.99992V11.9999C1.33333 12.7333 1.93333 13.3333 2.66666 13.3333H13.3333C14.0667 13.3333 14.6667 12.7333 14.6667 11.9999V3.99992C14.6667 3.26659 14.0667 2.66659 13.3333 2.66659H11.22L10 1.33325H6ZM8 11.3333C6.16 11.3333 4.66666 9.83992 4.66666 7.99992C4.66666 6.15992 6.16 4.66659 8 4.66659C9.84 4.66659 11.3333 6.15992 11.3333 7.99992C11.3333 9.83992 9.84 11.3333 8 11.3333Z" fill="white"/>
</svg>
