<svg width="16" height="16" viewBox="0 0 16 16" fill="none" xmlns="http://www.w3.org/2000/svg">
<g clip-path="url(#clip0)">
<path fill-rule="evenodd" clip-rule="evenodd" d="M15.6333 3.96539C15.744 3.60139 15.6333 3.33339 15.1033 3.33339H13.3533C12.908 3.33339 12.7027 3.56472 12.5913 3.82006C12.5913 3.82006 11.7013 5.95072 10.4407 7.33472C10.0327 7.73606 9.84733 7.86339 9.62467 7.86339C9.51333 7.86339 9.346 7.73606 9.346 7.37139V3.96539C9.346 3.52806 9.22333 3.33339 8.85267 3.33339H6.10067C5.82267 3.33339 5.65533 3.53606 5.65533 3.72872C5.65533 4.14272 6.286 4.23872 6.35067 5.40406V7.93606C6.35067 8.49139 6.24867 8.59206 6.026 8.59206C5.43267 8.59206 3.98933 6.45139 3.13267 4.00206C2.96667 3.52539 2.79867 3.33339 2.35133 3.33339H0.6C0.1 3.33339 0 3.56472 0 3.82006C0 4.27472 0.593333 6.53339 2.76333 9.52072C4.21 11.5607 6.24667 12.6667 8.102 12.6667C9.21467 12.6667 9.352 12.4214 9.352 11.9981V10.4561C9.352 9.96472 9.45733 9.86672 9.81 9.86672C10.07 9.86672 10.5147 9.99472 11.5533 10.9781C12.74 12.1441 12.9353 12.6667 13.6033 12.6667H15.3533C15.8533 12.6667 16.104 12.4214 15.96 11.9361C15.8013 11.4534 15.2347 10.7527 14.4833 9.92139C14.0753 9.44806 13.4633 8.93806 13.2773 8.68272C13.018 8.35539 13.092 8.20939 13.2773 7.91806C13.2773 7.91806 15.4107 4.96739 15.6327 3.96539H15.6333Z" fill="white"/>
</g>
<defs>
<clipPath id="clip0">
<rect width="16" height="16" fill="white"/>
</clipPath>
</defs>
</svg>
