<svg width="16" height="16" viewBox="0 0 16 16" fill="none" xmlns="http://www.w3.org/2000/svg">
<path d="M13.9647 5.53667C13.9579 5.03175 13.8634 4.53185 13.6853 4.05934C13.5309 3.66077 13.295 3.2988 12.9928 2.99656C12.6905 2.69431 12.3286 2.45844 11.93 2.304C11.4636 2.12891 10.9708 2.03423 10.4727 2.024C9.83133 1.99534 9.628 1.98734 8 1.98734C6.372 1.98734 6.16333 1.98734 5.52667 2.024C5.02877 2.0343 4.53623 2.12898 4.07 2.304C3.67137 2.45833 3.30935 2.69416 3.00709 2.99642C2.70483 3.29868 2.46899 3.66071 2.31467 4.05934C2.13922 4.52542 2.04475 5.01808 2.03533 5.516C2.00667 6.158 1.998 6.36134 1.998 7.98934C1.998 9.61734 1.998 9.82534 2.03533 10.4627C2.04533 10.9613 2.13933 11.4533 2.31467 11.9207C2.46925 12.3192 2.70527 12.6811 3.00763 12.9832C3.30999 13.2853 3.67204 13.5211 4.07067 13.6753C4.53562 13.8575 5.02825 13.9589 5.52733 13.9753C6.16933 14.004 6.37267 14.0127 8.00067 14.0127C9.62867 14.0127 9.83734 14.0127 10.474 13.9753C10.9721 13.9655 11.4649 13.8711 11.9313 13.696C12.3298 13.5414 12.6917 13.3055 12.9939 13.0032C13.2961 12.701 13.5321 12.3391 13.6867 11.9407C13.862 11.474 13.956 10.982 13.966 10.4827C13.9947 9.84134 14.0033 9.638 14.0033 8.00934C14.002 6.38134 14.002 6.17467 13.9647 5.53667ZM7.996 11.068C6.29333 11.068 4.914 9.68867 4.914 7.986C4.914 6.28334 6.29333 4.904 7.996 4.904C8.8134 4.904 9.59732 5.22871 10.1753 5.8067C10.7533 6.38469 11.078 7.1686 11.078 7.986C11.078 8.8034 10.7533 9.58732 10.1753 10.1653C9.59732 10.7433 8.8134 11.068 7.996 11.068ZM11.2007 5.50867C10.8027 5.50867 10.482 5.18734 10.482 4.79C10.482 4.69567 10.5006 4.60226 10.5367 4.51511C10.5728 4.42796 10.6257 4.34877 10.6924 4.28206C10.7591 4.21536 10.8383 4.16245 10.9254 4.12635C11.0126 4.09025 11.106 4.07167 11.2003 4.07167C11.2947 4.07167 11.3881 4.09025 11.4752 4.12635C11.5624 4.16245 11.6416 4.21536 11.7083 4.28206C11.775 4.34877 11.8279 4.42796 11.864 4.51511C11.9001 4.60226 11.9187 4.69567 11.9187 4.79C11.9187 5.18734 11.5973 5.50867 11.2007 5.50867Z" fill="white"/>
<path d="M7.996 9.988C9.10168 9.988 9.998 9.09168 9.998 7.986C9.998 6.88033 9.10168 5.984 7.996 5.984C6.89033 5.984 5.994 6.88033 5.994 7.986C5.994 9.09168 6.89033 9.988 7.996 9.988Z" fill="white"/>
</svg>
