<svg width="80" height="50" viewBox="0 0 80 50" fill="none" xmlns="http://www.w3.org/2000/svg">
<path d="M29.8663 50H58.0644L37.7308 26.5599C35.3391 23.8027 31.8579 22.2175 28.1896 22.2175H0L20.3336 45.6577C22.7168 48.4148 26.2064 50 29.8663 50Z" fill="url(#paint0_radial_79_2335)"/>
<path opacity="0.22" d="M37.7307 26.5599L53.0171 44.1821H38.0627C34.3943 44.1821 30.9132 42.597 28.5215 39.8398L13.2351 22.2175H28.1895C31.8579 22.2175 35.3476 23.8027 37.7307 26.5599Z" fill="#2E3A87"/>
<path d="M40.0969 39.2075H68.2949L47.9614 15.7674C45.5697 13.0102 42.0885 11.425 38.4201 11.425H10.2306L30.5642 34.8652C32.9559 37.6224 36.437 39.2075 40.0969 39.2075Z" fill="url(#paint1_radial_79_2335)"/>
<path opacity="0.22" d="M47.9699 15.7674L62.8647 32.9343H49.0508C45.3824 32.9343 41.9013 31.3492 39.5096 28.592L24.6147 11.425H38.4286C42.097 11.425 45.5782 13.0102 47.9699 15.7674Z" fill="#2E3A87"/>
<path d="M50.8978 27.7825H79.0958L58.7623 4.34233C56.3706 1.58516 52.8894 0 49.2296 0H21.0315L41.3651 23.4401C43.7483 26.1973 47.2379 27.7825 50.8978 27.7825Z" fill="url(#paint2_radial_79_2335)"/>
<defs>
<radialGradient id="paint0_radial_79_2335" cx="0" cy="0" r="1" gradientUnits="userSpaceOnUse" gradientTransform="translate(53.1279 49.4129) rotate(180) scale(52.2752 51.7861)">
<stop stop-color="#00FFDB"/>
<stop offset="1" stop-color="#00BBFF"/>
</radialGradient>
<radialGradient id="paint1_radial_79_2335" cx="0" cy="0" r="1" gradientUnits="userSpaceOnUse" gradientTransform="translate(63.3591 38.6201) rotate(180) scale(52.2752 51.7861)">
<stop stop-color="#00FFDB"/>
<stop offset="1" stop-color="#00BBFF"/>
</radialGradient>
<radialGradient id="paint2_radial_79_2335" cx="0" cy="0" r="1" gradientUnits="userSpaceOnUse" gradientTransform="translate(74.1576 27.1958) rotate(180) scale(52.2752 51.7861)">
<stop stop-color="#00FFDB"/>
<stop offset="1" stop-color="#00BBFF"/>
</radialGradient>
</defs>
</svg>
