<svg width="201" height="48" viewBox="0 0 201 48" fill="none" xmlns="http://www.w3.org/2000/svg">
<path d="M78.3499 34.7614H73.6937V13.0162H78.3499V21.8271H88.7113V13.0162H93.3675V34.7594H88.7113V25.6593H78.3499V34.7614ZM101.811 26.0374C101.811 29.8837 102.952 31.4853 106.802 31.4853C110.652 31.4853 111.743 29.8675 111.743 26.0374V13.0142H116.396V26.1587C116.635 28.2073 116.177 30.2781 115.103 31.997C113.279 34.1244 110.632 35 106.783 35C102.935 35 100.253 34.1244 98.4361 31.997C97.4174 30.8281 97.1666 28.913 97.1666 26.1587V13.0142H101.79L101.811 26.0374ZM131.617 13.0142L141.043 34.7594H135.887L133.854 29.5784H124.237L122.266 34.7594H117.319L126.679 13.0142H131.617ZM125.731 25.7058H132.326L128.967 17.3498L125.731 25.7058ZM172.566 13.0162L165.725 34.7594H160.023L155.329 18.549L151.205 34.7816H145.532L138.164 13.0384H143.162L148.293 29.7543L152.608 13.0384H158.094L163.051 29.7543L167.827 13.0384L172.566 13.0162ZM178.848 21.8574H191.727V25.6269H178.804C178.829 29.5339 180.4 30.9535 184.068 30.9535H191.708V34.7411H183.852C181.411 34.9838 178.967 34.3104 176.949 32.8342C175.769 31.8093 174.843 30.4921 174.252 28.9979C173.662 27.5037 173.425 25.8782 173.562 24.2639C173.562 16.5794 176.86 13 183.977 13H191.706V16.7897H184.066C180.714 16.7877 179.021 18.4196 178.83 21.8413L178.848 21.8574ZM195.828 13.0162H200.694V34.7614H195.828V13.0162Z" fill="#D9D9D9"/>
<path d="M28.2492 37.4424C28.3182 37.3853 28.3392 37.29 28.3028 37.208C23.509 26.9743 17.5329 17.331 10.4956 8.473C10.4956 8.473 4.90154 13.752 5.29811 19.05C5.48858 21.5187 6.65488 23.8117 8.54153 25.4266C13.421 30.1586 25.2376 36.1313 27.9867 37.4825C28.0729 37.5301 28.1821 37.513 28.2511 37.4443L28.2492 37.4424ZM26.4235 41.4922C26.4052 41.4399 26.371 41.3946 26.3257 41.3625C26.2804 41.3304 26.2262 41.3131 26.1706 41.313V41.3092L6.49547 41.9915C8.62774 45.7763 12.2428 48.715 15.9652 47.8136C18.5477 47.1713 24.4023 43.1102 26.3104 41.7399V41.7342C26.4579 41.6008 26.4062 41.4941 26.4062 41.4941L26.4235 41.4922ZM26.7204 39.7332C26.8162 39.5807 26.6438 39.4473 26.6438 39.4473L26.6457 39.4397C18.0247 33.6462 1.25772 24.7406 1.25772 24.7406C0.351331 27.5315 0.542653 30.5606 1.79309 33.2167C3.04354 35.8729 5.26004 37.9584 7.99553 39.0528C9.19713 39.5265 10.4676 39.8045 11.7581 39.8761C12.0532 39.9333 23.4597 39.8818 26.5135 39.8685C26.5997 39.8589 26.6763 39.8075 26.7166 39.7313L26.7204 39.7332ZM28.027 0.0228711C27.1687 0.0991014 24.8583 0.621278 24.8583 0.621278C21.8064 1.39502 19.3734 3.68002 18.4174 6.66253C17.8774 8.69789 17.8867 10.8389 18.4442 12.8696C20.1818 20.5422 28.7396 33.1545 30.575 35.7997C30.7052 35.9293 30.8125 35.8816 30.8125 35.8816C30.9236 35.8549 31.0003 35.752 30.9945 35.6377H30.9983C33.826 7.48392 28.0289 0 28.0289 0L28.027 0.0228711ZM34.5368 35.874C34.6441 35.9178 34.7667 35.8721 34.8203 35.7692H34.8222C36.7112 33.0516 45.2154 20.5098 46.9434 12.8696C47.4607 10.8342 47.4722 8.7036 46.976 6.66253C46.4994 5.1879 45.6519 3.85887 44.5139 2.80157C43.3759 1.74427 41.9852 0.993766 40.4738 0.621278C40.4738 0.621278 38.9699 0.24394 37.376 0.0209664C37.376 0.0209664 31.5443 7.48773 34.3797 35.6586H34.3835C34.3854 35.7539 34.4448 35.8397 34.5368 35.8721V35.874ZM39.1922 41.3302C39.1922 41.3302 39.0006 41.3531 38.9699 41.4788C38.9469 41.5741 38.9757 41.677 39.0466 41.7456C40.924 43.0892 46.6331 47.0818 49.3918 47.8307C49.3918 47.8307 54.4782 49.5535 58.8941 42.0067L39.196 41.3207L39.1922 41.3302ZM64.1357 24.6967C64.1357 24.6967 47.4109 33.6233 38.7611 39.4282C38.7177 39.4605 38.6851 39.5051 38.6677 39.5561C38.6502 39.6071 38.6488 39.6622 38.6634 39.7141C38.6634 39.7141 38.7458 39.8608 38.8665 39.8608V39.8647L53.9743 39.8265C55.1359 39.7357 56.2773 39.4736 57.3614 39.049C60.1872 37.9475 62.4613 35.7825 63.695 33.023C64.8529 30.3921 65.0095 27.4321 64.1357 24.6948V24.6967ZM37.1806 37.4634C37.2572 37.5206 37.3626 37.5282 37.4488 37.4825C40.265 36.0836 51.9953 30.151 56.8518 25.4438C58.7378 23.8164 59.9026 21.5148 60.0934 19.0385C60.4478 13.5595 54.9207 8.49016 54.9207 8.49016C47.8975 17.325 41.9313 26.9426 37.1423 37.149H37.148C37.0963 37.2538 37.1174 37.3776 37.2017 37.4615" fill="#D9D9D9"/>
</svg>
