<svg width="179" height="38" viewBox="0 0 179 38" fill="none" xmlns="http://www.w3.org/2000/svg">
<path d="M20.4131 6.42635C21.6836 4.83043 22.5492 2.68855 22.3212 0.5C20.4596 0.593328 18.1886 1.73193 16.8715 3.32785C15.6894 4.69511 14.647 6.92565 14.9169 9.02554C17.0065 9.20753 19.0961 7.9756 20.4131 6.42635Z" fill="#D9D9D9"/>
<path d="M22.2979 9.43118C19.2636 9.24919 16.6807 11.1578 15.2334 11.1578C13.7814 11.1578 11.5615 9.51984 9.16478 9.56651C6.04206 9.61317 3.14271 11.3817 1.55576 14.2003C-1.70658 19.8373 0.694796 28.1995 3.86871 32.7866C5.40913 35.0591 7.26602 37.5603 9.70928 37.467C12.0222 37.3783 12.9251 35.9644 15.736 35.9644C18.5423 35.9644 19.3567 37.467 21.8046 37.4203C24.3409 37.3737 25.9279 35.1478 27.4683 32.8752C29.2368 30.2854 29.9581 27.7842 30.0047 27.6489C29.9581 27.6022 25.1135 25.7403 25.0669 20.1499C25.0204 15.4695 28.8738 13.2436 29.0506 13.1036C26.8726 9.88849 23.4753 9.52451 22.2979 9.43118Z" fill="#D9D9D9"/>
<path d="M39.3961 5.91304C39.3961 4.28446 40.7411 3.00586 42.342 3.00586C43.9895 3.00586 45.3111 4.27979 45.3111 5.91304C45.3111 7.54628 43.9941 8.84354 42.342 8.84354C40.7411 8.83888 39.3961 7.54161 39.3961 5.91304ZM39.7963 12.4553H44.9109V37.192H39.7963V12.4553Z" fill="#D9D9D9"/>
<path d="M63.503 3.09961C70.1022 3.09961 74.6955 7.6587 74.6955 14.299C74.6955 20.9626 70.0091 25.5451 63.3401 25.5451H56.0336V37.1924H50.7562V3.09961H63.503ZM56.0336 21.1026H62.0883C66.6816 21.1026 69.2971 18.6201 69.2971 14.3223C69.2971 10.0246 66.6816 7.56537 62.1115 7.56537H56.0336V21.1026Z" fill="#D9D9D9"/>
<path d="M78.2883 3.09961H83.3563V16.6602H83.4494C84.934 13.7064 87.4796 12.1711 91.2492 12.1711C96.6942 12.1711 99.9193 15.8109 99.9193 21.4106V37.1924H94.8047V22.3766C94.8047 18.7601 92.9897 16.5622 89.4342 16.5622C85.6646 16.5622 83.4028 19.1381 83.4028 23.0579V37.1878H78.2883V3.09961Z" fill="#D9D9D9"/>
<path d="M103.498 24.812C103.498 17.0377 108.091 12.1473 115.23 12.1473C122.369 12.1473 126.939 17.0377 126.939 24.812C126.939 32.6329 122.416 37.5 115.23 37.5C108.068 37.5 103.498 32.6329 103.498 24.812ZM121.76 24.812C121.76 19.4969 119.307 16.3518 115.235 16.3518C111.135 16.3518 108.682 19.4923 108.682 24.812C108.682 30.1737 111.135 33.2955 115.235 33.2955C119.335 33.2909 121.76 30.1737 121.76 24.812Z" fill="#D9D9D9"/>
<path d="M130.546 12.4555H135.423V16.66H135.517C137.001 13.7061 139.477 12.1709 143.293 12.1709C148.738 12.1709 151.847 15.666 151.847 21.3357V37.1875H146.756V22.3297C146.756 18.6199 145.034 16.5667 141.501 16.5667C137.825 16.5667 135.633 19.1192 135.633 22.9456V37.1922H130.542V12.4555H130.546Z" fill="#D9D9D9"/>
<path d="M177.713 29.9124C177.029 34.4015 172.673 37.4953 167.088 37.4953C159.903 37.4953 155.426 32.6749 155.426 24.9286C155.426 17.1777 159.926 12.1473 166.879 12.1473C173.687 12.1473 178.001 16.8511 178.001 24.336V26.1093H160.568V26.4172C160.568 30.6217 163.207 33.3889 167.191 33.3889C170.02 33.3889 172.207 32.0403 172.892 29.917H177.713V29.9124ZM160.605 22.5441H172.882C172.789 18.7643 170.383 16.2585 166.874 16.2585C163.388 16.2585 160.866 18.811 160.605 22.5441Z" fill="#D9D9D9"/>
</svg>
