<svg width="108" height="44" viewBox="0 0 108 44" fill="none" xmlns="http://www.w3.org/2000/svg">
<path d="M5.30295 42.3979H0.00134277V1.1414H14.0618C17.5576 1.1414 20.5826 2.30349 23.1372 4.62744C25.6916 6.95161 26.9688 9.88054 26.9688 13.4144C26.9688 16.9483 25.6916 19.8773 23.1372 22.2013C20.5828 24.5255 17.5576 25.6876 14.0618 25.6875H5.30306L5.30295 42.3979ZM5.30295 20.618H14.1762C16.4046 20.618 18.1912 19.8688 19.5359 18.3706C20.8805 16.8725 21.5528 15.2206 21.5528 13.4153C21.5528 11.61 20.8805 9.95816 19.5359 8.46006C18.1912 6.96185 16.4046 6.21275 14.1761 6.21275H5.30306L5.30295 20.618ZM37.3648 7.07785C36.6356 7.80711 35.7525 8.17169 34.7157 8.17158C33.6787 8.17158 32.7954 7.80679 32.0656 7.07698C31.3358 6.34728 30.971 5.46365 30.971 4.42618C30.971 3.38871 31.3359 2.50518 32.0656 1.77537C32.7954 1.04546 33.6787 0.680664 34.7157 0.680664C35.7525 0.680664 36.6358 1.04557 37.3656 1.77527C38.0954 2.50507 38.4602 3.38871 38.4602 4.42607C38.4602 5.46365 38.0951 6.34761 37.3648 7.07795V7.07785ZM37.3662 42.3979H32.0645V14.1644H37.3662V42.3979ZM67.8297 42.3979H61.6066L54.6344 31.9687L47.7782 42.3979H41.555L51.5238 28.0508L41.7854 14.1644H47.7784L54.7505 24.133L61.3764 14.1644H67.5996L57.7469 28.0508L67.8297 42.3979ZM84.3486 43.3194C80.0838 43.3194 76.6167 41.8982 73.9474 39.056C71.278 36.2138 69.9433 32.6222 69.9435 28.2812C69.9435 24.1712 71.2396 20.637 73.8322 17.6787C76.4247 14.7203 79.738 13.2412 83.7718 13.2412C87.9592 13.2412 91.3108 14.6049 93.8266 17.3322C96.3423 20.0596 97.6001 23.7092 97.6002 28.2812L97.5421 29.2606H75.2433C75.3969 32.1034 76.3476 34.3507 78.0955 36.0024C79.8434 37.6543 81.889 38.4801 84.2326 38.4801C88.0353 38.4801 90.6092 36.8665 91.9538 33.6391L96.6787 35.5981C95.7561 37.7879 94.2386 39.6223 92.1261 41.1011C90.0137 42.58 87.4211 43.3194 84.3486 43.3194ZM91.9539 24.8821C91.8388 23.2679 91.0994 21.731 89.7356 20.2715C88.3716 18.8119 86.3449 18.0822 83.6557 18.0822C81.6968 18.0822 79.9973 18.6969 78.5571 19.9259C77.1169 21.1551 76.1278 22.8072 75.5897 24.8821H91.9539ZM107.694 42.3979H102.392V1.1414H107.694V42.3979Z" fill="#D9D9D9"/>
</svg>
