<svg width="872" height="872" viewBox="0 0 872 872" fill="none" xmlns="http://www.w3.org/2000/svg">
    <g opacity="0.1" filter="url(#filter0_d_209_4055)">
        <path d="M817 436C817 646.42 646.42 817 436 817C225.58 817 55 646.42 55 436C55 225.58 225.58 55 436 55C646.42 55 817 225.58 817 436Z" fill="white"/>
    </g>
    <g opacity="0.15" filter="url(#filter1_d_209_4055)">
        <path d="M685.369 436C685.369 573.722 573.722 685.368 436 685.368C298.278 685.368 186.631 573.722 186.631 436C186.631 298.277 298.278 186.631 436 186.631C573.722 186.631 685.369 298.277 685.369 436Z" fill="white"/>
    </g>
    <g opacity="0.3" filter="url(#filter2_d_209_4055)">
        <path d="M580.795 436C580.795 515.968 515.968 580.795 436 580.795C356.032 580.795 291.205 515.968 291.205 436C291.205 356.032 356.032 291.206 436 291.206C515.968 291.206 580.795 356.032 580.795 436Z" fill="white"/>
    </g>
    <g opacity="0.5" filter="url(#filter3_d_209_4055)">
        <path d="M495.234 436C495.234 468.714 468.714 495.234 436 495.234C403.286 495.234 376.766 468.714 376.766 436C376.766 403.286 403.286 376.766 436 376.766C468.714 376.766 495.234 403.286 495.234 436Z" fill="white"/>
    </g>
    <defs>
        <filter id="filter0_d_209_4055" x="0" y="0" width="872" height="872" filterUnits="userSpaceOnUse" color-interpolation-filters="sRGB">
            <feFlood flood-opacity="0" result="BackgroundImageFix"/>
            <feColorMatrix in="SourceAlpha" type="matrix" values="0 0 0 0 0 0 0 0 0 0 0 0 0 0 0 0 0 0 127 0" result="hardAlpha"/>
            <feOffset/>
            <feGaussianBlur stdDeviation="27.5"/>
            <feComposite in2="hardAlpha" operator="out"/>
            <feColorMatrix type="matrix" values="0 0 0 0 0.180392 0 0 0 0 0.227451 0 0 0 0 0.529412 0 0 0 0.25 0"/>
            <feBlend mode="normal" in2="BackgroundImageFix" result="effect1_dropShadow_209_4055"/>
            <feBlend mode="normal" in="SourceGraphic" in2="effect1_dropShadow_209_4055" result="shape"/>
        </filter>
        <filter id="filter1_d_209_4055" x="131.631" y="131.631" width="608.737" height="608.737" filterUnits="userSpaceOnUse" color-interpolation-filters="sRGB">
            <feFlood flood-opacity="0" result="BackgroundImageFix"/>
            <feColorMatrix in="SourceAlpha" type="matrix" values="0 0 0 0 0 0 0 0 0 0 0 0 0 0 0 0 0 0 127 0" result="hardAlpha"/>
            <feOffset/>
            <feGaussianBlur stdDeviation="27.5"/>
            <feComposite in2="hardAlpha" operator="out"/>
            <feColorMatrix type="matrix" values="0 0 0 0 0.180392 0 0 0 0 0.227451 0 0 0 0 0.529412 0 0 0 0.25 0"/>
            <feBlend mode="normal" in2="BackgroundImageFix" result="effect1_dropShadow_209_4055"/>
            <feBlend mode="normal" in="SourceGraphic" in2="effect1_dropShadow_209_4055" result="shape"/>
        </filter>
        <filter id="filter2_d_209_4055" x="236.205" y="236.206" width="399.589" height="399.589" filterUnits="userSpaceOnUse" color-interpolation-filters="sRGB">
            <feFlood flood-opacity="0" result="BackgroundImageFix"/>
            <feColorMatrix in="SourceAlpha" type="matrix" values="0 0 0 0 0 0 0 0 0 0 0 0 0 0 0 0 0 0 127 0" result="hardAlpha"/>
            <feOffset/>
            <feGaussianBlur stdDeviation="27.5"/>
            <feComposite in2="hardAlpha" operator="out"/>
            <feColorMatrix type="matrix" values="0 0 0 0 0.180392 0 0 0 0 0.227451 0 0 0 0 0.529412 0 0 0 0.25 0"/>
            <feBlend mode="normal" in2="BackgroundImageFix" result="effect1_dropShadow_209_4055"/>
            <feBlend mode="normal" in="SourceGraphic" in2="effect1_dropShadow_209_4055" result="shape"/>
        </filter>
        <filter id="filter3_d_209_4055" x="321.766" y="321.766" width="228.468" height="228.468" filterUnits="userSpaceOnUse" color-interpolation-filters="sRGB">
            <feFlood flood-opacity="0" result="BackgroundImageFix"/>
            <feColorMatrix in="SourceAlpha" type="matrix" values="0 0 0 0 0 0 0 0 0 0 0 0 0 0 0 0 0 0 127 0" result="hardAlpha"/>
            <feOffset/>
            <feGaussianBlur stdDeviation="27.5"/>
            <feComposite in2="hardAlpha" operator="out"/>
            <feColorMatrix type="matrix" values="0 0 0 0 0.180392 0 0 0 0 0.227451 0 0 0 0 0.529412 0 0 0 0.25 0"/>
            <feBlend mode="normal" in2="BackgroundImageFix" result="effect1_dropShadow_209_4055"/>
            <feBlend mode="normal" in="SourceGraphic" in2="effect1_dropShadow_209_4055" result="shape"/>
        </filter>
    </defs>
</svg>
