<svg width="212" height="32" viewBox="0 0 212 32" fill="none" xmlns="http://www.w3.org/2000/svg">
<g clip-path="url(#clip0_79_2668)">
<path d="M200.331 14.0638V18.3994H203.423V22.701C203.433 23.0854 203.411 23.4999 203.344 23.8316C203.221 24.634 202.448 26.0002 200.253 26.0002C198.072 26.0002 197.312 24.634 197.181 23.8316C197.125 23.4999 197.102 23.0854 197.102 22.701V9.11447C197.102 8.63389 197.135 8.10788 197.238 7.70975C197.388 6.98563 198.039 5.55762 200.237 5.55762C202.544 5.55762 203.12 7.06312 203.252 7.70975C203.339 8.13804 203.344 8.85643 203.344 8.85643V10.5062H210.941V9.53093C210.941 9.53093 210.975 8.51327 210.883 7.56355C210.312 1.98703 205.65 0.222721 200.304 0.222721C194.949 0.222721 190.381 2.00344 189.715 7.56355C189.655 8.072 189.564 8.9866 189.564 9.53093V22.0292C189.564 22.5735 189.581 22.9949 189.684 23.9897C190.179 29.4127 194.949 31.3351 200.283 31.3351C205.65 31.3351 210.386 29.4127 210.891 23.9897C210.98 22.9949 210.989 22.5735 211.001 22.0292V14.0638H200.331ZM147.951 1.02242H140.322V23.0144C140.334 23.3976 140.322 23.8282 140.255 24.1439C140.096 24.8821 139.461 26.3029 137.357 26.3029C135.279 26.3029 134.627 24.8821 134.48 24.1439C134.404 23.8282 134.394 23.3976 134.404 23.0144V1.02242H126.778V22.3319C126.768 22.8811 126.812 24.0034 126.845 24.2973C127.371 29.8502 131.812 31.653 137.357 31.653C142.912 31.653 147.35 29.8502 147.886 24.2973C147.929 24.0034 147.984 22.8811 147.951 22.3319V1.02242ZM77.8567 1.02242L74.0512 24.2599L70.248 1.02242H57.9423L57.2896 30.7499H64.8285L65.0327 3.23028L70.2197 30.7499H77.8687L83.0604 3.23028L83.2653 30.7499H90.8232L90.1485 1.02242H77.8567ZM32.2951 1.02242L26.7075 30.7499H34.8557L39.0663 3.23028L43.1758 30.7499H51.2675L45.7031 1.02242H32.2951ZM174.612 24.9565L167.509 1.02242H156.315V30.4399H163.72L163.29 5.74008L170.919 30.4399H181.654V1.02242H174.201L174.612 24.9565ZM106.118 8.75909C105.984 8.17201 106.023 7.54828 106.092 7.2223C106.308 6.27067 106.957 5.23278 108.826 5.23278C110.568 5.23278 111.59 6.30312 111.59 7.90939V9.72713H119.026V7.65516C119.026 1.24993 113.199 0.243717 108.981 0.243717C103.667 0.243717 99.3281 1.96985 98.5356 6.78942C98.3261 8.10101 98.2742 9.26525 98.6077 10.7509C99.8998 16.7603 110.515 18.5036 112.056 22.304C112.328 23.0239 112.25 23.9419 112.111 24.4828C111.881 25.4719 111.205 26.4666 109.204 26.4666C107.327 26.4666 106.197 25.4032 106.197 23.8003L106.195 20.9474H98.1905V23.2152C98.1905 29.7864 103.413 31.7691 109.038 31.7691C114.426 31.7691 118.875 29.9548 119.589 25.0367C119.93 22.4956 119.673 20.8405 119.536 20.2171C118.289 14.0535 106.975 12.1995 106.118 8.75909ZM8.01899 8.68618C7.87297 8.08689 7.90705 7.45438 7.98839 7.12457C8.19445 6.17753 8.84709 5.12132 10.7492 5.12132C12.5135 5.12132 13.5523 6.20196 13.5523 7.82121V9.66109H21.0762V7.57271C21.0762 1.10602 15.1601 0.0753784 10.8953 0.0753784C5.53739 0.0753784 1.15945 1.82823 0.358457 6.68254C0.13923 8.01512 0.101647 9.18738 0.41848 10.6894C1.72454 16.7672 12.445 18.5246 14.0047 22.3704C14.2968 23.0854 14.2085 24.0034 14.0636 24.5653C13.8161 25.5646 13.1356 26.5735 11.1176 26.5735C9.23326 26.5735 8.10614 25.4917 8.10614 23.8667L8.09568 21.0061H0.00134277V23.2793C0.00134277 29.9258 5.29802 31.9244 10.9669 31.9244C16.417 31.9244 20.8926 30.0941 21.6227 25.1192C21.9856 22.5548 21.7133 20.8859 21.5909 20.253C20.3178 14.0138 8.8777 12.1659 8.01899 8.68618Z" fill="#D9D9D9"/>
</g>
<defs>
<clipPath id="clip0_79_2668">
<rect width="211" height="31.8491" fill="white" transform="translate(0.00134277 0.0754395)"/>
</clipPath>
</defs>
</svg>
