<svg width="168" height="707" viewBox="0 0 168 707" fill="none" xmlns="http://www.w3.org/2000/svg">
<g filter="url(#filter0_d)">
<path fill-rule="evenodd" clip-rule="evenodd" d="M146 646.595V680.885H22.6426L22.6426 607.166H50.9561V646.595H72.1152V610.237H100.429V646.595H146ZM73.1152 647.595H49.9561V608.166H23.6426L23.6426 679.885H145V647.595H99.4287V611.237H73.1152V647.595ZM146 589.244H22.6426V554.29H146V589.244ZM146 474.437V509.225H51.4541L51.4541 538.858H22.6426L22.6426 444.886H51.4541V474.437H146ZM50.4541 508.225H145V475.437H50.4541V445.886H23.6426L23.6426 537.858H50.4541L50.4541 508.225ZM146 311.99L146 356.596L62.6295 399.819C74.5248 398.931 83.7515 398.484 90.2979 398.484H146V429.537H22.6426L22.6426 385.1L104.446 342.266C93.8598 342.894 85.2127 343.209 78.5107 343.209H22.6426V311.99H146ZM106.61 341.133C106.733 341.125 106.856 341.117 106.979 341.11C107.227 341.094 107.476 341.079 107.726 341.063C107.81 341.058 107.894 341.052 107.979 341.047V341.545L23.6426 385.705L23.6426 428.537H145V399.484H90.2979C83.3911 399.484 73.4592 399.984 60.502 400.984C60.4556 400.987 60.4092 400.991 60.3627 400.995C60.2004 401.007 60.0375 401.02 59.8742 401.033C59.7504 401.042 59.6263 401.052 59.502 401.062V400.314L145 355.988L145 312.99H23.6426V342.209H78.5107C85.6475 342.209 95.014 341.85 106.61 341.133ZM146 213.709V287.76H22.6426L22.6426 213.709H50.9561V252.972H68.0479V216.614H96.3613V252.972H117.271V213.709H146ZM118.271 253.972H95.3613V217.614H69.0479V253.972H49.9561V214.709H23.6426L23.6426 286.76H145V214.709H118.271V253.972ZM128.778 118.993L128.782 118.995C134.771 122.931 139.424 128.594 142.756 135.936L142.759 135.942C146.037 143.29 147.66 151.874 147.66 161.667C147.66 169.786 147.105 176.636 145.98 182.202L145.978 182.211C144.797 187.779 142.777 193.553 139.926 199.534L139.655 200.104H108.167L108.915 198.647C112.092 192.457 114.584 186.021 116.392 179.339C118.145 172.654 119.015 166.543 119.015 161.003C119.015 156.211 118.191 152.904 116.722 150.891C115.181 148.857 113.282 147.892 110.967 147.892C109.509 147.892 108.29 148.3 107.262 149.094L107.242 149.109L107.221 149.124C106.105 149.9 104.918 151.241 103.681 153.23L103.675 153.241C102.45 155.157 99.882 160.446 95.9414 169.216L95.9397 169.219C92.3262 177.169 88.795 183.213 85.3333 187.299L85.3288 187.304C81.8645 191.336 77.8729 194.364 73.3543 196.365L73.3446 196.37C68.8204 198.317 63.5057 199.273 57.4268 199.273C45.9698 199.273 36.9477 195.086 30.4865 186.681C24.0555 178.315 20.8994 166.895 20.8994 152.536C20.8994 139.816 23.8419 126.867 29.7016 113.697L30.0918 112.82L57.2808 123.607L56.8416 124.564C51.6718 135.839 49.1299 145.485 49.1299 153.532C49.1299 157.719 49.8721 160.545 51.1629 162.218C52.4905 163.939 54.0646 164.734 55.9326 164.734C57.914 164.734 59.7776 163.74 61.5293 161.475C62.412 160.306 63.7051 158.081 65.4186 154.736C67.1242 151.408 69.2197 147.024 71.7062 141.582C76.4355 131.067 81.5836 123.638 87.2053 119.448C92.7814 115.195 99.7852 113.104 108.145 113.104C115.849 113.104 122.737 115.061 128.778 118.993ZM87.8076 120.246C82.3844 124.286 77.321 131.535 72.6172 141.994C67.6367 152.896 64.2057 159.592 62.3242 162.082C60.4427 164.517 58.3122 165.734 55.9326 165.734C53.7191 165.734 51.8652 164.766 50.3711 162.829C48.877 160.892 48.1299 157.793 48.1299 153.532C48.1299 145.508 50.5928 136.017 55.5187 125.059C55.6548 124.756 55.7928 124.452 55.9326 124.147L30.6152 114.104C24.8047 127.163 21.8994 139.974 21.8994 152.536C21.8994 166.758 25.026 177.937 31.2793 186.071C37.5326 194.206 46.2484 198.273 57.4268 198.273C63.4033 198.273 68.5775 197.333 72.9492 195.451C77.321 193.514 81.1947 190.581 84.5703 186.652C87.946 182.668 91.4323 176.719 95.0293 168.806C98.9583 160.062 101.559 154.694 102.832 152.702C104.105 150.655 105.378 149.188 106.65 148.303C107.868 147.362 109.307 146.892 110.967 146.892C113.623 146.892 115.809 148.026 117.524 150.295C119.185 152.564 120.015 156.133 120.015 161.003C120.015 166.647 119.129 172.845 117.358 179.597C115.629 185.989 113.28 192.158 110.311 198.104C110.144 198.438 109.975 198.771 109.805 199.104H139.023C141.846 193.182 143.838 187.482 145 182.004C146.107 176.525 146.66 169.746 146.66 161.667C146.66 151.983 145.055 143.544 141.846 136.35C138.581 129.156 134.043 123.649 128.232 119.831C122.367 116.013 115.671 114.104 108.145 114.104C99.9544 114.104 93.1755 116.151 87.8076 120.246ZM128.778 20.8777L128.782 20.8801C134.771 24.8159 139.424 30.479 142.756 37.8211L142.759 37.8269C146.037 45.175 147.66 53.7585 147.66 63.5518C147.66 71.6711 147.105 78.5212 145.98 84.0867L145.978 84.0962C144.797 89.6635 142.777 95.438 139.926 101.419L139.655 101.988H108.167L108.915 100.532C112.092 94.3416 114.584 87.9061 116.392 81.2242C118.145 74.5385 119.015 68.4282 119.015 62.8877C119.015 58.0961 118.191 54.7885 116.722 52.776C115.181 50.7414 113.282 49.7764 110.967 49.7764C109.509 49.7764 108.29 50.1843 107.262 50.9788L107.242 50.9941L107.221 51.0084C106.105 51.7851 104.918 53.1255 103.681 55.1149L103.675 55.1254C102.45 57.0416 99.882 62.3311 95.9414 71.1003L95.9397 71.1042C92.3262 79.0538 88.795 85.0977 85.3333 89.1835L85.3288 89.1888C81.8645 93.221 77.8729 96.2483 73.3543 98.2502L73.3446 98.2545C68.8204 100.202 63.5057 101.158 57.4268 101.158C45.9698 101.158 36.9477 96.9708 30.4865 88.5655C24.0555 80.1996 20.8994 68.7797 20.8994 54.4209C20.8994 41.7009 23.8419 28.752 29.7016 15.5818L30.0918 14.7048L57.2808 25.4913L56.8416 26.449C51.6718 37.7236 49.1299 47.3701 49.1299 55.417C49.1299 59.6039 49.8721 62.4298 51.1629 64.1031C52.4905 65.824 54.0646 66.6191 55.9326 66.6191C57.914 66.6191 59.7776 65.6249 61.5293 63.3601C62.412 62.1905 63.7051 59.9653 65.4186 56.6212C67.1242 53.2925 69.2197 48.9092 71.7062 43.4664C76.4355 32.9513 81.5836 25.5223 87.2053 21.3326C92.7814 17.0802 99.7852 14.9883 108.145 14.9883C115.849 14.9883 122.737 16.9457 128.778 20.8777ZM87.8076 22.1309C82.3844 26.1706 77.321 33.4199 72.6172 43.8789C67.6367 54.7806 64.2057 61.4766 62.3242 63.9668C60.4427 66.4017 58.3122 67.6191 55.9326 67.6191C53.7191 67.6191 51.8652 66.6507 50.3711 64.7139C48.877 62.777 48.1299 59.678 48.1299 55.417C48.1299 47.3932 50.5928 37.9022 55.5187 26.9438C55.6548 26.6411 55.7928 26.3372 55.9326 26.0322L30.6152 15.9883C24.8047 29.0482 21.8994 41.8591 21.8994 54.4209C21.8994 68.6429 25.026 79.8213 31.2793 87.9561C37.5326 96.0908 46.2484 100.158 57.4268 100.158C63.4033 100.158 68.5775 99.2175 72.9492 97.3359C77.321 95.3991 81.1947 92.4661 84.5703 88.5371C87.946 84.5527 91.4323 78.6038 95.0293 70.6904C98.9583 61.947 101.559 56.5791 102.832 54.5869C104.105 52.5394 105.378 51.0729 106.65 50.1875C107.868 49.2468 109.307 48.7764 110.967 48.7764C113.623 48.7764 115.809 49.9108 117.524 52.1797C119.185 54.4485 120.015 58.0179 120.015 62.8877C120.015 68.5322 119.129 74.7302 117.358 81.4814C115.629 87.8736 113.28 94.0426 110.311 99.9883C110.144 100.322 109.975 100.656 109.805 100.988H139.023C141.846 95.0671 143.838 89.3672 145 83.8887C146.107 78.4102 146.66 71.6312 146.66 63.5518C146.66 53.8675 145.055 45.4284 141.846 38.2344C138.581 31.0403 134.043 25.5342 128.232 21.7158C122.367 17.8975 115.671 15.9883 108.145 15.9883C99.9544 15.9883 93.1755 18.0358 87.8076 22.1309ZM145 588.244V555.29H23.6426V588.244H145Z" fill="#E4E1E1"/>
</g>
<defs>
<filter id="filter0_d" x="0.899414" y="0.70459" width="166.761" height="706.18" filterUnits="userSpaceOnUse" color-interpolation-filters="sRGB">
<feFlood flood-opacity="0" result="BackgroundImageFix"/>
<feColorMatrix in="SourceAlpha" type="matrix" values="0 0 0 0 0 0 0 0 0 0 0 0 0 0 0 0 0 0 127 0" result="hardAlpha"/>
<feOffset dy="6"/>
<feGaussianBlur stdDeviation="10"/>
<feColorMatrix type="matrix" values="0 0 0 0 0.875 0 0 0 0 0.875 0 0 0 0 0.875 0 0 0 0.35 0"/>
<feBlend mode="normal" in2="BackgroundImageFix" result="effect1_dropShadow"/>
<feBlend mode="normal" in="SourceGraphic" in2="effect1_dropShadow" result="shape"/>
</filter>
</defs>
</svg>
