<svg width="76" height="76" viewBox="0 0 76 76" fill="none" xmlns="http://www.w3.org/2000/svg">
<g clip-path="url(#clip0)">
<path d="M46.0436 43.9586C45.9246 43.8017 45.8132 43.6384 45.6904 43.4839L45.5638 43.3219C40.5711 37.0852 39.6612 28.5144 43.2333 21.3685L43.3485 21.1407C46.4914 14.8531 48.9376 8.24075 50.6439 1.42163L48.188 0.806396C46.5272 7.44734 44.1454 13.8869 41.085 20.0102L40.9698 20.2381C36.9563 28.2685 37.9802 37.9 43.5928 44.9068L43.7194 45.0688C44.2919 45.7858 44.8161 46.5398 45.2891 47.3259L47.1031 50.3578C47.87 51.6365 48.4956 52.9948 48.9691 54.4087C49.2223 55.1682 49.4514 55.9392 49.6641 56.7076C40.6559 57.533 29.288 58.0798 15.8694 58.0798C10.5045 58.0798 5.19528 57.9861 0.0911453 57.8026L0 60.3344C5.13579 60.5192 10.4741 60.6129 15.8694 60.6129C16.4011 60.6116 19.5291 60.6116 24.0978 60.5104V74.5366C24.0978 75.2357 24.6646 75.8025 25.3637 75.8025H30.4273C31.1264 75.8025 31.6933 75.2357 31.6933 74.5366V60.2926C37.5164 60.0812 44.2447 59.7306 50.6819 59.1533V74.5366C50.6819 75.2357 51.2487 75.8025 51.9478 75.8025H57.0114C57.7105 75.8025 58.2773 75.2357 58.2773 74.5366V58.3178C64.2802 57.5304 69.4844 56.4734 72.6719 55.0518L71.525 60.0243C70.3621 65.036 68.0931 69.7241 64.8841 73.7454L66.8614 75.3278C70.3064 71.0092 72.7428 65.9751 73.9923 60.5939L75.8911 52.3655C75.96 52.1676 75.9967 51.9598 76 51.7503C76 50.3882 75.9911 46.2575 46.0436 43.9586ZM29.1614 73.2707H26.6296V60.6116H29.1614V73.2707ZM55.7455 73.2707H53.2137V59.3457H55.7455V73.2707ZM73.4353 51.7731C72.5365 53.2846 65.0942 55.1594 52.2212 56.4709C51.9604 55.5138 51.6857 54.5593 51.3718 53.6137C50.8404 52.0228 50.137 50.4947 49.2742 49.0564L47.8272 46.6449C67.15 48.2602 72.7897 50.7806 73.4353 51.7503V51.7731Z" fill="white"/>
<path d="M10.1729 44.1548V46.6866C10.8719 46.6866 11.4388 47.2534 11.4388 47.9525C11.4388 48.6516 10.8719 49.2184 10.1729 49.2184V51.7502C12.2703 51.7502 13.9706 50.05 13.9706 47.9525C13.9706 45.8551 12.2703 44.1548 10.1729 44.1548Z" fill="white"/>
<path d="M10.1729 63.1436C7.37633 63.1436 5.10925 65.4106 5.10925 68.2072C5.10925 71.0037 7.37633 73.2708 10.1729 73.2708C12.9694 73.2708 15.2365 71.0037 15.2365 68.2072C15.2365 65.4106 12.9694 63.1436 10.1729 63.1436ZM10.1729 70.739C8.77453 70.739 7.64107 69.6055 7.64107 68.2072C7.64107 66.8088 8.77453 65.6754 10.1729 65.6754C11.5712 65.6754 12.7047 66.8088 12.7047 68.2072C12.7047 69.6055 11.5712 70.739 10.1729 70.739Z" fill="white"/>
<path d="M69.6705 28.9639H67.1387V31.4957H69.6705V28.9639Z" fill="white"/>
<path d="M64.6069 28.9639H62.0751V31.4957H64.6069V28.9639Z" fill="white"/>
<path d="M59.5432 28.9639H57.0114V31.4957H59.5432V28.9639Z" fill="white"/>
<path d="M54.4796 28.9639H51.9478V31.4957H54.4796V28.9639Z" fill="white"/>
<path d="M54.1087 24.7954L52.3187 23.0054L45.9892 29.3349C45.495 29.8292 45.495 30.6306 45.9892 31.1249L52.3187 37.4544L54.1087 35.6644L48.6742 30.2299L54.1087 24.7954Z" fill="white"/>
<path d="M39.5419 0.269666C36.8985 3.2216 33.124 4.90969 29.1614 4.91175C25.1653 4.91064 21.3619 3.19391 18.7177 0.19751L16.8188 1.87357C19.9441 5.41415 24.4388 7.44261 29.1614 7.44356C33.8434 7.44024 38.303 5.4458 41.4268 1.95839L39.5419 0.269666Z" fill="white"/>
</g>
<defs>
<clipPath id="clip0">
<rect width="76" height="76" fill="white"/>
</clipPath>
</defs>
</svg>
