<svg width="78" height="78" viewBox="0 0 78 78" fill="none" xmlns="http://www.w3.org/2000/svg">
<path d="M2.43762 2.48315L4.87268 2.39053L5.27157 12.877L2.83651 12.9696L2.43762 2.48315Z" fill="white"/>
<path d="M30.4688 35.3438H32.9062V41.4375H30.4688V35.3438Z" fill="white"/>
<path d="M54.7859 62.205H53.6668L52.8318 61.231L44.3005 68.5435L45.887 70.3941L54.4183 63.0816L53.6674 62.2057L54.7859 62.205Z" fill="white"/>
<path d="M64.8141 28.7302L71.2493 37.9226L73.246 36.5247L66.9282 27.4998L59.6719 2.10229L57.3282 2.77261L64.6407 28.3664C64.678 28.4964 64.7366 28.6193 64.8141 28.7302Z" fill="white"/>
<path d="M48.8199 36.9707L51.1331 36.2005L52.351 39.8579L50.0378 40.6281L48.8199 36.9707Z" fill="white"/>
<path d="M53.844 40.7756L56.2828 37.1197L58.3108 38.4725L55.872 42.1284L53.844 40.7756Z" fill="white"/>
<path d="M63.9344 59.5344L65.2873 57.5064L68.9432 59.9452L67.5904 61.9732L63.9344 59.5344Z" fill="white"/>
<path d="M59.7749 61.1963L62.1393 60.604L63.3604 65.4783L60.996 66.0706L59.7749 61.1963Z" fill="white"/>
<path d="M31.6876 9.74989C33.7457 9.74633 35.7741 9.25762 37.608 8.32341C39.4419 7.38921 41.0298 6.03582 42.2427 4.37307L40.2717 2.93921C39.2853 4.29151 37.9939 5.39222 36.5025 6.15204C35.011 6.91186 33.3614 7.3094 31.6876 7.31239C30.0137 7.3094 28.3642 6.91186 26.8727 6.15204C25.3812 5.39222 24.0899 4.29151 23.1035 2.93921L21.1324 4.37307C22.3454 6.03582 23.9333 7.38921 25.7672 8.32341C27.6011 9.25762 29.6294 9.74633 31.6876 9.74989Z" fill="white"/>
<path d="M19.5 15.8438H21.9375V18.2813H19.5V15.8438Z" fill="white"/>
<path d="M70.6875 38.9999H64.2891L58.353 31.085L51.8714 14.8804C53.0015 13.1782 53.6109 11.1836 53.625 9.14052C53.6288 6.78034 52.7151 4.51107 51.0769 2.81201L49.3187 4.50029C50.5201 5.746 51.1902 7.4099 51.1875 9.14052C51.1875 11.967 49.5206 14.8007 47.2769 15.8436H24.375V18.2811H46.1998C46.0976 19.1058 45.9475 19.8579 45.7603 20.7186H17.3989C17.1887 19.5049 17.0763 18.2762 17.0625 17.0444C17.059 16.8068 16.9862 16.5754 16.8529 16.3787C16.7196 16.182 16.5316 16.0285 16.3123 15.9372C13.9607 14.9585 12.1875 12.0367 12.1875 9.14052C12.1849 7.4099 12.855 5.746 14.0563 4.50029L12.2981 2.81201C10.66 4.51107 9.74626 6.78034 9.75005 9.14052C9.75005 12.1874 11.2057 15.1854 13.4063 16.9913V31.601L11.2788 46.4937C10.7732 47.4823 10.3211 48.4973 9.92448 49.5345C8.15639 54.1909 7.55262 59.2089 8.16567 64.1518L9.28799 73.1249H7.96473L6.05358 70.2581L4.87809 59.6775L6.09273 31.7404C6.09415 31.7058 6.09415 31.6712 6.09273 31.6367L5.40078 15.0283L2.96527 15.1298L3.65523 31.6863L2.43861 59.6656C2.43594 59.7282 2.43808 59.7909 2.44501 59.8532L3.66376 70.8219C3.68544 71.0157 3.75337 71.2014 3.86181 71.3635L6.29931 75.0197C6.41053 75.1866 6.56119 75.3234 6.73794 75.418C6.91468 75.5127 7.11205 75.5623 7.31255 75.5624H28.0313C28.3545 75.5624 28.6645 75.434 28.8931 75.2054C29.1216 74.9769 29.25 74.6669 29.25 74.3436V63.3749H34.125V74.3436C34.125 74.6669 34.2534 74.9769 34.482 75.2054C34.7106 75.434 35.0206 75.5624 35.3438 75.5624H52.1062C52.3566 75.5624 52.601 75.4853 52.806 75.3415C53.011 75.1977 53.1668 74.9942 53.2521 74.7588L61.2541 52.6727C61.5418 53.3184 62.0102 53.867 62.6028 54.2522C63.1955 54.6374 63.887 54.8428 64.5938 54.8436H71.9063C72.8757 54.8426 73.805 54.457 74.4905 53.7715C75.1759 53.0861 75.5615 52.1568 75.5625 51.1874V43.8749C75.5611 42.5824 75.047 41.3433 74.1331 40.4294C73.2192 39.5154 71.98 39.0013 70.6875 38.9999ZM46.7406 23.1561C47.0186 23.1562 47.2882 23.0612 47.5047 22.8869C47.7212 22.7127 47.8717 22.4697 47.9312 22.1982L48.0179 21.8036C48.3226 20.4226 48.571 19.2909 48.6969 17.8572C49.1828 17.593 49.6405 17.2799 50.0628 16.9227L56.1497 32.14C56.1895 32.2393 56.2421 32.333 56.3063 32.4186L61.4761 39.3117C60.3264 39.7432 59.3831 40.5949 58.8369 41.6947L55.3094 48.7499H52.5376C52.1674 47.8534 51.7546 46.9707 51.3036 46.1168L48.1486 40.1586C46.039 36.1806 45.4747 31.5631 46.5642 27.1942L47.0484 25.5277L44.7082 24.8472L44.2175 26.5359C44.2132 26.5511 44.2091 26.5653 44.2055 26.5802C42.9622 31.5389 43.5994 36.7823 45.9941 41.2989L49.1487 47.2569C49.407 47.7444 49.6515 48.2443 49.8814 48.7499H43.4095L44.9651 45.6387L42.785 44.5486L40.6844 48.7499H22.6907L20.5901 44.5486L18.41 45.6387L19.9656 48.7499H12.895C13.0983 48.3035 13.3111 47.862 13.5349 47.4304L16.7798 41.2994C19.1707 36.7902 19.8098 31.5562 18.5743 26.6041L17.8547 23.1561H46.7406ZM15.8315 31.8597C15.8397 31.8026 15.8438 31.7451 15.8438 31.6874V25.4501L16.1942 27.1259C16.1974 27.1412 16.201 27.1564 16.2049 27.1716C17.2967 31.527 16.7443 36.132 14.6535 40.1056L15.8315 31.8597ZM51.2515 73.1249H36.5625V63.1257L51.4618 59.6882L50.9133 57.3131L35.2052 60.9374H32.9063V56.0624H57.4336L51.2515 73.1249ZM58.3172 53.6249H13.4063V56.0624H30.4688V60.9374H28.2021L19.8352 58.5468L19.1649 60.8905L26.8125 63.0755V73.1249H11.7445L10.5846 63.8498C10.0553 59.5826 10.5111 55.2509 11.917 51.1874H59.1998L58.3172 53.6249ZM73.125 51.1874C73.1247 51.5105 72.9962 51.8203 72.7677 52.0488C72.5392 52.2773 72.2294 52.4058 71.9063 52.4061H64.5938C64.2707 52.4058 63.9609 52.2773 63.7324 52.0488C63.5039 51.8203 63.3754 51.5105 63.375 51.1874V47.5311C63.375 47.2566 63.2823 46.9901 63.1119 46.7749C62.9416 46.5596 62.7035 46.4082 62.4363 46.3451C62.1692 46.282 61.8885 46.311 61.6398 46.4273C61.3912 46.5436 61.1891 46.7405 61.0663 46.9861L60.1844 48.7499H58.0345L61.0171 42.7849C61.2183 42.379 61.5292 42.0376 61.9145 41.7994C62.2999 41.5613 62.7443 41.4358 63.1973 41.4374H70.6875C71.3338 41.4382 71.9533 41.6952 72.4103 42.1522C72.8672 42.6091 73.1243 43.2287 73.125 43.8749V51.1874Z" fill="white"/>
</svg>
