<svg width="83" height="83" viewBox="0 0 83 83" fill="none" xmlns="http://www.w3.org/2000/svg">
<path d="M80.1598 17.9809H74.6263C73.8623 17.9809 73.2429 18.6003 73.2429 19.3643V20.7477C73.2429 19.9837 72.6235 19.3643 71.8595 19.3643H67.7094C66.9796 19.3627 66.3742 19.9282 66.326 20.6564L66.2305 22.1311H63.5592V19.3643C63.5592 18.6003 62.9398 17.9809 62.1758 17.9809H56.6423C55.8783 17.9809 55.2589 18.6003 55.2589 19.3643V27.6646C55.2589 28.4286 55.8783 29.048 56.6423 29.048H62.1758C62.9398 29.048 63.5592 28.4286 63.5592 27.6646V24.8978H66.0493L65.294 36.2153C65.1702 37.6445 63.9701 38.7393 62.5355 38.7317H53.8755V38.1382C53.8734 37.6054 53.5656 37.1212 53.0842 36.8932C51.2108 36.018 49.2244 35.4081 47.1827 35.0809C46.961 35.0491 46.735 35.0719 46.5242 35.1473C45.7627 34.9153 44.9823 34.7505 44.1918 34.6548V30.881C44.602 30.6712 44.9994 30.4369 45.3815 30.1796C50.0297 26.9273 53.8755 23.6611 53.8755 16.6321V15.2141C53.8688 11.0078 52.1276 6.9906 49.0627 4.10971C43.6701 -0.904027 35.4775 -1.38406 29.5362 2.96565C23.5275 1.88453 17.7799 5.87923 16.6988 11.8881C16.5834 12.5293 16.525 13.1793 16.5241 13.8308V34.5815C16.5241 35.3455 17.1435 35.9649 17.9075 35.9649C23.197 35.9739 28.2855 33.9383 32.1093 30.2833C32.4374 30.4997 32.7763 30.6991 33.1247 30.881V34.6548C32.3341 34.7486 31.5532 34.9115 30.791 35.1418C30.5807 35.0666 30.355 35.0437 30.1339 35.0754C28.0922 35.4026 26.1058 36.0125 24.2323 36.8876C23.7509 37.1157 23.4431 37.5999 23.441 38.1327V38.1783C18.2096 44.0549 15.2638 51.6157 15.1407 59.4825C15.1407 63.2771 15.322 67.6444 16.4453 70.5495H13.7573V67.7828C13.7573 67.0188 13.1379 66.3994 12.374 66.3994H6.84042C6.07644 66.3994 5.45703 67.0188 5.45703 67.7828V76.0831C5.45703 76.847 6.07644 77.4665 6.84042 77.4665H12.374C13.1379 77.4665 13.7573 76.847 13.7573 76.0831V73.3163H21.6662C20.1145 76.3089 19.3002 79.629 19.2909 83H22.0577C22.0647 80.6201 22.5346 78.2643 23.441 76.0637V76.0831C23.441 76.847 24.0605 77.4665 24.8244 77.4665H30.358C31.1219 77.4665 31.7414 76.847 31.7414 76.0831V70.5495H49.0613L49.8582 71.5456C52.4544 74.7993 53.8707 78.8374 53.8755 83H56.6423C56.6362 78.2093 55.0059 73.5622 52.0176 69.8177L50.9593 68.4952L50.4281 66.9016C49.1405 63.0331 49.2635 58.8338 50.7753 55.0473L50.8528 54.8536C52.5696 54.3159 53.7735 52.7708 53.8755 50.9746V50.9179L68.87 47.7057C71.4149 47.148 73.232 44.8992 73.2429 42.2939V27.6646C73.2429 28.4286 73.8623 29.048 74.6263 29.048H80.1598C80.9238 29.048 81.5432 28.4286 81.5432 27.6646V19.3643C81.5432 18.6003 80.9238 17.9809 80.1598 17.9809ZM60.7924 26.2812H58.0257V20.7477H60.7924V26.2812ZM10.9906 74.6997H8.2238V69.1662H10.9906V74.6997ZM21.7104 69.9657L21.8073 70.5537H19.5108C18.7209 69.4539 17.9075 66.5958 17.9075 59.4825C18.0221 53.3892 19.9485 47.4681 23.441 42.4737V50.875C21.6164 55.0086 21.0104 65.763 21.7104 69.9657ZM37.8282 2.78996C44.3891 2.34796 50.1599 7.09004 50.9981 13.6122L43.4268 9.82585C43.1615 9.69253 42.86 9.64878 42.5677 9.70135L26.4956 12.5373C27.6325 7.09816 32.2804 3.10053 37.8282 2.78996ZM19.2909 33.1456V13.8308C19.2964 9.54624 22.559 5.96863 26.8248 5.56918C24.6186 8.2979 23.4232 11.7052 23.441 15.2141V16.6321C23.441 22.5668 26.1871 25.8164 29.8378 28.644C26.9173 31.2706 23.2079 32.8538 19.2909 33.1456ZM26.2078 16.6321V15.3981L42.5995 12.5055L51.1018 16.7566C51.0617 21.9083 48.7086 24.4731 43.7962 27.9136C40.7083 30.0636 36.6083 30.0636 33.5204 27.9136C28.5665 24.4441 26.2078 21.8724 26.2078 16.6321ZM31.7414 37.7232C32.643 37.4761 33.5733 37.35 34.5081 37.3483C35.2721 37.3483 35.8915 36.7289 35.8915 35.9649V31.9296C37.7044 32.412 39.6121 32.412 41.425 31.9296V35.9649C41.425 36.7289 42.0445 37.3483 42.8084 37.3483C43.7433 37.35 44.6736 37.4761 45.5752 37.7232V39.9366L38.6583 41.4237L31.7414 39.9366V37.7232ZM24.2144 66.5557C24.1294 62.4194 24.4871 58.2858 25.2809 54.2256C25.6413 54.4749 26.0294 54.6814 26.4375 54.8412C27.8321 58.5578 27.8923 62.6433 26.6076 66.3994H24.8244C24.6116 66.4027 24.4025 66.4563 24.2144 66.5557ZM28.9746 74.6997H26.2078V69.1662H28.9746V74.6997ZM31.7414 67.7828C31.7414 67.0188 31.1219 66.3994 30.358 66.3994H29.5279C30.575 62.7846 30.575 58.9471 29.5279 55.3323H47.7333C46.4343 59.3848 46.459 63.7454 47.8038 67.7828H31.7414ZM51.1087 50.9746C51.1087 51.7258 49.926 52.5655 48.342 52.5655H28.9746C27.3906 52.5655 26.2078 51.7258 26.2078 50.9746V39.0388C27.1058 38.668 28.0308 38.3661 28.9746 38.1354V41.0585C28.9744 41.7108 29.4297 42.2745 30.0675 42.4115L38.3678 44.1974C38.5592 44.2393 38.7574 44.2393 38.9488 44.1974L47.2491 42.4115C47.8868 42.2745 48.3421 41.7108 48.342 41.0585V38.1341C49.2858 38.3647 50.2108 38.6667 51.1087 39.0374V50.9746ZM68.289 44.9998L53.8755 48.0875V41.4984H62.5355C65.4138 41.5073 67.815 39.3013 68.0497 36.4325L69.0042 22.1311H70.4761V42.2939C70.4711 43.5969 69.5621 44.7217 68.289 44.9998ZM78.7765 26.2812H76.0097V20.7477H78.7765V26.2812Z" fill="white"/>
</svg>
