<svg width="17" height="19" viewBox="0 0 17 19" fill="none" xmlns="http://www.w3.org/2000/svg">
<g clip-path="url(#clip0_839_4269)">
<path d="M2.36202 14.3467L2.20899 14.1722L3.46369 12.9235L3.63289 13.0702C3.74569 12.8216 3.86225 12.5776 3.97129 12.3306C3.98746 12.277 3.99321 12.2209 3.98821 12.1652C3.98821 11.5136 3.98821 10.8616 3.98821 10.21C3.98821 9.54671 4.37511 8.99625 4.99664 8.77027C5.1899 8.69996 5.38617 8.63679 5.62343 8.55595C4.90903 8.32283 4.27435 8.02015 3.79269 7.44112C3.93971 7.36592 4.0792 7.29861 4.21231 7.22191C4.84511 6.85719 5.17749 6.30636 5.1899 5.57767C5.20156 4.81928 5.1899 4.0609 5.19291 3.30288C5.19479 1.39131 6.82587 -0.123963 8.73669 0.00801258C10.446 0.126076 11.803 1.57442 11.8082 3.28822C11.8105 4.01502 11.8116 4.74183 11.8082 5.46901C11.8041 6.31764 12.1774 6.92901 12.9415 7.30087C13.0144 7.33847 13.0862 7.37607 13.1581 7.41367C13.169 7.41931 13.1787 7.42796 13.2039 7.44563C12.732 8.01827 12.0974 8.32133 11.3792 8.55595C11.6086 8.63491 11.8018 8.69921 11.9932 8.76839C12.6264 8.99662 13.011 9.54445 13.0122 10.219C13.0122 10.8706 13.0099 11.5226 13.0155 12.1742C13.0155 12.2558 13.0531 12.3392 13.0844 12.4175C13.1712 12.6355 13.2641 12.8514 13.3581 13.0773L13.5423 12.9183L14.7918 14.1685L14.6414 14.3497L17.0019 17.1404L15.7092 18.4323L12.9163 16.0695L12.7396 16.2301L11.4826 14.9757L11.668 14.7659C11.5807 14.7438 11.5112 14.725 11.4424 14.7084C11.2174 14.6561 11.0079 14.5515 10.8311 14.4029C10.6542 14.2544 10.5149 14.0662 10.4246 13.8536C10.3343 13.641 10.2954 13.4101 10.3112 13.1797C10.327 12.9493 10.397 12.7259 10.5155 12.5276C10.5679 12.4313 10.5977 12.3243 10.6028 12.2148C10.6159 12.0091 10.6366 11.7956 10.5971 11.5963C10.5471 11.3436 10.4749 11.0827 10.3505 10.8597C10.1283 10.4608 9.99064 10.0513 10.0042 9.59295C10.0106 9.38014 9.98989 9.16544 10.0098 8.95376C10.0275 8.76576 9.95455 8.67777 9.77896 8.64957C9.72613 8.6381 9.67403 8.62354 9.62292 8.60596C9.12998 9.56363 7.88205 9.57265 7.3846 8.60257C7.27819 8.63604 7.16239 8.66048 7.05974 8.71161C7.02214 8.73004 7.00108 8.81201 6.99883 8.86577C6.98379 9.25343 7.00823 9.64559 6.95408 10.0272C6.91648 10.2904 6.80368 10.557 6.67171 10.7924C6.49161 11.1135 6.38482 11.438 6.39159 11.8076C6.39761 12.1249 6.42468 12.4178 6.56718 12.7243C6.95183 13.5515 6.44423 14.5009 5.55199 14.7092C5.48581 14.7246 5.42039 14.7415 5.32977 14.7641L5.55086 15.0077C5.3403 15.2175 5.13124 15.4213 4.92557 15.6315C4.7199 15.8417 4.51762 16.0526 4.30781 16.2707L4.08559 16.0703L1.29231 18.4312L0 17.1392L2.36202 14.3467ZM11.1765 4.04059C11.1765 3.67775 11.2179 3.30364 11.1694 2.94155C10.8968 0.89236 8.51823 -0.0920029 6.87061 1.15631C5.90091 1.89101 5.69637 2.91485 5.8103 4.04548L6.39949 3.88267V3.29724C7.54628 3.41869 8.48665 3.05209 9.24241 2.11323C9.39769 2.90658 9.74173 3.41869 10.6069 3.30439V3.88342L11.1765 4.04059ZM6.99544 3.91802C6.99544 4.52939 6.99131 5.12121 6.99544 5.71604C6.99595 6.09567 7.13937 6.46119 7.39715 6.73988C7.65494 7.01857 8.0082 7.18999 8.38664 7.22003C9.15104 7.27944 9.87784 6.75304 9.96282 5.97698C10.038 5.2968 9.9929 4.60384 10.0004 3.91614C10.0004 3.90598 9.98914 3.89583 10.0031 3.91914C9.79437 3.8195 9.60149 3.75295 9.43905 3.64241C9.27662 3.53187 9.13525 3.37169 8.97432 3.22355C8.40243 3.65783 7.74556 3.8838 6.99544 3.91802V3.91802ZM10.605 8.93421C10.605 9.13574 10.6129 9.3102 10.605 9.48504C10.5828 9.89262 10.6904 10.257 10.9058 10.6063C11.0273 10.8048 11.1047 11.0375 11.1634 11.2646C11.2134 11.4579 11.2085 11.6655 11.2292 11.879C11.6195 11.7034 12.009 11.6948 12.4136 11.8459V10.3025C12.4136 9.77231 12.2026 9.47301 11.7059 9.30306C11.345 9.18048 10.9852 9.06167 10.6054 8.93421H10.605ZM5.79451 11.8847C5.77082 11.4117 5.83474 10.98 6.08891 10.616C6.44912 10.1009 6.40061 9.53279 6.38482 8.92669C5.9261 9.09175 5.47942 9.23049 5.05191 9.41548C4.77066 9.53655 4.60861 9.79975 4.59808 10.1036C4.5774 10.6777 4.59206 11.2534 4.59206 11.8493C4.99551 11.6888 5.3858 11.7106 5.79451 11.8847ZM3.62951 15.6631L2.76772 14.802L0.795236 17.1332L1.29832 17.6359L3.62951 15.6631ZM13.3479 15.6416L15.675 17.6111L16.1886 17.1114L14.2154 14.7802L13.3479 15.6416ZM11.2799 6.17626C11.0389 6.22702 10.8152 6.27139 10.5934 6.32403C10.5717 6.33002 10.5516 6.34048 10.5342 6.35473C10.5169 6.36897 10.5027 6.38669 10.4926 6.40675C10.3504 6.79776 10.1008 7.14075 9.77256 7.39637C9.70263 7.45165 9.66766 7.91751 9.72406 7.98255C9.73675 7.99624 9.75325 8.0058 9.77144 8.01C9.94026 8.0476 10.1098 8.11491 10.2783 8.11077C10.5283 8.10009 10.7768 8.06597 11.0205 8.00887C11.4297 7.92704 11.82 7.76955 12.1714 7.54452C11.7086 7.1719 11.4134 6.71093 11.2799 6.17626ZM4.83421 7.53925C5.29217 7.86787 6.33218 8.16341 6.86046 8.1228C7.19886 8.09686 7.30301 7.99346 7.29248 7.6622C7.28947 7.56708 7.26767 7.43886 7.20412 7.38509C6.89432 7.129 6.65599 6.79716 6.51229 6.42179C6.50465 6.40047 6.49275 6.38093 6.47729 6.36438C6.46184 6.34783 6.44317 6.33461 6.42242 6.32553C6.19118 6.27026 5.95806 6.22552 5.71893 6.17513C5.58658 6.71018 5.29142 7.17002 4.83421 7.53925ZM10.907 13.2627C10.9017 13.6282 11.1277 13.9745 11.4747 14.0869C11.6875 14.1557 11.9124 14.1865 12.1327 14.2301C12.1502 14.2336 12.1681 14.2335 12.1855 14.2298C12.2029 14.226 12.2194 14.2187 12.2338 14.2083C12.4252 14.0203 12.6625 13.8526 12.7817 13.6248C12.8527 13.4887 12.7369 13.2548 12.7065 13.0649C12.7055 13.0587 12.7041 13.0525 12.7023 13.0465C12.5922 12.5919 12.2008 12.2979 11.771 12.3475C11.2987 12.4017 10.9137 12.8107 10.907 13.2627ZM5.14591 12.3434C4.95941 12.3417 4.77761 12.4019 4.62891 12.5145C4.48021 12.627 4.37299 12.7857 4.32398 12.9657C4.27096 13.1578 4.23863 13.3559 4.20253 13.5522C4.19843 13.5724 4.19841 13.5932 4.20248 13.6135C4.20655 13.6337 4.21462 13.6529 4.22622 13.6699C4.40895 13.8579 4.57101 14.0921 4.7936 14.208C4.93084 14.2794 5.1632 14.1685 5.35271 14.1391L5.37113 14.1358C5.83812 14.0294 6.14268 13.6218 6.08553 13.1785C6.03026 12.7213 5.59786 12.3381 5.14591 12.3434ZM3.08506 14.1429L4.28826 15.3461L4.67441 15.0133L3.44715 13.7801L3.08506 14.1429ZM12.35 14.9945L12.6884 15.3645C13.103 14.9517 13.5109 14.5457 13.9119 14.1467L13.5585 13.7835L12.35 14.9945ZM7.90385 7.78929C7.88543 8.1025 7.85309 8.44127 8.20465 8.64807C8.30516 8.70764 8.42134 8.73538 8.53791 8.72767C8.65448 8.71995 8.76599 8.67713 8.85776 8.60483C9.15066 8.37923 9.11118 8.06678 9.0905 7.78929H7.90385ZM6.38783 4.5245C6.02123 4.54856 5.77345 4.8159 5.793 5.15242C5.80099 5.30342 5.86765 5.44532 5.97877 5.54787C6.08989 5.65043 6.23668 5.70551 6.38783 5.70137V4.5245ZM10.6114 5.70927C10.9385 5.72769 11.2277 5.41336 11.2066 5.08323C11.1983 4.9323 11.1314 4.79056 11.0203 4.68808C10.9092 4.5856 10.7625 4.53043 10.6114 4.53428V5.70927Z" fill="white"/>
<path d="M7.31989 15.0543L7.00443 15.037V13.2488L7.32478 13.2341C7.02398 12.8013 6.90404 12.3456 7.06685 11.8429C7.16382 11.5356 7.36143 11.2699 7.62784 11.0887C8.17303 10.7097 8.96526 10.7442 9.48339 11.1744C9.79208 11.4304 9.9594 11.7688 10.0015 12.1648C10.041 12.5551 9.90639 12.8998 9.67364 13.2356H9.99211V15.037L9.68342 15.0532C9.63153 15.6506 9.57889 16.2474 9.52888 16.8441C9.47888 17.4408 9.4315 18.0401 9.38224 18.6458H7.62032C7.51993 17.4551 7.42141 16.2658 7.31989 15.0543ZM7.926 15.0543C8.00947 16.0582 8.09219 17.0501 8.17454 18.0397H8.82501L9.07355 15.0457C8.72989 15.0457 8.41217 15.0457 8.09595 15.0457C8.04632 15.0457 7.99744 15.0502 7.926 15.0539V15.0543ZM8.48662 13.2183C8.84118 13.3409 9.04761 13.1736 9.18522 12.8739C9.20669 12.8358 9.23016 12.7989 9.25553 12.7634C9.4973 12.3663 9.43075 11.9174 9.08859 11.6316C8.76222 11.3586 8.21026 11.3658 7.89292 11.6466C7.54249 11.9568 7.50639 12.3949 7.78425 12.8314C7.95157 13.0939 8.0952 13.3826 8.48662 13.2179V13.2183ZM9.3939 13.8556H7.61204V14.4347H9.3939V13.8556Z" fill="white"/>
<path d="M8.48662 13.2179C8.09521 13.3826 7.95158 13.0938 7.78426 12.831C7.5064 12.3944 7.54249 11.9564 7.89292 11.6462C8.21026 11.3653 8.76223 11.3582 9.0886 11.6312C9.43075 11.9169 9.49731 12.3659 9.25554 12.7629C9.23017 12.7985 9.2067 12.8354 9.18523 12.8735C9.04761 13.1731 8.84119 13.3405 8.48662 13.2179Z" fill="white"/>
</g>
<defs>
<clipPath id="clip0_839_4269">
<rect width="17" height="18.6457" fill="white"/>
</clipPath>
</defs>
</svg>
