<svg width="17" height="17" viewBox="0 0 17 17" fill="none" xmlns="http://www.w3.org/2000/svg">
<g clip-path="url(#clip0_839_4289)">
<path d="M0.631908 15.5161L0 14.8792C1.86679 12.7563 3.09735 10.3511 3.18548 7.44462C3.43359 7.42001 3.68436 7.40138 3.93612 7.36946C4.96048 7.23642 5.93994 6.97036 6.82661 6.41627C6.89417 6.38157 6.97006 6.36637 7.04578 6.37237C8.68708 6.4176 10.1358 7.60692 10.5196 9.2256C10.5655 9.41884 10.5835 9.61838 10.6154 9.81494C10.644 9.99154 10.5998 10.1419 10.5043 10.2985C10.0404 11.0611 9.79924 11.9039 9.66288 12.7786C9.61033 13.1165 9.58306 13.4581 9.54248 13.8133C8.15461 13.8369 6.82694 14.1578 5.5568 14.7289C4.30431 15.2957 3.14929 16.0569 2.13452 16.9844L1.52257 16.3708C1.53886 16.3532 1.57245 16.3123 1.6097 16.275C3.10633 14.7778 4.60428 13.2818 6.10357 11.7872C6.17056 11.7279 6.2563 11.6943 6.34569 11.692C6.89512 11.6837 7.3308 11.3146 7.41827 10.7691C7.4961 10.2812 7.18546 9.7757 6.71253 9.62371C6.18472 9.45376 5.64826 9.67027 5.41546 10.1685C5.35108 10.3149 5.31572 10.4725 5.31136 10.6324C5.31121 10.6863 5.29993 10.7395 5.27824 10.7888C5.25655 10.8381 5.22491 10.8823 5.18531 10.9188C3.70642 12.3941 2.22931 13.8711 0.753967 15.3498C0.708983 15.4019 0.668171 15.4575 0.631908 15.5161Z" fill="white"/>
<path d="M16.9996 10.6163H15.4215C15.3723 8.13826 14.5182 5.99343 12.7665 4.23806C11.0147 2.48268 8.86925 1.62429 6.38086 1.5714V0.00460389C11.7401 -0.166344 17.0438 4.4426 16.9996 10.6163Z" fill="white"/>
<path d="M6.37573 4.77134V3.1929C10.2769 3.08614 13.8688 6.45654 13.8043 10.6148H12.2232C12.1949 9.01843 11.6399 7.62823 10.5054 6.49279C9.37098 5.35735 7.9881 4.8016 6.37573 4.77134Z" fill="white"/>
</g>
<defs>
<clipPath id="clip0_839_4289">
<rect width="17" height="16.9844" fill="white"/>
</clipPath>
</defs>
</svg>
