<svg width="20" height="20" viewBox="0 0 20 20" fill="none" xmlns="http://www.w3.org/2000/svg">
<g clip-path="url(#clip0_1195_1213)">
<path d="M7.25034 0C7.48912 0.0501444 7.73442 0.0818373 7.96669 0.15434C8.65916 0.369028 9.2648 0.733497 9.7543 1.27271C9.9179 1.45273 10.036 1.66935 10.0986 1.9044C10.1581 2.12669 10.2195 2.34875 10.2722 2.54173C9.97724 2.80222 9.67919 3.04296 9.40828 3.31083C8.92421 3.7884 8.50547 4.3211 8.27146 4.96928C8.04462 5.5988 7.87552 6.24373 7.8156 6.91232C7.78673 7.2286 7.77805 7.54683 7.7583 7.86398C7.75591 7.90175 7.75048 7.94647 7.72899 7.97447C7.39296 8.41405 7.35475 8.89769 7.50671 9.41259C7.60352 9.74103 7.74375 10.0488 8.02921 10.2501C8.15598 10.3393 8.19397 10.4435 8.23434 10.5757C8.32155 10.8725 8.42392 11.1646 8.54107 11.4509C8.59469 11.5784 8.70496 11.6843 8.7983 11.7922C8.86358 11.8648 8.93529 11.9313 9.01256 11.991C9.1797 12.1256 9.1949 12.3166 9.21965 12.5077C9.2546 12.7792 9.18839 13.0069 8.95655 13.1697C8.59816 13.4205 8.19896 13.585 7.79303 13.7409C7.31546 13.9234 6.83443 14.1012 6.36945 14.3128C6.02802 14.4657 5.73049 14.702 5.50419 14.9999C5.26758 15.3142 5.19052 15.6843 5.14428 16.0636C5.12257 16.25 5.1115 16.438 5.10086 16.6253C5.08936 16.8049 5.03053 16.8617 4.85405 16.845C4.17091 16.7799 3.48648 16.7263 2.80551 16.6455C2.09329 16.5611 1.38389 16.4567 0.681648 16.3015C0.303286 16.2179 0.145689 15.9934 0.0827377 15.6366C-0.0106157 15.1167 -0.0245951 14.5856 0.0412764 14.0615C0.0796987 13.7587 0.118772 13.4537 0.198005 13.1589C0.304806 12.7638 0.614138 12.5294 0.951255 12.3316C1.32202 12.1128 1.73403 12.003 2.13822 11.8721C2.53894 11.7418 2.94552 11.6287 3.33908 11.4813C3.72548 11.3352 4.05543 11.0906 4.3335 10.7847C4.52323 10.5811 4.62717 10.3122 4.62373 10.0339C4.62373 9.76708 4.64544 9.4953 4.54103 9.24219C4.4898 9.11802 4.42012 8.99212 4.32808 8.89617C4.16093 8.72251 3.97359 8.56709 3.78995 8.40949C3.61802 8.2621 3.53119 8.06347 3.45413 7.86138C3.3749 7.65342 3.31282 7.43895 3.24075 7.22817C3.23011 7.19713 3.21166 7.1548 3.18604 7.14481C2.84958 7.01153 2.70848 6.71826 2.59017 6.41218C2.40783 5.94091 2.47208 5.50047 2.77273 5.09193C2.80291 5.0509 2.81094 4.98448 2.8092 4.93043C2.78142 4.09143 2.89777 3.27024 3.17389 2.48073C3.64212 1.14377 4.56013 0.303905 5.97394 0.0471053C6.08704 0.0264832 6.20209 0.0154123 6.31692 0H7.25034Z" fill="white"/>
<path d="M13.1228 19.9999C12.3771 19.9515 11.6052 19.9061 10.8342 19.8495C10.3153 19.8115 9.79676 19.7661 9.27968 19.7082C8.48085 19.6185 7.68331 19.5195 6.90097 19.322C6.64613 19.2569 6.52435 19.1049 6.46682 18.86C6.35025 18.3593 6.30575 17.8552 6.35568 17.3436C6.3813 17.0815 6.40887 16.8195 6.44251 16.5586C6.50503 16.0776 6.76031 15.7294 7.17102 15.4758C7.61906 15.1989 8.11377 15.0456 8.61087 14.898C9.0218 14.776 9.44379 14.6892 9.82541 14.4823C10.1156 14.3263 10.3828 14.1308 10.6193 13.9014C10.9449 13.5836 11.0256 13.1909 10.975 12.7572C10.9605 12.6322 10.9483 12.5065 10.9227 12.3836C10.8643 12.1014 10.6657 11.9175 10.4506 11.7571C10.1369 11.5233 9.9016 11.2375 9.78026 10.863C9.71817 10.6715 9.65848 10.4792 9.59596 10.2877C9.58641 10.2591 9.57295 10.2165 9.55124 10.209C9.22563 10.0965 9.09105 9.82017 8.96644 9.53602C8.75632 9.05737 8.81449 8.60932 9.12296 8.18885C9.15139 8.14999 9.15942 8.08856 9.15942 8.0369C9.15942 7.54848 9.17397 7.06115 9.26796 6.58032C9.38583 5.98185 9.51543 5.38836 9.82237 4.8485C10.2982 4.01167 10.9946 3.44381 11.9217 3.20719C12.9487 2.94518 13.9655 2.9797 14.939 3.46399C15.9211 3.9522 16.5328 4.72694 16.8237 5.78062C17.0317 6.5343 17.166 7.29298 17.1428 8.07641C17.1406 8.10796 17.1496 8.13929 17.1684 8.16476C17.4009 8.4107 17.4723 8.70744 17.4476 9.03458C17.4259 9.33327 17.356 9.6172 17.1788 9.86793C17.0722 10.0199 16.9533 10.1484 16.7707 10.2081C16.7423 10.2174 16.7167 10.2604 16.7056 10.2932C16.6444 10.4736 16.5921 10.6572 16.5293 10.837C16.4136 11.1689 16.2278 11.45 15.9356 11.6568C15.8207 11.7386 15.7134 11.8306 15.6152 11.9319C15.3417 12.2141 15.2833 12.5733 15.2825 12.9447C15.2805 13.612 15.635 14.0568 16.2044 14.3453C16.6819 14.5874 17.1951 14.7334 17.7109 14.8735C18.1628 14.9961 18.6046 15.1513 19.0133 15.3918C19.5102 15.6845 19.8185 16.0999 19.8769 16.6787C19.9183 17.0874 19.9583 17.4981 19.9615 17.9084C19.9643 18.2605 19.9277 18.615 19.7855 18.9475C19.7638 18.9992 19.732 19.046 19.6919 19.0851C19.6518 19.1243 19.6043 19.155 19.5521 19.1755C19.1243 19.3598 18.6701 19.4425 18.2145 19.5173C17.2292 19.6802 16.2372 19.8058 15.2386 19.8692C14.544 19.9133 13.8478 19.9552 13.1228 19.9999Z" fill="white"/>
</g>
<defs>
<clipPath id="clip0_1195_1213">
<rect width="19.9633" height="20" fill="white"/>
</clipPath>
</defs>
</svg>
