<svg width="20" height="19" viewBox="0 0 20 19" fill="none" xmlns="http://www.w3.org/2000/svg">
<g clip-path="url(#clip0_1219_926)">
<path d="M16.4232 12.3702C16.4232 12.7458 16.4442 13.073 16.4232 13.39C16.3131 14.8378 15.1737 15.9857 13.7252 16.0239C11.9292 16.0708 10.1331 16.0427 8.33711 16.0466H7.82407C7.82407 16.633 7.84359 17.1757 7.81313 17.7161C7.80376 17.8957 7.70693 18.162 7.57887 18.2182C7.4508 18.2744 7.18374 18.1612 7.05177 18.0386C6.44346 17.4701 5.87186 16.8626 5.26355 16.2941C5.10358 16.1548 4.90272 16.0712 4.69116 16.0559C4.04225 16.0231 3.38943 16.0598 2.73895 16.0286C2.00309 15.9964 1.30806 15.6813 0.79885 15.1491C0.289637 14.6169 0.00555497 13.9087 0.00585663 13.1721C-0.00195221 10.842 -0.00195221 8.51181 0.00585663 6.18166C0.00602229 5.41855 0.307264 4.68633 0.844148 4.14404C1.38103 3.60174 2.1102 3.29317 2.87326 3.28536C3.08098 3.28536 3.28791 3.28536 3.51203 3.28536C3.56044 2.90975 3.57215 2.54586 3.65805 2.20071C3.80755 1.57541 4.1633 1.01869 4.66792 0.620316C5.17255 0.221943 5.79664 0.00513891 6.43956 0.00486437C7.63665 -0.00372536 8.83375 0.00486437 10.0316 0.00486437C10.3026 0.00486437 10.5462 0.0517174 10.5564 0.382812C10.5673 0.742019 10.3151 0.791995 10.0254 0.791214C8.88008 0.78705 7.73479 0.78705 6.58949 0.791214C5.24871 0.795119 4.36163 1.66502 4.35538 3.01127C4.34445 5.13319 4.34445 7.25485 4.35538 9.37625C4.36241 10.7326 5.22607 11.5791 6.59105 11.583C8.47767 11.5885 10.3651 11.583 12.2525 11.583C12.8561 11.583 12.9615 11.6885 12.9631 12.2788C12.9631 12.5724 12.9631 12.866 12.9631 13.1589L13.0685 13.219C13.487 12.7809 13.9134 12.3499 14.3179 11.9024C14.4163 11.7905 14.5392 11.7029 14.6772 11.6465C14.8151 11.5902 14.9642 11.5666 15.1128 11.5776C15.7766 11.5932 16.4403 11.5916 17.1041 11.5776C18.3184 11.5534 19.207 10.6522 19.2125 9.43091C19.2203 7.26995 19.2203 5.1095 19.2125 2.94958C19.2094 1.71812 18.291 0.799804 17.0666 0.788872C15.8422 0.777939 14.6201 0.782625 13.3965 0.788872C13.1075 0.788872 12.8389 0.738114 12.8334 0.403896C12.828 0.0696777 13.0857 -0.0013827 13.3801 0.000179064C14.6295 0.00564525 15.8789 -0.00606801 17.1283 0.00486437C17.8923 0.0106425 18.6229 0.318775 19.1602 0.86185C19.6976 1.40492 19.998 2.13873 19.9957 2.90272C20.0027 5.06343 19.9996 7.22414 19.9957 9.38406C19.9957 11.0848 18.8033 12.31 17.1017 12.367C16.8995 12.3756 16.6949 12.3702 16.4232 12.3702ZM12.1767 12.3702H11.6793C10.0262 12.3702 8.37381 12.3702 6.72068 12.3702C6.422 12.3794 6.12322 12.3558 5.82969 12.2999C4.43035 11.9813 3.57293 10.867 3.55966 9.34033C3.54638 7.73952 3.55966 6.13871 3.55497 4.53711C3.55497 4.38797 3.54014 4.23882 3.53077 4.06858C3.27776 4.06858 3.07083 4.06312 2.86389 4.06858C2.31225 4.08329 1.78774 4.3111 1.40045 4.70421C1.01317 5.09732 0.793208 5.62517 0.786741 6.17697C0.780493 6.46277 0.786741 6.74936 0.786741 7.03594C0.786741 9.05375 0.782836 11.0708 0.786741 13.0886C0.786741 13.9358 1.23965 14.6886 1.87998 14.919C1.87998 14.3138 1.88466 13.7164 1.87998 13.1229C1.87998 12.8231 1.9198 12.5388 2.28838 12.5443C2.63197 12.5498 2.67179 12.8215 2.66867 13.1073C2.66086 13.8101 2.66867 14.5059 2.66867 15.2532C3.07083 15.2532 3.43862 15.2985 3.79158 15.2446C4.90903 15.0767 5.79533 15.4117 6.46064 16.3378C6.60276 16.5362 6.80814 16.6885 7.04553 16.9227C7.04553 16.5245 7.04553 16.2387 7.04553 15.9529C7.04553 15.3586 7.15095 15.254 7.74832 15.254C9.66149 15.254 11.5747 15.2633 13.4878 15.2493C15.0066 15.2376 15.9921 13.8882 15.5868 12.4006C15.2206 12.3116 14.9278 12.3827 14.6498 12.681C14.1196 13.2541 13.5565 13.7984 12.9865 14.3294C12.8452 14.4606 12.5757 14.5972 12.436 14.5441C12.2962 14.491 12.2017 14.2037 12.19 14.0124C12.1548 13.486 12.1767 12.955 12.1767 12.3725V12.3702Z" fill="white"/>
<path d="M17.1348 6.40338C17.0934 6.74384 17.0232 7.26781 16.9708 7.79413C16.9623 7.88003 17.0544 7.97139 17.0661 8.06432C17.0903 8.25173 17.0903 8.44148 17.1005 8.63124C16.9138 8.63124 16.728 8.64217 16.5414 8.63983C16.4172 8.63983 16.2759 8.57892 16.172 8.62031C15.1248 9.03496 14.0636 8.45632 13.9668 7.33107C13.9021 6.52842 13.9058 5.72173 13.9777 4.9197C14.0394 4.1599 14.7227 3.61015 15.4747 3.59766C15.8423 3.58451 16.2023 3.70405 16.4891 3.93445C16.7758 4.16485 16.9701 4.49073 17.0364 4.85254C17.1137 5.29686 17.1013 5.75759 17.1348 6.40338ZM16.3071 7.25298C16.3071 6.50021 16.3258 5.82708 16.3001 5.15552C16.297 4.95792 16.2199 4.76866 16.084 4.62521C15.948 4.48175 15.7632 4.39456 15.566 4.38089C15.1818 4.35199 14.7812 4.61515 14.7609 5.01184C14.716 5.78765 14.716 6.56541 14.7609 7.34122C14.7922 7.82302 15.2474 8.04401 15.7652 7.88784C15.5785 7.63093 15.1514 7.41462 15.4833 7.04604C15.7691 6.73447 16.0158 7.02808 16.3071 7.25298Z" fill="white"/>
<path d="M13.1736 8.4334C13.0784 8.52632 12.9659 8.72232 12.8613 8.71998C12.7051 8.7153 12.4709 8.60832 12.406 8.47713C12.2196 8.07791 12.0612 7.66617 11.932 7.24489C11.8563 7.02781 11.747 6.94972 11.5096 6.94972C10.4374 6.94972 10.4374 6.93722 10.0634 7.9391C10.0001 8.10855 9.92985 8.27644 9.8666 8.44667C9.77524 8.69109 9.60266 8.81837 9.35278 8.72623C9.1029 8.63408 9.04043 8.43027 9.13413 8.17961C9.33248 7.64549 9.53134 7.1111 9.73073 6.57646C10.0525 5.71748 10.3632 4.8468 10.7084 3.99407C10.7748 3.83165 10.977 3.62315 11.1176 3.62159C11.2581 3.62003 11.4721 3.82462 11.5346 3.98548C12.0609 5.33875 12.5599 6.70218 13.0651 8.06326C13.101 8.16399 13.1237 8.26473 13.1736 8.4334ZM11.1215 5.11776C10.9778 5.50352 10.8607 5.82056 10.7373 6.15165H11.5072C11.38 5.81041 11.2652 5.50196 11.1215 5.11776Z" fill="white"/>
<path d="M6.82746 6.17462C7.2671 6.17462 7.65676 6.17462 8.04642 6.17462C8.33144 6.17462 8.54931 6.26598 8.53994 6.58614C8.53057 6.88444 8.31817 6.96409 8.05032 6.96018C7.65129 6.95394 7.25226 6.96018 6.81184 6.96018C6.81184 7.41622 6.81184 7.82931 6.81184 8.2424C6.81184 8.51805 6.74937 8.75466 6.4214 8.74841C6.12544 8.74372 6.03096 8.52664 6.03096 8.2666C6.03096 7.03125 6.0169 5.79511 6.03798 4.55975C6.04814 3.97096 6.45732 3.60863 7.04767 3.59848C7.38579 3.59223 7.72391 3.59848 8.06282 3.59848C8.33144 3.59458 8.53994 3.68203 8.54462 3.97955C8.54931 4.30284 8.32676 4.38717 8.04408 4.38327C7.7318 4.36674 7.41878 4.37065 7.10702 4.39498C7.00081 4.40748 6.83761 4.56131 6.82902 4.66126C6.79388 5.05717 6.81184 5.46635 6.81262 5.86539C6.8134 5.95363 6.82121 6.04187 6.82746 6.17462Z" fill="white"/>
<path d="M12.3382 0.436617C12.061 0.592794 11.8931 0.769273 11.7432 0.755218C11.6183 0.744285 11.4402 0.520952 11.4176 0.375708C11.3801 0.133634 11.5831 -0.0272282 11.8127 0.0235293C11.9689 0.0578882 12.0915 0.234368 12.3382 0.436617Z" fill="white"/>
<path d="M2.19485 11.8993C2.09099 11.7486 1.90436 11.5947 1.90826 11.4472C1.90826 11.3214 2.1191 11.1309 2.26669 11.0965C2.50095 11.0411 2.68212 11.2207 2.64386 11.462C2.61887 11.6182 2.46035 11.7501 2.36274 11.893L2.19485 11.8993Z" fill="white"/>
</g>
<defs>
<clipPath id="clip0_1219_926">
<rect width="20" height="18.2321" fill="white"/>
</clipPath>
</defs>
</svg>
