<svg width="122" height="28" viewBox="0 0 122 28" fill="none" xmlns="http://www.w3.org/2000/svg">
 <path d="M8.56055 26.4003V6.64466H0.623047V1.42356H22.4247V6.64466H14.5225V26.4003H8.56055Z" fill="white"/>
 <path d="M25.2881 26.4003V1.42356H40.6693V6.57416H31.0737V11.0897H39.2934V16.205H31.0737V21.1439H40.8103V26.4003H25.2881Z" fill="white"/>
 <path d="M52.1228 5.97446H51.1409V12.8889H52.3991C53.9043 12.8889 55.0508 12.5832 55.8446 11.9776C56.6383 11.372 57.0323 10.4959 57.0323 9.36106C57.0323 8.16756 56.6501 7.30906 55.8798 6.77406C55.1096 6.23896 53.8573 5.97446 52.1228 5.97446ZM45.3553 26.4003V1.42356H51.7759C53.8337 1.42356 55.4271 1.55876 56.5619 1.82926C57.6967 2.09976 58.6962 2.54656 59.5723 3.18156C60.5012 3.84596 61.2244 4.66916 61.736 5.65106C62.2475 6.63296 62.5003 7.66776 62.5003 8.75546C62.5003 10.3313 62.1005 11.7071 61.3009 12.8889C60.5012 14.0707 59.3488 14.9938 57.8436 15.6641L65.4636 26.4003H58.6551L51.9875 16.5931H51.1409V26.4003H45.3553Z" fill="white"/>
 <path d="M67.9037 26.4003V1.42356H73.8656V26.4003H67.9037Z" fill="white"/>
 <path d="M88.1825 27.3528H87.771L75.9822 1.42356H82.2912L88.1825 15.082L94.1268 1.42356H99.9712L88.1825 27.3528Z" fill="white"/>
 <path d="M105.151 18.4628H111.713L108.473 10.6429L105.151 18.4628ZM95.8026 26.4003L108.544 0.647461H108.92L121.379 26.4003H115.141L113.559 22.7667H103.423L101.806 26.4003H95.8026Z" fill="white"/>
 <path d="M118.129 1.59356C119.075 1.59356 119.854 1.90826 120.463 2.53616C121.074 3.16416 121.379 3.90636 121.379 4.76016C121.379 5.63076 121.068 6.37586 120.449 6.99676C119.828 7.61626 119.083 7.92666 118.212 7.92666C117.336 7.92666 116.59 7.61766 115.972 6.99816C115.355 6.38006 115.046 5.63356 115.046 4.76016C115.046 4.14486 115.21 3.58186 115.536 3.06676C115.863 2.55316 116.271 2.17916 116.762 1.94496C117.251 1.71066 117.709 1.59356 118.129 1.59356ZM118.289 2.21166C117.511 2.21166 116.88 2.46846 116.396 2.98066C115.914 3.49296 115.672 4.08706 115.672 4.76156C115.672 5.46146 115.922 6.06116 116.422 6.56066C116.921 7.05886 117.522 7.30856 118.224 7.30856C118.921 7.30856 119.521 7.05886 120.02 6.56066C120.52 6.06116 120.769 5.46146 120.769 4.76156C120.769 4.28036 120.644 3.83586 120.393 3.42946C120.141 3.02306 119.818 2.71826 119.423 2.51506C119.029 2.31326 118.651 2.21166 118.289 2.21166ZM116.815 6.45346V3.09216H118.406C118.799 3.09216 119.086 3.18386 119.265 3.36596C119.444 3.54936 119.533 3.77516 119.533 4.04186C119.533 4.30006 119.458 4.50756 119.307 4.66416C119.158 4.82076 118.931 4.92666 118.627 4.98166C118.766 5.03526 118.876 5.10586 118.956 5.19616C119.038 5.28506 119.166 5.47976 119.343 5.77756L119.736 6.45346H118.898L118.617 5.91016C118.449 5.58706 118.301 5.36686 118.173 5.24976C118.044 5.13266 117.877 5.07336 117.671 5.07336H117.493V6.45346H116.815ZM117.493 4.53996H118.046C118.324 4.53996 118.521 4.50326 118.639 4.42996C118.756 4.35656 118.814 4.23796 118.814 4.07286C118.814 3.92336 118.756 3.81186 118.64 3.73706C118.524 3.66226 118.349 3.62556 118.116 3.62556H117.493V4.53996Z" fill="white"/>
</svg>
