<svg width="282" height="75" viewBox="0 0 282 75" fill="none" xmlns="http://www.w3.org/2000/svg">
<path d="M26.0853 2.39844H9.79208C8.26976 9.28572 0 50.5456 0 50.5456H17.4971L22.7307 24.5695L42.6758 50.5456H58.969C58.969 50.5456 67.2388 9.28784 68.7611 2.39844H51.2662C49.9732 8.81806 47.6546 20.3202 46.2406 27.3414C41.9284 21.5999 26.0853 2.39844 26.0853 2.39844Z" fill="white"/>
<path d="M80.4344 51.434C86.7275 51.6423 93.7021 49.4167 99.2372 42.0894L97.5323 50.5476H114.471L118.552 30.3024C121.607 18.4325 113.913 12.4848 98.9655 12.6038C84.0183 12.7228 78.1838 15.1546 78.1838 15.1546L79.617 24.4015L95.9399 22.6818C100.503 22.1078 102.953 24.9159 101.834 29.2055C96.1862 28.2128 90.4621 27.7409 84.8145 28.1299C66.2919 30.1068 63.139 49.5485 80.4344 51.434ZM99.8211 39.1815C96.2457 42.3998 92.7934 43.4903 89.4303 42.9844C83.0098 41.8216 84.8782 35.2447 91.0227 34.1754C94.5981 33.7312 96.3285 34.5007 100.789 34.3859L99.8211 39.1815Z" fill="white"/>
<path d="M130.414 13.2393H147.911C145.354 25.6853 142.86 38.0654 140.297 50.5454H122.896C125.403 38.11 127.908 25.6746 130.414 13.2393Z" fill="white"/>
<path d="M140.803 0.0112057C145.707 -0.169479 149.682 1.85632 149.682 4.53895C149.682 7.22159 145.707 9.54286 140.803 9.72355C135.9 9.90423 131.926 7.87843 131.926 5.1958C131.926 2.51316 135.9 0.194016 140.803 0.0112057Z" fill="white"/>
<path d="M163.421 2.39844H180.916C180.105 6.35012 179.385 9.87241 178.701 13.2395H189.536L187.591 22.8052H176.757C175.958 26.7399 175.128 30.8276 174.16 35.5233C173.765 38.0614 174.551 39.1646 177.154 39.2029H183.969L181.653 50.5456L165.608 49.8845C157.073 49.1575 154.941 43.7689 156.756 35.5233C157.854 30.0836 159.315 22.8052 159.315 22.8052H153.898L155.818 13.2395H161.236L163.421 2.39844Z" fill="white"/>
<path d="M214.969 23.7683C215.679 20.2651 216.39 16.7556 217.107 13.2376H199.61L192.111 50.5437H209.553C210.778 44.5237 211.988 38.5377 213.199 32.5475C218.581 27.4075 223.744 25.1606 229.004 26.9314L231.779 13.2376C227.195 12.0429 221.672 15.1868 214.969 23.7683Z" fill="white"/>
<path d="M249.849 28.6402C253.439 20.537 266.781 19.4295 266.647 28.6402H249.849ZM281.537 35.6572C285.369 12.4679 264.558 9.01571 248.415 15.2504C232.647 21.3405 226.434 40.1339 240.759 48.5942C250.473 54.3315 267.9 50.9601 277.637 44.1855L268.879 37.4895C262.074 43.1226 249.515 42.4339 248.734 35.6572H281.537Z" fill="white"/>
<path d="M116.768 68.8333C116.539 68.8503 116.28 68.8865 116.061 68.7887C115.891 68.7143 115.83 68.5442 115.84 68.3614C115.87 67.9575 115.932 67.5324 116.012 67.1349C116.082 66.7608 116.157 66.3909 116.231 66.0231C116.337 65.479 116.448 64.939 116.554 64.3906C116.664 63.8294 116.783 63.2703 116.806 62.6964C116.898 60.4495 114.106 59.9096 112.395 59.7821C111.322 59.7034 110.229 59.7162 109.167 59.8905C108.348 60.0201 107.526 60.2518 106.821 60.7004C106.329 61.015 105.908 61.4401 105.628 61.9588C105.392 62.3946 105.292 62.8643 105.21 63.3447C105.21 63.3447 107.305 63.3447 107.32 63.3447C107.365 63.3447 107.405 63.3617 107.418 63.3192C107.431 63.2618 107.445 63.2066 107.46 63.1492C107.579 62.6709 107.842 62.2436 108.242 61.946C108.639 61.6506 109.123 61.4975 109.603 61.4019C110.114 61.3019 110.634 61.2658 111.152 61.2573C111.685 61.2445 112.22 61.2573 112.747 61.3232C113.456 61.4146 114.53 61.6187 114.632 62.4775C114.66 62.7262 114.673 62.9834 114.603 63.2257C114.537 63.4574 114.397 63.6275 114.18 63.7401C113.902 63.8847 113.573 63.9229 113.265 63.9761C112.972 64.0335 112.677 64.0547 112.382 64.0717C112.146 64.0845 111.913 64.1142 111.679 64.1164C111.078 64.1376 110.482 64.1546 109.883 64.195C108.772 64.2609 107.662 64.3906 106.581 64.6606C105.583 64.9093 104.532 65.3833 104.076 66.376C103.643 67.3219 104.012 68.4741 104.736 69.1607C105.486 69.8749 106.532 70.2235 107.535 70.3723C108.609 70.5339 109.728 70.5126 110.796 70.3383C111.783 70.1725 112.749 69.8366 113.556 69.2372C113.634 69.1756 113.711 69.1118 113.787 69.0501C113.847 69.3647 113.989 69.6602 114.235 69.8685C114.505 70.1045 114.855 70.2214 115.206 70.2745C115.702 70.3532 116.216 70.3277 116.713 70.2618C116.919 70.232 117.121 70.2001 117.327 70.1619C117.382 70.1491 117.38 70.079 117.38 70.079L117.573 68.7292C117.577 68.7292 117.04 68.8121 116.768 68.8333C116.637 68.8397 116.904 68.8206 116.768 68.8333ZM114.138 65.5045C114.063 65.7532 114.019 66.0189 113.944 66.2676C113.876 66.5035 113.804 66.7289 113.707 66.9563C113.511 67.4133 113.182 67.7662 112.777 68.0617C111.9 68.6909 110.855 68.9821 109.787 69.0268C109.242 69.0565 108.685 69.0353 108.148 68.9354C107.653 68.8397 107.144 68.6781 106.732 68.3784C106.335 68.0766 106.08 67.6217 106.144 67.1136C106.208 66.5907 106.711 66.2251 107.172 66.0508C107.666 65.868 108.193 65.7851 108.713 65.7022C109.248 65.6192 109.791 65.5937 110.331 65.5661C110.806 65.5406 111.282 65.5236 111.76 65.5002C112.097 65.4832 112.431 65.4556 112.766 65.4216C113.257 65.3727 113.747 65.3216 114.218 65.1558C114.189 65.2728 114.165 65.3875 114.138 65.5045Z" fill="#008DD2"/>
<path d="M191.691 62.1673C190.621 60.5284 188.585 59.8885 186.729 59.7631C184.638 59.6292 182.434 60.0076 180.761 61.3531C179.986 61.976 179.345 62.7816 179.016 63.7318C178.664 64.7373 178.659 65.8873 178.971 66.9076C179.264 67.879 179.895 68.6911 180.721 69.2714C181.464 69.7858 182.315 70.1132 183.19 70.3002C184.216 70.5213 185.281 70.5617 186.328 70.5043C187.269 70.4469 188.22 70.2875 189.099 69.9304C189.87 69.62 190.577 69.1417 191.099 68.4891C191.364 68.1596 191.579 67.794 191.744 67.4071C191.863 67.1372 191.944 66.8587 192.033 66.5802C191.638 66.5802 189.808 66.5802 189.774 66.5802C189.702 66.5802 189.698 66.5675 189.672 66.6334C189.528 67.0649 189.324 67.4603 189.01 67.7919C188.657 68.1703 188.211 68.4466 187.738 68.6358C186.749 69.0418 185.613 69.1013 184.555 68.9844C183.649 68.8803 182.732 68.589 182.029 67.9811C181.653 67.6537 181.364 67.2328 181.201 66.7652C181.114 66.5165 181.052 66.255 181.035 65.9936C181.035 65.9893 181.018 65.6194 181.035 65.6194C181.504 65.6194 192.22 65.6194 192.275 65.6194C192.326 65.6194 192.341 65.6322 192.345 65.5812C192.352 65.5153 192.354 65.4515 192.36 65.3856C192.396 64.8542 192.403 64.3142 192.311 63.7871C192.214 63.2174 192.012 62.6562 191.691 62.1673C191.356 61.6529 192.025 62.6817 191.691 62.1673ZM190.135 64.1506C190.116 64.1633 181.492 64.1548 181.211 64.1548C181.492 63.1579 182.167 62.3607 183.067 61.8676C183.921 61.3978 184.899 61.2235 185.863 61.2107C186.899 61.2022 187.999 61.351 188.876 61.9292C189.634 62.4287 190.101 63.2429 190.135 64.1506Z" fill="#008DD2"/>
<path d="M254.886 62.1673C253.82 60.5284 251.777 59.8885 249.922 59.7631C247.835 59.6292 245.627 60.0076 243.96 61.3531C243.179 61.976 242.542 62.7816 242.208 63.7318C241.86 64.7373 241.858 65.8873 242.164 66.9076C242.463 67.879 243.089 68.6911 243.917 69.2714C244.656 69.7858 245.508 70.1132 246.389 70.3002C247.412 70.5213 248.478 70.5617 249.527 70.5043C250.467 70.4469 251.421 70.2875 252.295 69.9304C253.068 69.62 253.771 69.1417 254.293 68.4891C254.559 68.1596 254.775 67.794 254.943 67.4071C255.056 67.1372 255.141 66.8587 255.23 66.5802C254.833 66.5802 253.005 66.5802 252.971 66.5802C252.901 66.5802 252.892 66.5675 252.871 66.6334C252.72 67.0649 252.523 67.4603 252.204 67.7919C251.856 68.1703 251.41 68.4466 250.935 68.6358C249.943 69.0418 248.813 69.1013 247.756 68.9844C246.845 68.8803 245.93 68.589 245.227 67.9811C244.852 67.6537 244.563 67.2328 244.399 66.7652C244.312 66.5165 244.253 66.255 244.23 65.9936C244.23 65.9893 244.217 65.6194 244.23 65.6194C244.699 65.6194 255.417 65.6194 255.474 65.6194C255.525 65.6194 255.538 65.6322 255.54 65.5812C255.546 65.5153 255.55 65.4515 255.557 65.3856C255.595 64.8542 255.597 64.3142 255.51 63.7871C255.412 63.2174 255.206 62.6562 254.886 62.1673C254.552 61.6529 255.223 62.6817 254.886 62.1673ZM253.334 64.1506C253.312 64.1633 244.686 64.1548 244.408 64.1548C244.686 63.1579 245.365 62.3607 246.264 61.8676C247.117 61.3978 248.098 61.2235 249.064 61.2107C250.1 61.2022 251.196 61.351 252.077 61.9292C252.83 62.4287 253.295 63.2429 253.334 64.1506Z" fill="#008DD2"/>
<path d="M93.2141 57.063H90.9444L90.386 60.0028H87.8149L87.5049 61.493H90.1185L89.1164 67.0602C89.0527 67.4173 89.006 67.7213 88.9826 67.9742C88.9571 68.2314 88.9529 68.4419 88.9741 68.5907C89.0569 69.171 89.3924 69.6046 89.9805 69.8895C90.5219 70.1509 91.2841 70.2806 92.265 70.2806C92.5326 70.2806 92.8171 70.2764 93.1101 70.2551C93.4009 70.2424 93.6918 70.2169 93.9784 70.1892L94.1738 70.168L94.4243 68.5992L94.0867 68.6438C93.8001 68.6778 93.5347 68.7055 93.2905 68.7267C93.0591 68.7437 92.8489 68.7522 92.6621 68.7522C92.1759 68.7522 91.8107 68.6991 91.5686 68.5949C91.3776 68.5163 91.2735 68.3994 91.2544 68.2569C91.2395 68.1613 91.2438 68.021 91.2608 67.8424C91.2778 67.6511 91.316 67.4194 91.3691 67.1537V67.1495L92.4179 61.4951H95.367L95.6345 60.005H92.6833L93.2141 57.063Z" fill="#008DD2"/>
<path d="M104.144 61.5758L104.895 61.6183L105.212 59.9028L104.936 59.8731C104.658 59.8476 104.341 59.8306 104 59.8306C102.84 59.8306 101.817 60.0431 100.936 60.4619C100.352 60.7446 99.8296 61.1187 99.3731 61.5821L99.6852 60.0006H97.5217L95.6533 70.204H97.9251L98.751 65.8463C98.836 65.3978 98.94 64.9918 99.0631 64.6177C99.1884 64.252 99.3307 63.9162 99.4941 63.6207C99.6491 63.338 99.8657 63.0723 100.131 62.8321C100.407 62.5791 100.743 62.3495 101.14 62.1433C101.878 61.7565 102.811 61.5673 103.94 61.5673L104.144 61.5758Z" fill="#008DD2"/>
<path d="M118.395 70.2063H120.666L122.503 60.0029H120.229L118.395 70.2063Z" fill="#008DD2"/>
<path d="M120.481 58.6617H122.751L123.199 56.2129H120.891L120.481 58.6617Z" fill="#008DD2"/>
<path d="M136.261 61.2998C136.002 60.9766 135.646 60.6982 135.194 60.458C134.752 60.2263 134.253 60.0477 133.701 59.9351C133.155 59.8181 132.557 59.7607 131.907 59.7607C130.771 59.7607 129.75 59.9351 128.847 60.2922C128.183 60.5494 127.584 60.9065 127.045 61.3593L127.285 60.0052H125.123L123.291 70.2086H125.563L126.499 65.041C126.607 64.4564 126.775 63.9484 127.004 63.5169C127.227 63.0981 127.51 62.7495 127.845 62.4753H127.849C128.312 62.0799 128.852 61.7823 129.463 61.5867C130.077 61.3869 130.771 61.287 131.537 61.287C131.966 61.287 132.355 61.321 132.701 61.3912C133.043 61.4571 133.346 61.5612 133.61 61.6951C133.864 61.8206 134.06 61.9694 134.194 62.1394C134.323 62.2925 134.402 62.4753 134.427 62.6751C134.455 62.8536 134.459 63.0662 134.442 63.2979C134.427 63.5381 134.389 63.8038 134.329 64.0951V64.1036L133.238 70.2086H135.54L136.601 64.3034V64.2991C136.676 63.8634 136.729 63.4935 136.75 63.1874C136.777 62.8685 136.775 62.6113 136.75 62.4157C136.69 62.0012 136.527 61.6271 136.261 61.2998Z" fill="#008DD2"/>
<path d="M155.971 61.2998C155.712 60.9766 155.353 60.6982 154.899 60.458C154.455 60.2263 153.958 60.0477 153.408 59.9351C152.862 59.8181 152.264 59.7607 151.612 59.7607C150.478 59.7607 149.455 59.9351 148.555 60.2922C147.89 60.5494 147.289 60.9065 146.752 61.3593L146.992 60.0052H144.828L142.996 70.2086H145.266L146.202 65.041C146.31 64.4564 146.482 63.9484 146.705 63.5169C146.928 63.0981 147.208 62.7495 147.548 62.4753H147.552C148.017 62.0799 148.559 61.7823 149.164 61.5867C149.78 61.3869 150.472 61.287 151.24 61.287C151.669 61.287 152.056 61.321 152.406 61.3912C152.748 61.4571 153.051 61.5612 153.313 61.6951C153.565 61.8206 153.763 61.9694 153.892 62.1394C154.026 62.2925 154.105 62.4753 154.132 62.6751C154.158 62.8536 154.162 63.0662 154.147 63.2979C154.128 63.5381 154.09 63.8038 154.03 64.0951L154.026 64.1036L152.937 70.2086H155.238L156.3 64.3034V64.2991C156.376 63.8634 156.427 63.4935 156.449 63.1874C156.474 62.8685 156.474 62.6113 156.446 62.4157C156.4 62.0012 156.232 61.6271 155.971 61.2998Z" fill="#008DD2"/>
<path d="M138.101 70.2063H140.375L142.213 60.0029H139.941L138.101 70.2063Z" fill="#008DD2"/>
<path d="M140.189 58.6617H142.457L142.905 56.2129H140.599L140.189 58.6617Z" fill="#008DD2"/>
<path d="M170.355 60.0029C170.355 60.0029 170.135 61.3272 170.084 61.6716C169.496 60.8787 168.536 60.4217 167.61 60.1602C166.602 59.8775 165.532 59.7988 164.491 59.8413C163.444 59.8839 162.396 60.0815 161.44 60.5216C160.517 60.9446 159.678 61.5972 159.077 62.4198C157.867 64.0715 157.837 66.5798 159.245 68.1337C160.708 69.7471 163.062 70.1829 165.145 70.0575C166.415 69.9788 167.723 69.6621 168.729 68.8416C168.629 69.2646 168.532 69.6812 168.404 70.0957C168.251 70.5931 167.992 71.0884 167.648 71.4774C167.298 71.8771 166.831 72.1045 166.338 72.2618C165.859 72.4149 165.368 72.5148 164.869 72.5616C164.309 72.6147 163.744 72.6147 163.181 72.5786C162.661 72.5445 162.141 72.4701 161.644 72.3128C161.188 72.164 160.729 71.9387 160.41 71.5688C160.255 71.386 160.137 71.1692 160.077 70.9333C160.043 70.7993 160.033 70.6548 160.011 70.5102C160.011 70.5017 158.094 70.5102 157.712 70.5102C157.744 70.7547 157.767 71.0077 157.827 71.25C157.939 71.7198 158.185 72.1343 158.529 72.4744C158.873 72.8145 159.296 73.0675 159.733 73.263C160.236 73.4799 160.763 73.6414 161.296 73.7647C162.404 74.0134 163.544 74.0729 164.678 74.0177C165.75 73.9751 166.846 73.8391 167.846 73.4373C168.326 73.2418 168.774 72.9803 169.154 72.6232C169.553 72.2533 169.899 71.8091 170.156 71.3286C170.591 70.5315 170.786 69.6047 170.948 68.7204C171.058 68.0954 172.519 60.0029 172.519 60.0029H170.355ZM169.445 64.5987C169.409 65.1726 169.241 65.7274 168.994 66.2418C168.761 66.7201 168.451 67.1729 168.052 67.5215C167.268 68.1826 166.251 68.5121 165.243 68.5822C164.183 68.6609 163.047 68.544 162.103 68.0317C161.659 67.7957 161.258 67.4662 160.975 67.0475C160.682 66.616 160.534 66.1164 160.495 65.5977C160.415 64.5009 160.793 63.4061 161.576 62.6324C162.328 61.8841 163.302 61.4292 164.347 61.2868C165.4 61.1423 166.557 61.2167 167.546 61.6227C168.014 61.814 168.455 62.0882 168.799 62.4623C169.132 62.828 169.349 63.285 169.417 63.7781C169.451 64.0524 169.464 64.3245 169.445 64.5987C169.428 64.8686 169.445 64.5987 169.445 64.5987Z" fill="#008DD2"/>
<path d="M198.698 68.1208C198.636 67.8934 195.842 60.0049 195.842 60.0049H193.458L197.314 70.2083H199.554L206.73 60.0049H204.208C204.21 60.0028 198.766 67.9997 198.698 68.1208Z" fill="#008DD2"/>
<path d="M233.562 68.1208C233.507 67.8934 230.709 60.0049 230.709 60.0049H228.324L232.184 70.2083H234.42L241.598 60.0049H239.076C239.076 60.0028 233.632 67.9997 233.562 68.1208Z" fill="#008DD2"/>
<path d="M219.22 60.7959C219.175 60.7428 219.056 60.696 218.986 60.6599C218.889 60.6067 218.793 60.56 218.693 60.5068C218.5 60.4197 218.296 60.3325 218.097 60.2624C217.659 60.1008 217.213 59.9796 216.759 59.9052C215.706 59.7054 214.617 59.6778 213.551 59.7692C211.532 59.9435 209.47 60.7194 208.182 62.3647C207.557 63.1661 207.205 64.1333 207.165 65.1472C207.124 66.2016 207.362 67.2814 207.976 68.1445C209.207 69.8812 211.485 70.4296 213.498 70.4998C214.606 70.5423 215.734 70.4572 216.804 70.1469C217.816 69.8514 218.77 69.3455 219.564 68.6483C219.959 68.3039 220.307 67.9106 220.583 67.4664C220.867 67.0051 221.069 66.4907 221.199 65.9635C221.46 64.9134 221.422 63.7081 220.976 62.7133C220.615 61.8928 219.974 61.2529 219.22 60.7959C219.22 60.7959 219.821 61.1615 219.22 60.7959ZM218.732 66.2569C218.337 67.2283 217.509 67.9957 216.585 68.4633C215.596 68.9565 214.475 69.0734 213.388 68.999C212.366 68.9331 211.309 68.6589 210.513 67.9914C210.141 67.6811 209.85 67.2857 209.672 66.8414C209.475 66.344 209.417 65.7871 209.436 65.2556C209.477 64.2268 209.942 63.2957 210.687 62.5943C211.326 61.9969 212.12 61.5973 212.967 61.3911C213.963 61.1594 215.037 61.1467 216.037 61.3337C217.022 61.508 218.018 61.9566 218.589 62.8153C218.914 63.3042 219.037 63.8697 219.052 64.4479C219.075 65.0686 218.959 65.6787 218.732 66.2569C218.732 66.2569 218.878 65.8827 218.732 66.2569Z" fill="#008DD2"/>
<path d="M225.448 56.2661L222.94 70.2065H225.214L227.724 56.2661H225.448Z" fill="#008DD2"/>
<path d="M270.202 56.2702C270.202 56.2702 269.433 60.7427 269.301 61.4718C268.664 60.6449 267.62 60.1879 266.63 59.9519C265.55 59.699 264.405 59.6607 263.303 59.7776C262.261 59.8818 261.237 60.156 260.301 60.6237C259.333 61.1104 258.528 61.8204 257.944 62.7366C257.333 63.6996 256.995 64.8326 257.063 65.9826C257.119 66.8881 257.412 67.7724 257.985 68.4845C259.297 70.0958 261.562 70.5061 263.53 70.4848C265.144 70.4635 266.845 70.1107 268.051 68.9607C267.951 69.3709 267.807 70.2021 267.807 70.2021L269.983 70.1936L272.45 56.2617L270.202 56.2702ZM268.429 66.091C268.051 67.0709 267.238 67.8723 266.331 68.3804C265.38 68.916 264.276 69.0733 263.197 69.0329C262.176 68.9904 261.093 68.7545 260.297 68.0721C259.921 67.749 259.639 67.3324 259.484 66.8605C259.314 66.3333 259.286 65.7445 259.348 65.1961C259.405 64.6561 259.569 64.1119 259.832 63.6358C260.087 63.1788 260.439 62.7855 260.84 62.4603C261.679 61.78 262.675 61.4017 263.741 61.2848C264.15 61.2359 264.562 61.2359 264.968 61.2359C265.463 61.2359 265.957 61.2805 266.439 61.4059C267.412 61.6759 268.35 62.3285 268.645 63.3361C268.773 63.7803 268.785 64.2692 268.749 64.7263C268.705 65.1939 268.596 65.6488 268.429 66.091C268.284 66.4757 268.579 65.6998 268.429 66.091Z" fill="#008DD2"/>
<mask id="mask0_1194_1178" style="mask-type:alpha" maskUnits="userSpaceOnUse" x="0" y="0" width="282" height="75">
<path d="M26.0853 2.39844H9.79208C8.26976 9.28572 0 50.5456 0 50.5456H17.4971L22.7307 24.5695L42.6758 50.5456H58.969C58.969 50.5456 67.2388 9.28784 68.7611 2.39844H51.2662C49.9732 8.81806 47.6546 20.3202 46.2406 27.3414C41.9284 21.5999 26.0853 2.39844 26.0853 2.39844Z" fill="white"/>
<path d="M80.4344 51.434C86.7275 51.6423 93.7021 49.4167 99.2372 42.0894L97.5323 50.5476H114.471L118.552 30.3024C121.607 18.4325 113.913 12.4848 98.9655 12.6038C84.0183 12.7228 78.1838 15.1546 78.1838 15.1546L79.617 24.4015L95.9399 22.6818C100.503 22.1078 102.953 24.9159 101.834 29.2055C96.1862 28.2128 90.4621 27.7409 84.8145 28.1299C66.2919 30.1068 63.139 49.5485 80.4344 51.434ZM99.8211 39.1815C96.2457 42.3998 92.7934 43.4903 89.4303 42.9844C83.0098 41.8216 84.8782 35.2447 91.0227 34.1754C94.5981 33.7312 96.3285 34.5007 100.789 34.3859L99.8211 39.1815Z" fill="white"/>
<path d="M130.414 13.2393H147.911C145.354 25.6853 142.86 38.0654 140.297 50.5454H122.896C125.403 38.11 127.908 25.6746 130.414 13.2393Z" fill="white"/>
<path d="M140.803 0.0112057C145.707 -0.169479 149.682 1.85632 149.682 4.53895C149.682 7.22159 145.707 9.54286 140.803 9.72355C135.9 9.90423 131.926 7.87843 131.926 5.1958C131.926 2.51316 135.9 0.194016 140.803 0.0112057Z" fill="white"/>
<path d="M163.421 2.39844H180.916C180.105 6.35012 179.385 9.87241 178.701 13.2395H189.536L187.591 22.8052H176.757C175.958 26.7399 175.128 30.8276 174.16 35.5233C173.765 38.0614 174.551 39.1646 177.154 39.2029H183.969L181.653 50.5456L165.608 49.8845C157.073 49.1575 154.941 43.7689 156.756 35.5233C157.854 30.0836 159.315 22.8052 159.315 22.8052H153.898L155.818 13.2395H161.236L163.421 2.39844Z" fill="white"/>
<path d="M214.969 23.7683C215.679 20.2651 216.39 16.7556 217.107 13.2376H199.61L192.111 50.5437H209.553C210.778 44.5237 211.988 38.5377 213.199 32.5475C218.581 27.4075 223.744 25.1606 229.004 26.9314L231.779 13.2376C227.195 12.0429 221.672 15.1868 214.969 23.7683Z" fill="white"/>
<path d="M249.849 28.6402C253.439 20.537 266.781 19.4295 266.647 28.6402H249.849ZM281.537 35.6572C285.369 12.4679 264.558 9.01571 248.415 15.2504C232.647 21.3405 226.434 40.1339 240.759 48.5942C250.473 54.3315 267.9 50.9601 277.637 44.1855L268.879 37.4895C262.074 43.1226 249.515 42.4339 248.734 35.6572H281.537Z" fill="white"/>
<path d="M116.768 68.8333C116.539 68.8503 116.28 68.8865 116.061 68.7887C115.891 68.7143 115.83 68.5442 115.84 68.3614C115.87 67.9575 115.932 67.5324 116.012 67.1349C116.082 66.7608 116.157 66.3909 116.231 66.0231C116.337 65.479 116.448 64.939 116.554 64.3906C116.664 63.8294 116.783 63.2703 116.806 62.6964C116.898 60.4495 114.106 59.9096 112.395 59.7821C111.322 59.7034 110.229 59.7162 109.167 59.8905C108.348 60.0201 107.526 60.2518 106.821 60.7004C106.329 61.015 105.908 61.4401 105.628 61.9588C105.392 62.3946 105.292 62.8643 105.21 63.3447C105.21 63.3447 107.305 63.3447 107.32 63.3447C107.365 63.3447 107.405 63.3617 107.418 63.3192C107.431 63.2618 107.445 63.2066 107.46 63.1492C107.579 62.6709 107.842 62.2436 108.242 61.946C108.639 61.6506 109.123 61.4975 109.603 61.4019C110.114 61.3019 110.634 61.2658 111.152 61.2573C111.685 61.2445 112.22 61.2573 112.747 61.3232C113.456 61.4146 114.53 61.6187 114.632 62.4775C114.66 62.7262 114.673 62.9834 114.603 63.2257C114.537 63.4574 114.397 63.6275 114.18 63.7401C113.902 63.8847 113.573 63.9229 113.265 63.9761C112.972 64.0335 112.677 64.0547 112.382 64.0717C112.146 64.0845 111.913 64.1142 111.679 64.1164C111.078 64.1376 110.482 64.1546 109.883 64.195C108.772 64.2609 107.662 64.3906 106.581 64.6606C105.583 64.9093 104.532 65.3833 104.076 66.376C103.643 67.3219 104.012 68.4741 104.736 69.1607C105.486 69.8749 106.532 70.2235 107.535 70.3723C108.609 70.5339 109.728 70.5126 110.796 70.3383C111.783 70.1725 112.749 69.8366 113.556 69.2372C113.634 69.1756 113.711 69.1118 113.787 69.0501C113.847 69.3647 113.989 69.6602 114.235 69.8685C114.505 70.1045 114.855 70.2214 115.206 70.2745C115.702 70.3532 116.216 70.3277 116.713 70.2618C116.919 70.232 117.121 70.2001 117.327 70.1619C117.382 70.1491 117.38 70.079 117.38 70.079L117.573 68.7292C117.577 68.7292 117.04 68.8121 116.768 68.8333C116.637 68.8397 116.904 68.8206 116.768 68.8333ZM114.138 65.5045C114.063 65.7532 114.019 66.0189 113.944 66.2676C113.876 66.5035 113.804 66.7289 113.707 66.9563C113.511 67.4133 113.182 67.7662 112.777 68.0617C111.9 68.6909 110.855 68.9821 109.787 69.0268C109.242 69.0565 108.685 69.0353 108.148 68.9354C107.653 68.8397 107.144 68.6781 106.732 68.3784C106.335 68.0766 106.08 67.6217 106.144 67.1136C106.208 66.5907 106.711 66.2251 107.172 66.0508C107.666 65.868 108.193 65.7851 108.713 65.7022C109.248 65.6192 109.791 65.5937 110.331 65.5661C110.806 65.5406 111.282 65.5236 111.76 65.5002C112.097 65.4832 112.431 65.4556 112.766 65.4216C113.257 65.3727 113.747 65.3216 114.218 65.1558C114.189 65.2728 114.165 65.3875 114.138 65.5045Z" fill="white"/>
<path d="M191.691 62.1673C190.621 60.5284 188.585 59.8885 186.729 59.7631C184.638 59.6292 182.434 60.0076 180.761 61.3531C179.986 61.976 179.345 62.7816 179.016 63.7318C178.664 64.7373 178.659 65.8873 178.971 66.9076C179.264 67.879 179.895 68.6911 180.721 69.2714C181.464 69.7858 182.315 70.1132 183.19 70.3002C184.216 70.5213 185.281 70.5617 186.328 70.5043C187.269 70.4469 188.22 70.2875 189.099 69.9304C189.87 69.62 190.577 69.1417 191.099 68.4891C191.364 68.1596 191.579 67.794 191.744 67.4071C191.863 67.1372 191.944 66.8587 192.033 66.5802C191.638 66.5802 189.808 66.5802 189.774 66.5802C189.702 66.5802 189.698 66.5675 189.672 66.6334C189.528 67.0649 189.324 67.4603 189.01 67.7919C188.657 68.1703 188.211 68.4466 187.738 68.6358C186.749 69.0418 185.613 69.1013 184.555 68.9844C183.649 68.8803 182.732 68.589 182.029 67.9811C181.653 67.6537 181.364 67.2328 181.201 66.7652C181.114 66.5165 181.052 66.255 181.035 65.9936C181.035 65.9893 181.018 65.6194 181.035 65.6194C181.504 65.6194 192.22 65.6194 192.275 65.6194C192.326 65.6194 192.341 65.6322 192.345 65.5812C192.352 65.5153 192.354 65.4515 192.36 65.3856C192.396 64.8542 192.403 64.3142 192.311 63.7871C192.214 63.2174 192.012 62.6562 191.691 62.1673C191.356 61.6529 192.025 62.6817 191.691 62.1673ZM190.135 64.1506C190.116 64.1633 181.492 64.1548 181.211 64.1548C181.492 63.1579 182.167 62.3607 183.067 61.8676C183.921 61.3978 184.899 61.2235 185.863 61.2107C186.899 61.2022 187.999 61.351 188.876 61.9292C189.634 62.4287 190.101 63.2429 190.135 64.1506Z" fill="white"/>
<path d="M254.886 62.1673C253.82 60.5284 251.777 59.8885 249.922 59.7631C247.835 59.6292 245.627 60.0076 243.96 61.3531C243.179 61.976 242.542 62.7816 242.208 63.7318C241.86 64.7373 241.858 65.8873 242.164 66.9076C242.463 67.879 243.089 68.6911 243.917 69.2714C244.656 69.7858 245.508 70.1132 246.389 70.3002C247.412 70.5213 248.478 70.5617 249.527 70.5043C250.467 70.4469 251.421 70.2875 252.295 69.9304C253.068 69.62 253.771 69.1417 254.293 68.4891C254.559 68.1596 254.775 67.794 254.943 67.4071C255.056 67.1372 255.141 66.8587 255.23 66.5802C254.833 66.5802 253.005 66.5802 252.971 66.5802C252.901 66.5802 252.892 66.5675 252.871 66.6334C252.72 67.0649 252.523 67.4603 252.204 67.7919C251.856 68.1703 251.41 68.4466 250.935 68.6358C249.943 69.0418 248.813 69.1013 247.756 68.9844C246.845 68.8803 245.93 68.589 245.227 67.9811C244.852 67.6537 244.563 67.2328 244.399 66.7652C244.312 66.5165 244.253 66.255 244.23 65.9936C244.23 65.9893 244.217 65.6194 244.23 65.6194C244.699 65.6194 255.417 65.6194 255.474 65.6194C255.525 65.6194 255.538 65.6322 255.54 65.5812C255.546 65.5153 255.55 65.4515 255.557 65.3856C255.595 64.8542 255.597 64.3142 255.51 63.7871C255.412 63.2174 255.206 62.6562 254.886 62.1673C254.552 61.6529 255.223 62.6817 254.886 62.1673ZM253.334 64.1506C253.312 64.1633 244.686 64.1548 244.408 64.1548C244.686 63.1579 245.365 62.3607 246.264 61.8676C247.117 61.3978 248.098 61.2235 249.064 61.2107C250.1 61.2022 251.196 61.351 252.077 61.9292C252.83 62.4287 253.295 63.2429 253.334 64.1506Z" fill="white"/>
<path d="M93.2141 57.063H90.9444L90.386 60.0028H87.8149L87.5049 61.493H90.1185L89.1164 67.0602C89.0527 67.4173 89.006 67.7213 88.9826 67.9742C88.9571 68.2314 88.9529 68.4419 88.9741 68.5907C89.0569 69.171 89.3924 69.6046 89.9805 69.8895C90.5219 70.1509 91.2841 70.2806 92.265 70.2806C92.5326 70.2806 92.8171 70.2764 93.1101 70.2551C93.4009 70.2424 93.6918 70.2169 93.9784 70.1892L94.1738 70.168L94.4243 68.5992L94.0867 68.6438C93.8001 68.6778 93.5347 68.7055 93.2905 68.7267C93.0591 68.7437 92.8489 68.7522 92.6621 68.7522C92.1759 68.7522 91.8107 68.6991 91.5686 68.5949C91.3776 68.5163 91.2735 68.3994 91.2544 68.2569C91.2395 68.1613 91.2438 68.021 91.2608 67.8424C91.2778 67.6511 91.316 67.4194 91.3691 67.1537V67.1495L92.4179 61.4951H95.367L95.6345 60.005H92.6833L93.2141 57.063Z" fill="white"/>
<path d="M104.144 61.5758L104.895 61.6183L105.212 59.9028L104.936 59.8731C104.658 59.8476 104.341 59.8306 104 59.8306C102.84 59.8306 101.817 60.0431 100.936 60.4619C100.352 60.7446 99.8296 61.1187 99.3731 61.5821L99.6852 60.0006H97.5217L95.6533 70.204H97.9251L98.751 65.8463C98.836 65.3978 98.94 64.9918 99.0631 64.6177C99.1884 64.252 99.3307 63.9162 99.4941 63.6207C99.6491 63.338 99.8657 63.0723 100.131 62.8321C100.407 62.5791 100.743 62.3495 101.14 62.1433C101.878 61.7565 102.811 61.5673 103.94 61.5673L104.144 61.5758Z" fill="white"/>
<path d="M118.395 70.2063H120.666L122.503 60.0029H120.229L118.395 70.2063Z" fill="white"/>
<path d="M120.481 58.6617H122.751L123.199 56.2129H120.891L120.481 58.6617Z" fill="white"/>
<path d="M136.261 61.2998C136.002 60.9766 135.646 60.6982 135.194 60.458C134.752 60.2263 134.253 60.0477 133.701 59.9351C133.155 59.8181 132.557 59.7607 131.907 59.7607C130.771 59.7607 129.75 59.9351 128.847 60.2922C128.183 60.5494 127.584 60.9065 127.045 61.3593L127.285 60.0052H125.123L123.291 70.2086H125.563L126.499 65.041C126.607 64.4564 126.775 63.9484 127.004 63.5169C127.227 63.0981 127.51 62.7495 127.845 62.4753H127.849C128.312 62.0799 128.852 61.7823 129.463 61.5867C130.077 61.3869 130.771 61.287 131.537 61.287C131.966 61.287 132.355 61.321 132.701 61.3912C133.043 61.4571 133.346 61.5612 133.61 61.6951C133.864 61.8206 134.06 61.9694 134.194 62.1394C134.323 62.2925 134.402 62.4753 134.427 62.6751C134.455 62.8536 134.459 63.0662 134.442 63.2979C134.427 63.5381 134.389 63.8038 134.329 64.0951V64.1036L133.238 70.2086H135.54L136.601 64.3034V64.2991C136.676 63.8634 136.729 63.4935 136.75 63.1874C136.777 62.8685 136.775 62.6113 136.75 62.4157C136.69 62.0012 136.527 61.6271 136.261 61.2998Z" fill="white"/>
<path d="M155.971 61.2998C155.712 60.9766 155.353 60.6982 154.899 60.458C154.455 60.2263 153.958 60.0477 153.408 59.9351C152.862 59.8181 152.264 59.7607 151.612 59.7607C150.478 59.7607 149.455 59.9351 148.555 60.2922C147.89 60.5494 147.289 60.9065 146.752 61.3593L146.992 60.0052H144.828L142.996 70.2086H145.266L146.202 65.041C146.31 64.4564 146.482 63.9484 146.705 63.5169C146.928 63.0981 147.208 62.7495 147.548 62.4753H147.552C148.017 62.0799 148.559 61.7823 149.164 61.5867C149.78 61.3869 150.472 61.287 151.24 61.287C151.669 61.287 152.056 61.321 152.406 61.3912C152.748 61.4571 153.051 61.5612 153.313 61.6951C153.565 61.8206 153.763 61.9694 153.892 62.1394C154.026 62.2925 154.105 62.4753 154.132 62.6751C154.158 62.8536 154.162 63.0662 154.147 63.2979C154.128 63.5381 154.09 63.8038 154.03 64.0951L154.026 64.1036L152.937 70.2086H155.238L156.3 64.3034V64.2991C156.376 63.8634 156.427 63.4935 156.449 63.1874C156.474 62.8685 156.474 62.6113 156.446 62.4157C156.4 62.0012 156.232 61.6271 155.971 61.2998Z" fill="white"/>
<path d="M138.101 70.2063H140.375L142.213 60.0029H139.941L138.101 70.2063Z" fill="white"/>
<path d="M140.189 58.6617H142.457L142.905 56.2129H140.599L140.189 58.6617Z" fill="white"/>
<path d="M170.355 60.0029C170.355 60.0029 170.135 61.3272 170.084 61.6716C169.496 60.8787 168.536 60.4217 167.61 60.1602C166.602 59.8775 165.532 59.7988 164.491 59.8413C163.444 59.8839 162.396 60.0815 161.44 60.5216C160.517 60.9446 159.678 61.5972 159.077 62.4198C157.867 64.0715 157.837 66.5798 159.245 68.1337C160.708 69.7471 163.062 70.1829 165.145 70.0575C166.415 69.9788 167.723 69.6621 168.729 68.8416C168.629 69.2646 168.532 69.6812 168.404 70.0957C168.251 70.5931 167.992 71.0884 167.648 71.4774C167.298 71.8771 166.831 72.1045 166.338 72.2618C165.859 72.4149 165.368 72.5148 164.869 72.5616C164.309 72.6147 163.744 72.6147 163.181 72.5786C162.661 72.5445 162.141 72.4701 161.644 72.3128C161.188 72.164 160.729 71.9387 160.41 71.5688C160.255 71.386 160.137 71.1692 160.077 70.9333C160.043 70.7993 160.033 70.6548 160.011 70.5102C160.011 70.5017 158.094 70.5102 157.712 70.5102C157.744 70.7547 157.767 71.0077 157.827 71.25C157.939 71.7198 158.185 72.1343 158.529 72.4744C158.873 72.8145 159.296 73.0675 159.733 73.263C160.236 73.4799 160.763 73.6414 161.296 73.7647C162.404 74.0134 163.544 74.0729 164.678 74.0177C165.75 73.9751 166.846 73.8391 167.846 73.4373C168.326 73.2418 168.774 72.9803 169.154 72.6232C169.553 72.2533 169.899 71.8091 170.156 71.3286C170.591 70.5315 170.786 69.6047 170.948 68.7204C171.058 68.0954 172.519 60.0029 172.519 60.0029H170.355ZM169.445 64.5987C169.409 65.1726 169.241 65.7274 168.994 66.2418C168.761 66.7201 168.451 67.1729 168.052 67.5215C167.268 68.1826 166.251 68.5121 165.243 68.5822C164.183 68.6609 163.047 68.544 162.103 68.0317C161.659 67.7957 161.258 67.4662 160.975 67.0475C160.682 66.616 160.534 66.1164 160.495 65.5977C160.415 64.5009 160.793 63.4061 161.576 62.6324C162.328 61.8841 163.302 61.4292 164.347 61.2868C165.4 61.1423 166.557 61.2167 167.546 61.6227C168.014 61.814 168.455 62.0882 168.799 62.4623C169.132 62.828 169.349 63.285 169.417 63.7781C169.451 64.0524 169.464 64.3245 169.445 64.5987C169.428 64.8686 169.445 64.5987 169.445 64.5987Z" fill="white"/>
<path d="M198.698 68.1208C198.636 67.8934 195.842 60.0049 195.842 60.0049H193.458L197.314 70.2083H199.554L206.73 60.0049H204.208C204.21 60.0028 198.766 67.9997 198.698 68.1208Z" fill="white"/>
<path d="M233.562 68.1208C233.507 67.8934 230.709 60.0049 230.709 60.0049H228.324L232.184 70.2083H234.42L241.598 60.0049H239.076C239.076 60.0028 233.632 67.9997 233.562 68.1208Z" fill="white"/>
<path d="M219.22 60.7959C219.175 60.7428 219.056 60.696 218.986 60.6599C218.889 60.6067 218.793 60.56 218.693 60.5068C218.5 60.4197 218.296 60.3325 218.097 60.2624C217.659 60.1008 217.213 59.9796 216.759 59.9052C215.706 59.7054 214.617 59.6778 213.551 59.7692C211.532 59.9435 209.47 60.7194 208.182 62.3647C207.557 63.1661 207.205 64.1333 207.165 65.1472C207.124 66.2016 207.362 67.2814 207.976 68.1445C209.207 69.8812 211.485 70.4296 213.498 70.4998C214.606 70.5423 215.734 70.4572 216.804 70.1469C217.816 69.8514 218.77 69.3455 219.564 68.6483C219.959 68.3039 220.307 67.9106 220.583 67.4664C220.867 67.0051 221.069 66.4907 221.199 65.9635C221.46 64.9134 221.422 63.7081 220.976 62.7133C220.615 61.8928 219.974 61.2529 219.22 60.7959C219.22 60.7959 219.821 61.1615 219.22 60.7959ZM218.732 66.2569C218.337 67.2283 217.509 67.9957 216.585 68.4633C215.596 68.9565 214.475 69.0734 213.388 68.999C212.366 68.9331 211.309 68.6589 210.513 67.9914C210.141 67.6811 209.85 67.2857 209.672 66.8414C209.475 66.344 209.417 65.7871 209.436 65.2556C209.477 64.2268 209.942 63.2957 210.687 62.5943C211.326 61.9969 212.12 61.5973 212.967 61.3911C213.963 61.1594 215.037 61.1467 216.037 61.3337C217.022 61.508 218.018 61.9566 218.589 62.8153C218.914 63.3042 219.037 63.8697 219.052 64.4479C219.075 65.0686 218.959 65.6787 218.732 66.2569C218.732 66.2569 218.878 65.8827 218.732 66.2569Z" fill="white"/>
<path d="M225.448 56.2661L222.94 70.2065H225.214L227.724 56.2661H225.448Z" fill="white"/>
<path d="M270.202 56.2702C270.202 56.2702 269.433 60.7427 269.301 61.4718C268.664 60.6449 267.62 60.1879 266.63 59.9519C265.55 59.699 264.405 59.6607 263.303 59.7776C262.261 59.8818 261.237 60.156 260.301 60.6237C259.333 61.1104 258.528 61.8204 257.944 62.7366C257.333 63.6996 256.995 64.8326 257.063 65.9826C257.119 66.8881 257.412 67.7724 257.985 68.4845C259.297 70.0958 261.562 70.5061 263.53 70.4848C265.144 70.4635 266.845 70.1107 268.051 68.9607C267.951 69.3709 267.807 70.2021 267.807 70.2021L269.983 70.1936L272.45 56.2617L270.202 56.2702ZM268.429 66.091C268.051 67.0709 267.238 67.8723 266.331 68.3804C265.38 68.916 264.276 69.0733 263.197 69.0329C262.176 68.9904 261.093 68.7545 260.297 68.0721C259.921 67.749 259.639 67.3324 259.484 66.8605C259.314 66.3333 259.286 65.7445 259.348 65.1961C259.405 64.6561 259.569 64.1119 259.832 63.6358C260.087 63.1788 260.439 62.7855 260.84 62.4603C261.679 61.78 262.675 61.4017 263.741 61.2848C264.15 61.2359 264.562 61.2359 264.968 61.2359C265.463 61.2359 265.957 61.2805 266.439 61.4059C267.412 61.6759 268.35 62.3285 268.645 63.3361C268.773 63.7803 268.785 64.2692 268.749 64.7263C268.705 65.1939 268.596 65.6488 268.429 66.091C268.284 66.4757 268.579 65.6998 268.429 66.091Z" fill="white"/>
</mask>
<g mask="url(#mask0_1194_1178)">
<path d="M282 56.0176H-7V95.0176H282V56.0176Z" fill="white"/>
</g>
</svg>
