<svg width="17" height="14" viewBox="0 0 17 14" fill="none" xmlns="http://www.w3.org/2000/svg">
<g clip-path="url(#clip0_839_4256)">
<path d="M10.3225 4.72001C10.1601 4.5073 10.0233 4.31871 9.87867 4.1372C9.67518 3.88408 9.42561 3.87061 9.23205 4.1294C8.71518 4.82069 8.20611 5.51694 7.71193 6.22382C7.49922 6.52941 7.663 6.80309 8.05013 6.80947C8.60316 6.81798 9.15689 6.80947 9.75885 6.80947C9.75885 7.3235 9.76806 7.81556 9.7475 8.3069C9.7475 8.37001 9.59294 8.47848 9.50927 8.47919C8.43299 8.49054 7.35671 8.50684 6.28114 8.47919C5.55369 8.46005 5.13254 7.98997 5.13112 7.26678C5.12687 5.24515 5.12687 3.22375 5.13112 1.2026C5.13325 0.486493 5.58205 0.0100365 6.29674 0.00720049C9.19471 -0.00272568 12.092 -0.00272568 14.9885 0.00720049C15.6607 0.00720049 16.1052 0.495001 16.1088 1.16785C16.1123 1.84071 16.1038 2.51498 16.1123 3.18925C16.1123 3.38423 16.0542 3.48491 15.8592 3.54376C15.1275 3.77348 14.3972 4.0117 13.6747 4.26837C13.4663 4.33927 13.3713 4.26837 13.2706 4.1138C12.9813 3.66854 12.6906 3.22399 12.3914 2.78511C12.1482 2.43061 11.8795 2.43061 11.6384 2.78086C11.2733 3.32042 10.9188 3.86423 10.5551 4.4045C10.4934 4.4988 10.4225 4.58813 10.3225 4.72001ZM8.5124 2.53767C8.5124 2.01867 8.17066 1.68047 7.64741 1.68189C7.12415 1.68331 6.78241 2.01442 6.77957 2.5327C6.77674 3.05099 7.14968 3.43102 7.65733 3.4211C8.16499 3.41117 8.51382 3.04887 8.5124 2.53767Z" fill="white"/>
<path d="M8.87744 10.4495C8.28541 10.8182 7.87844 11.2089 7.69197 11.7895C7.67495 11.8427 7.53953 11.8874 7.45941 11.8874C5.30898 11.8923 3.15854 11.8987 1.0074 11.8874C0.454367 11.8817 0.0091068 11.4095 0.00697976 10.8395C-0.00200107 8.42882 -0.00200107 6.01935 0.00697976 3.61107C0.00697976 2.95453 0.404736 2.59293 1.06483 2.5901C1.9986 2.58655 2.93237 2.60144 3.86543 2.58159C4.15754 2.57521 4.21993 2.67376 4.21993 2.94389C4.21072 5.15247 4.21497 7.36104 4.21497 9.56962C4.21497 9.68802 4.21497 9.80643 4.22064 9.92412C4.249 10.3098 4.36245 10.424 4.75169 10.4254C5.95701 10.4289 7.16234 10.4254 8.36766 10.4254C8.49953 10.4275 8.63496 10.4389 8.87744 10.4495ZM2.11487 5.31767C2.77993 5.31767 2.77993 5.31767 2.77993 4.70154C2.77993 4.00387 2.76929 3.99252 2.11417 3.99252C1.45904 3.99252 1.45975 3.99252 1.45904 4.63063C1.45904 5.31767 1.45904 5.31767 2.11487 5.31767ZM2.12693 6.57617C1.46258 6.57617 1.46258 6.57617 1.46187 7.11502C1.46187 7.88359 1.46187 7.88359 2.0851 7.88359C2.78276 7.88359 2.78276 7.88359 2.78276 7.21144C2.77993 6.57617 2.77993 6.57617 2.12693 6.57617ZM2.08155 10.4226H2.36516C2.54879 10.4226 2.76717 10.4226 2.76008 10.1836C2.75086 9.8355 2.93024 9.45121 2.61402 9.14776C2.58566 9.12081 2.52397 9.12507 2.47789 9.11939C1.52498 8.9939 1.44415 9.06551 1.45833 10.0191C1.45833 10.0659 1.43989 10.1297 1.464 10.1574C1.54341 10.2524 1.62424 10.3658 1.73059 10.4119C1.83694 10.458 1.96386 10.4226 2.08155 10.4226Z" fill="white"/>
<path d="M10.6388 10.9684V10.6947C10.6388 9.41852 10.6388 8.1423 10.6388 6.86608C10.6388 6.26271 10.6856 6.21024 11.2677 6.01526C12.9358 5.46129 14.6034 4.90589 16.2705 4.34908C16.7668 4.18388 16.9923 4.33419 16.9944 4.85461C16.9993 6.72144 17.0036 8.58827 16.9944 10.4558C16.9887 11.3428 16.179 11.9929 15.1984 11.8738C14.8368 11.8318 14.4882 11.7131 14.1761 11.5257C13.4429 11.0641 13.4607 10.1389 14.2094 9.70284C14.5029 9.53197 14.8709 9.48092 15.2112 9.40292C15.3658 9.36677 15.5359 9.39654 15.7224 9.39654V7.19151C15.4204 7.2851 15.1552 7.3638 14.8872 7.45172C13.9797 7.75234 13.0757 8.06289 12.1653 8.35359C11.9441 8.42449 11.8817 8.53509 11.8817 8.75843C11.893 9.86875 11.8881 10.9798 11.8867 12.0908C11.8867 12.7998 11.5584 13.2429 10.8877 13.462C10.608 13.5614 10.3101 13.5994 10.0144 13.5735C9.71874 13.5476 9.43209 13.4583 9.17397 13.3117C8.32953 12.8416 8.30472 11.8107 9.16404 11.369C9.5859 11.1542 10.0964 11.1095 10.6388 10.9684Z" fill="white"/>
</g>
<defs>
<clipPath id="clip0_839_4256">
<rect width="17" height="13.5818" fill="white"/>
</clipPath>
</defs>
</svg>
