<svg width="17" height="17" viewBox="0 0 17 17" fill="none" xmlns="http://www.w3.org/2000/svg">
<g clip-path="url(#clip0_839_4284)">
<path d="M2.14086 2.65031C2.14086 2.28309 2.13385 1.93958 2.14286 1.5954C2.15054 1.29295 2.20061 1.00152 2.37854 0.740128C2.69735 0.270761 3.13801 0.0357446 3.69951 0.0233928C4.18891 0.0123764 4.67864 -0.000643002 5.16837 2.46592e-05C8.37893 0.00581106 11.5896 0.0139343 14.8004 0.0243943C15.1062 0.0243943 15.4126 0.0364122 15.7178 0.0554406C16.2562 0.0888236 16.5657 0.45103 16.8304 0.862977C16.9516 1.05226 17.001 1.26124 17 1.49459C16.9858 6.02489 16.978 10.5554 16.9766 15.0862C16.9766 15.4414 16.8765 15.7335 16.6939 16.0192C16.3998 16.4796 15.9711 16.7653 15.4784 16.969C15.4198 16.9864 15.3584 16.9928 15.2975 16.9877C10.7574 16.9877 6.2166 16.9863 1.67516 16.9837C1.55498 16.9837 1.42646 16.9329 1.31596 16.8785C0.467363 16.4579 0.00400597 15.7855 0.00300448 14.8251C0.00100149 11.2126 0 7.60046 0 3.98864C0.136537 3.46552 0.389247 3.01518 0.922375 2.82957C1.23083 2.72241 1.57368 2.71273 1.9015 2.66266C1.98103 2.65452 2.06091 2.6504 2.14086 2.65031V2.65031ZM2.10747 3.70855C1.91185 3.70855 1.72624 3.68351 1.55031 3.71389C1.19111 3.77632 1.04189 3.97328 1.04222 4.32914C1.04222 6.85591 1.04055 9.38267 1.04789 11.9094C1.0509 12.9667 1.06859 14.0243 1.09363 15.0808C1.10164 15.5265 1.51659 15.9321 1.9696 15.9468C2.80418 15.9742 3.63876 15.9959 4.47333 15.9979C7.16623 16.0039 9.85914 16.0039 12.552 15.9979C13.392 15.9959 14.2319 15.9728 15.0715 15.9461C15.4784 15.9331 15.8947 15.5385 15.9254 15.1586C15.9444 14.9249 15.9588 14.6912 15.9588 14.4576C15.9695 10.1665 15.9786 5.87545 15.9862 1.58439C15.9862 1.30597 15.7338 1.0546 15.4537 1.05493C12.6382 1.05894 9.82286 1.06339 7.00778 1.06828C5.86708 1.07196 4.72671 1.09432 3.58634 1.11068C3.34465 1.11435 3.26053 1.17978 3.23716 1.41981C3.20244 1.76933 3.17406 2.11952 3.17306 2.47037C3.1626 6.43873 3.15715 10.407 3.1567 14.3751C3.1567 14.5617 3.08159 14.6832 2.9494 14.7827C2.87449 14.842 2.78404 14.8785 2.68892 14.8876C2.5938 14.8967 2.49808 14.8781 2.41326 14.8341C2.24334 14.753 2.16222 14.6225 2.16155 14.4118C2.14842 10.9053 2.12995 7.39894 2.10614 3.89283C2.1058 3.83674 2.10614 3.78166 2.10614 3.70855H2.10747Z" fill="white"/>
<path d="M6.64324 2.18749C7.28252 2.18749 7.92214 2.18381 8.56176 2.18749C8.84251 2.18982 8.95234 2.29364 8.97571 2.5774C8.99808 2.85415 9.0111 3.13256 9.01277 3.41031C9.01811 4.39511 9.01677 5.37991 9.01777 6.36471C9.01777 6.65982 8.83183 6.87614 8.52905 6.89517C8.17986 6.91753 7.828 6.92354 7.47881 6.92221C6.5501 6.9182 5.62127 6.90886 4.69233 6.89417C4.62156 6.89417 4.54344 6.84242 4.48268 6.79635C4.2697 6.63445 4.22997 6.41579 4.23531 6.15306C4.25935 4.96262 4.26235 3.77185 4.27304 2.58107C4.27471 2.3781 4.50071 2.15243 4.70702 2.1521C5.35242 2.1521 5.99783 2.1521 6.64324 2.1521V2.18749ZM7.98791 3.20901C7.95202 3.20213 7.91581 3.19712 7.87941 3.19399C7.0682 3.18597 6.25666 3.18097 5.44545 3.16928C5.30658 3.16728 5.31359 3.2464 5.31359 3.34054C5.31492 4.12415 5.31492 4.90776 5.31359 5.69137C5.31359 5.74445 5.32026 5.7972 5.32394 5.84861H7.98657L7.98791 3.20901Z" fill="white"/>
<path d="M9.58471 9.63606C11.0249 9.63606 12.465 9.63606 13.9051 9.63606C14.1552 9.63606 14.4059 9.65676 14.6549 9.6631C14.7678 9.66577 14.8719 9.67245 14.8866 9.816C14.8983 9.92983 14.7975 10.0447 14.6616 10.0617C14.5239 10.0806 14.3853 10.0918 14.2463 10.0951C13.4785 10.1068 12.7107 10.1225 11.9446 10.1211C9.59239 10.1171 7.24033 10.1088 4.88838 10.0961C4.74934 10.0964 4.61052 10.0849 4.47343 10.0617C4.36326 10.042 4.24876 9.99493 4.2581 9.85305C4.26879 9.69415 4.36026 9.61703 4.51282 9.6167H9.58471V9.63606Z" fill="white"/>
<path d="M9.55695 8.49759C7.99907 8.49759 6.44119 8.49759 4.88331 8.49759C4.7443 8.49564 4.60557 8.48449 4.46803 8.46421C4.33116 8.44551 4.23001 8.32767 4.24637 8.21717C4.26773 8.07529 4.3799 8.07129 4.48739 8.06995C5.61107 8.05493 6.73441 8.02989 7.85908 8.02789C9.78362 8.02489 11.7085 8.0349 13.6344 8.04258C13.9792 8.04258 14.3241 8.06061 14.6692 8.07029C14.7751 8.07329 14.8809 8.08731 14.8866 8.22185C14.8918 8.27847 14.8749 8.33493 14.8392 8.37925C14.8036 8.42356 14.7521 8.45224 14.6956 8.4592C14.5588 8.48355 14.4202 8.49595 14.2813 8.49625C12.707 8.49848 11.1327 8.49848 9.55861 8.49625L9.55695 8.49759Z" fill="white"/>
<path d="M12.5227 4.79117C13.1062 4.79117 13.6894 4.78917 14.2726 4.79117C14.4061 4.79117 14.547 4.78884 14.6672 4.8339C14.7553 4.86729 14.8592 4.96744 14.8765 5.05223C14.8992 5.1664 14.7987 5.25253 14.6705 5.26555C14.4773 5.28491 14.2836 5.31629 14.0903 5.31529C12.8962 5.31061 11.7025 5.29893 10.5087 5.28791C10.4477 5.28371 10.3871 5.27602 10.3271 5.26488C10.2062 5.24886 10.1111 5.17174 10.1304 5.06124C10.1448 4.97678 10.2323 4.87997 10.313 4.83824C10.4008 4.79318 10.5184 4.79451 10.6228 4.79384C11.2571 4.79051 11.8894 4.79217 12.523 4.79217L12.5227 4.79117Z" fill="white"/>
<path d="M12.5444 6.35376C13.212 6.37713 13.9014 6.39883 14.5904 6.4262C14.7643 6.43321 14.8698 6.52635 14.8742 6.64987C14.8785 6.77338 14.7633 6.88355 14.5847 6.89056C14.09 6.90859 13.5949 6.92628 13.1002 6.92394C12.2269 6.92194 11.3536 6.90892 10.4803 6.89356C10.2566 6.88956 10.1328 6.79341 10.1288 6.65988C10.1248 6.52635 10.2399 6.43321 10.4706 6.42386C11.1543 6.39749 11.838 6.37613 12.5444 6.35376Z" fill="white"/>
<path d="M6.61989 12.8426C7.33696 12.8426 8.05537 12.8389 8.7711 12.8479C8.84955 12.8479 8.96973 12.905 8.9941 12.9664C9.01847 13.0278 8.9714 13.143 8.92733 13.2168C8.90396 13.2555 8.8195 13.2709 8.76042 13.2729C8.28838 13.2886 7.81634 13.3063 7.34397 13.3083C6.51574 13.3123 5.68717 13.3083 4.85894 13.3026C4.72556 13.3015 4.59249 13.2897 4.46101 13.2672C4.34016 13.2468 4.24936 13.1694 4.26872 13.0382C4.28675 12.916 4.31546 12.8012 4.5024 12.8045C5.20846 12.8159 5.91451 12.8092 6.62056 12.8092L6.61989 12.8426Z" fill="white"/>
<path d="M6.60997 11.2384C7.28252 11.2384 7.95508 11.2384 8.62764 11.2384C8.69441 11.2384 8.76117 11.2467 8.82794 11.2527C8.93176 11.2624 9.01288 11.3005 9.01388 11.422C9.01488 11.5435 8.96715 11.6423 8.83595 11.6664C8.73244 11.6868 8.62731 11.6979 8.52182 11.6997C7.25993 11.7024 5.99805 11.7024 4.73617 11.6997C4.63065 11.7012 4.52545 11.6877 4.42371 11.6597C4.31488 11.6263 4.23977 11.5452 4.27148 11.4193C4.29986 11.3082 4.3269 11.204 4.49281 11.2063C5.19853 11.215 5.90458 11.21 6.61063 11.21L6.60997 11.2384Z" fill="white"/>
<path d="M6.74327 14.4422C7.4214 14.4422 8.09952 14.4422 8.77764 14.4422C8.92019 14.4422 9.01766 14.4853 9.01332 14.6499C9.00965 14.8004 8.9322 14.8732 8.78331 14.8735C7.38256 14.8756 5.9817 14.8776 4.58072 14.8796C4.54179 14.8801 4.50289 14.877 4.46455 14.8702C4.3457 14.8472 4.24322 14.7888 4.25089 14.6566C4.25824 14.5317 4.32667 14.4416 4.47556 14.4392C4.92557 14.4322 5.37691 14.4172 5.82557 14.4105C6.13136 14.4059 6.43749 14.4105 6.74327 14.4105V14.4422Z" fill="white"/>
<path d="M12.4937 14.3921C13.2137 14.4094 13.9078 14.4255 14.6021 14.4445C14.7283 14.4478 14.8729 14.4335 14.8866 14.6201C14.8972 14.7656 14.7904 14.8705 14.6018 14.8738C13.7021 14.8888 12.8021 14.9032 11.9021 14.9072C11.4014 14.9072 10.9026 14.8908 10.4032 14.8738C10.3271 14.8708 10.2303 14.8384 10.1839 14.7847C10.1375 14.7309 10.1134 14.6201 10.1398 14.5607C10.1662 14.5013 10.2663 14.4552 10.3361 14.4528C11.0635 14.4255 11.7913 14.4098 12.4937 14.3921Z" fill="white"/>
<path d="M12.5147 12.8424C13.1924 12.8424 13.8701 12.8424 14.5478 12.8424C14.5975 12.8424 14.6479 12.8501 14.697 12.8538C14.8021 12.8611 14.8843 12.8992 14.8863 13.019C14.8879 13.1439 14.8305 13.24 14.7047 13.2634C14.5735 13.2876 14.4404 13.3 14.3071 13.3005C13.1013 13.3031 11.8956 13.3031 10.69 13.3005C10.5895 13.2976 10.4892 13.2893 10.3896 13.2758C10.2036 13.2547 10.1118 13.1706 10.1172 13.0277C10.1242 12.8364 10.2754 12.8498 10.3969 12.8461C11.102 12.8251 11.8073 12.8104 12.5127 12.7937L12.5147 12.8424Z" fill="white"/>
<path d="M12.5159 11.1914C13.2363 11.2148 13.9638 11.2391 14.6908 11.2612C14.8083 11.2648 14.8888 11.3069 14.8855 11.4338C14.8821 11.5606 14.8264 11.6508 14.6945 11.6674C14.5683 11.6871 14.441 11.6982 14.3133 11.7008C13.1075 11.7033 11.9016 11.7033 10.6956 11.7008C10.574 11.7008 10.4522 11.6838 10.3307 11.6721C10.1905 11.6584 10.1254 11.5696 10.1197 11.4384C10.1133 11.2979 10.2058 11.2635 10.3257 11.2598C11.0531 11.2381 11.7805 11.2148 12.5159 11.1914Z" fill="white"/>
<path d="M12.4852 3.65205C11.8175 3.65205 11.1509 3.65205 10.4852 3.65205C10.4352 3.65131 10.3852 3.64775 10.3356 3.64137C10.2355 3.62968 10.1253 3.62401 10.1197 3.48613C10.114 3.34826 10.1998 3.26247 10.3199 3.2371C10.467 3.20784 10.6166 3.1932 10.7666 3.19336C11.8055 3.18914 12.8445 3.18813 13.8836 3.19036C14.1276 3.19036 14.372 3.20371 14.6147 3.22708C14.696 3.23859 14.7711 3.27703 14.828 3.33624C14.9455 3.46176 14.8868 3.62067 14.7152 3.63035C14.2438 3.65672 13.7718 3.67141 13.3001 3.6841C13.028 3.69144 12.7556 3.6841 12.4832 3.6841L12.4852 3.65205Z" fill="white"/>
</g>
<defs>
<clipPath id="clip0_839_4284">
<rect width="17" height="16.988" fill="white"/>
</clipPath>
</defs>
</svg>
