<svg width="17" height="17" viewBox="0 0 17 17" fill="none" xmlns="http://www.w3.org/2000/svg">
<g clip-path="url(#clip0_839_4293)">
<path d="M0 8.49942C0 8.10632 0 7.71355 0 7.32078C0.00365213 6.77993 0.405054 6.37853 0.945569 6.37455C1.31078 6.37256 1.676 6.37123 2.04121 6.37455C2.15774 6.37455 2.22315 6.33504 2.26399 6.22315C2.33039 6.04187 2.40543 5.86358 2.48677 5.68894C2.53425 5.58635 2.51433 5.51431 2.43697 5.43861C2.18397 5.19059 1.9343 4.94059 1.68496 4.68793C1.2633 4.26295 1.26098 3.72011 1.68496 3.29348C2.21839 2.75496 2.75415 2.21865 3.29223 1.68455C3.71853 1.26157 4.26336 1.26157 4.68867 1.68355C4.93635 1.92858 5.18436 2.1736 5.42706 2.42361C5.5114 2.51026 5.58842 2.53782 5.70396 2.48138C5.86774 2.40111 6.03628 2.33092 6.20862 2.27121C6.33379 2.22838 6.38093 2.15933 6.37861 2.02752C6.37164 1.66795 6.37496 1.30838 6.37662 0.948479C6.37828 0.406968 6.77835 0.00290997 7.31754 0.00158192C8.1033 -0.000852829 8.88906 -0.000852829 9.67482 0.00158192C10.224 0.00158192 10.6221 0.405308 10.6244 0.958108C10.6244 1.31801 10.6284 1.67758 10.6224 2.03715C10.6204 2.16265 10.6675 2.22805 10.7851 2.26955C10.9529 2.3246 11.1163 2.39241 11.2738 2.47241C11.4093 2.5438 11.4946 2.50827 11.5912 2.40601C11.8286 2.15833 12.0739 1.91829 12.3176 1.67559C12.7293 1.26787 13.2755 1.2609 13.6898 1.66861C14.2416 2.21223 14.7896 2.75982 15.3336 3.31141C15.734 3.71779 15.7297 4.26727 15.3313 4.67266C15.0793 4.92897 14.8257 5.18429 14.5677 5.43462C14.4837 5.5163 14.4681 5.59166 14.5169 5.69857C14.5982 5.87354 14.6719 6.0525 14.739 6.23344C14.7778 6.33803 14.8413 6.3772 14.9508 6.37588C15.316 6.37189 15.6812 6.37322 16.0465 6.37588C16.5973 6.37787 16.9977 6.77794 16.9987 7.32975C17.0002 8.10997 17.0002 8.8902 16.9987 9.67043C16.9987 10.2216 16.5966 10.6223 16.0465 10.6246C15.6866 10.6246 15.327 10.6286 14.9674 10.6226C14.8432 10.6206 14.7755 10.6641 14.735 10.7827C14.6726 10.9593 14.5986 11.1323 14.5189 11.3019C14.4687 11.4095 14.488 11.4845 14.5713 11.5656C14.8257 11.8122 15.0747 12.0636 15.3237 12.3159C15.7327 12.7289 15.741 13.2751 15.3346 13.6881C14.791 14.2399 14.2433 14.7877 13.6915 15.3316C13.2778 15.7383 12.732 15.73 12.3186 15.3226C12.0706 15.0776 11.8226 14.8325 11.5802 14.5822C11.4919 14.4912 11.4126 14.4604 11.2897 14.5221C11.1265 14.6027 10.9582 14.6728 10.7861 14.7319C10.6685 14.7731 10.6217 14.8385 10.6237 14.9644C10.6297 15.3239 10.627 15.6838 10.6257 16.0434C10.6234 16.5952 10.2243 16.9983 9.67516 16.9996C8.88962 17.0016 8.10385 17.0016 7.31787 16.9996C6.77802 16.9989 6.37795 16.5925 6.37463 16.0507C6.37297 15.6908 6.37064 15.3312 6.37629 14.9717C6.37629 14.8498 6.34076 14.7774 6.21991 14.7353C6.04782 14.6758 5.87942 14.6062 5.71558 14.5268C5.59705 14.4693 5.51638 14.4843 5.42374 14.5792C5.18237 14.8306 4.93336 15.0749 4.68568 15.3203C4.26635 15.7353 3.72285 15.7403 3.30186 15.3243C2.75426 14.7842 2.21031 14.2405 1.67002 13.6931C1.26231 13.2801 1.26696 12.7329 1.674 12.3202C1.92268 12.0682 2.17202 11.8166 2.42601 11.5699C2.51433 11.4842 2.53358 11.4039 2.47814 11.292C2.39768 11.1286 2.32759 10.9602 2.2683 10.788C2.22514 10.6602 2.15077 10.6203 2.02162 10.622C1.66205 10.6283 1.30248 10.6256 0.942913 10.6236C0.40439 10.6213 0.00332012 10.2186 0 9.67773C0 9.28463 0 8.89186 0 8.49942ZM8.50216 16.2021C8.87268 16.2021 9.24354 16.1978 9.61406 16.2041C9.7731 16.2064 9.83087 16.1407 9.82854 15.9856C9.8229 15.6204 9.82522 15.2552 9.82854 14.89C9.83087 14.4883 10.0507 14.1682 10.4242 14.0151C10.6181 13.9355 10.8133 13.8591 11.0059 13.7768C11.4235 13.5975 11.7884 13.6652 12.1134 13.9882C12.3648 14.2379 12.6174 14.4863 12.8638 14.7406C12.969 14.8491 13.0537 14.8432 13.157 14.7406C13.682 14.2098 14.2101 13.6818 14.7413 13.1566C14.8469 13.052 14.8442 12.9656 14.738 12.8624C14.4724 12.6038 14.2068 12.3438 13.9521 12.0759C13.6736 11.7843 13.6065 11.4424 13.7529 11.0652C13.8383 10.8441 13.9286 10.6243 14.0248 10.4078C14.1908 10.033 14.4833 9.83577 14.8944 9.82946C15.2596 9.82415 15.6248 9.82415 15.99 9.82946C16.1477 9.83212 16.2062 9.76904 16.2052 9.61266C16.201 8.87139 16.201 8.12989 16.2052 7.38818C16.2052 7.23147 16.1461 7.16905 15.9894 7.17138C15.6298 7.17702 15.2699 7.17503 14.9103 7.17138C14.485 7.16872 14.1726 6.95358 14.0139 6.55948C13.9372 6.37023 13.8612 6.18099 13.7815 5.99506C13.6025 5.57838 13.6706 5.21284 13.9936 4.88747C14.2393 4.64012 14.487 4.39476 14.7327 4.14741C14.8675 4.01195 14.8678 3.97045 14.7327 3.83433C14.2128 3.31329 13.6926 2.79314 13.1722 2.27387C13.0394 2.14107 12.989 2.14107 12.8578 2.27188C12.5989 2.52952 12.3455 2.7928 12.0816 3.04513C11.7907 3.32303 11.4491 3.39375 11.0716 3.24866C10.8452 3.16134 10.6204 3.06904 10.3993 2.96944C10.0314 2.80343 9.83917 2.51325 9.83253 2.10952C9.82655 1.74431 9.82655 1.3791 9.83253 1.01389C9.83518 0.859832 9.7804 0.794094 9.62037 0.79509C8.87335 0.799738 8.12632 0.799738 7.37929 0.79509C7.22989 0.79509 7.17046 0.853856 7.17278 1.0026C7.17765 1.36781 7.17765 1.73302 7.17278 2.09824C7.16747 2.51624 6.96793 2.8114 6.58579 2.9794C6.39388 3.06373 6.197 3.13644 6.00443 3.21911C5.5778 3.40238 5.21258 3.33498 4.88057 3.0043C4.63322 2.75894 4.38256 2.51491 4.14218 2.26358C4.03162 2.1487 3.94563 2.15601 3.83706 2.26557C3.31536 2.79148 2.791 3.31561 2.26399 3.83798C2.15177 3.9492 2.15542 4.03718 2.26731 4.14376C2.52993 4.39742 2.78956 4.6544 3.04222 4.91801C3.33041 5.21948 3.39548 5.56975 3.23778 5.95787C3.15478 6.16239 3.06945 6.36592 2.98545 6.5701C2.82874 6.95059 2.50636 7.17138 2.09699 7.17138C1.73177 7.17138 1.36656 7.17503 1.00135 7.17138C0.851278 7.16905 0.794836 7.23114 0.7955 7.37955C0.79882 8.12657 0.79882 8.87349 0.7955 9.6203C0.7955 9.78199 0.861903 9.83378 1.01629 9.83112C1.37586 9.82548 1.73543 9.82847 2.09499 9.83112C2.50735 9.83112 2.82874 10.0493 2.98545 10.4287C3.06513 10.6226 3.14183 10.8179 3.22417 11.0104C3.39947 11.4221 3.33373 11.7877 3.01965 12.1061C2.77097 12.3581 2.52163 12.6104 2.26731 12.8561C2.15509 12.964 2.15044 13.049 2.26332 13.1609C2.79012 13.6823 3.31403 14.2069 3.83507 14.7346C3.94364 14.8442 4.03062 14.8515 4.14118 14.7373C4.39916 14.4717 4.65978 14.206 4.92805 13.9514C5.21989 13.6728 5.56253 13.6094 5.93936 13.7555C6.15517 13.8392 6.36799 13.9308 6.5818 14.0211C6.75775 14.0898 6.90851 14.2107 7.01389 14.3674C7.11927 14.5242 7.17425 14.7094 7.17145 14.8983C7.17145 15.2469 7.17145 15.5955 7.17145 15.9441C7.17145 16.1858 7.18772 16.2028 7.42279 16.2031C7.78269 16.2024 8.14248 16.2021 8.50216 16.2021Z" fill="white"/>
<path d="M5.17944 8.47664C5.17944 6.65389 6.67881 5.1781 8.52679 5.18042C10.3349 5.18275 11.822 6.68078 11.819 8.49755C11.8193 8.93367 11.7336 9.36556 11.5669 9.76856C11.4002 10.1716 11.1558 10.5378 10.8475 10.8463C10.5393 11.1548 10.1732 11.3995 9.77037 11.5666C9.3675 11.7336 8.93568 11.8196 8.49956 11.8197C6.65557 11.8197 5.17944 10.3303 5.17944 8.47664ZM11.0229 8.5022C11.0199 7.11107 9.88737 5.97493 8.50587 5.97891C8.17373 5.97861 7.84479 6.04377 7.53786 6.17068C7.23092 6.2976 6.95201 6.48376 6.71708 6.71854C6.48215 6.95332 6.29579 7.23211 6.16868 7.53896C6.04157 7.84581 5.97618 8.17471 5.97627 8.50685C5.97627 9.89665 7.11839 11.0278 8.51849 11.0235C9.89401 11.0192 11.0262 9.87905 11.0229 8.5022Z" fill="white"/>
</g>
<defs>
<clipPath id="clip0_839_4293">
<rect width="17" height="17.0007" fill="white"/>
</clipPath>
</defs>
</svg>
