<svg width="19" height="20" viewBox="0 0 19 20" fill="none" xmlns="http://www.w3.org/2000/svg">
<g clip-path="url(#clip0_1195_1218)">
<path d="M18.2519 3.83424C18.2459 3.86733 18.2419 3.90074 18.2397 3.9343C18.2295 4.67574 18.2274 5.41738 18.208 6.15841C18.1962 6.61336 18.1629 7.0679 18.1309 7.52203C18.1019 7.93144 18.0723 8.34126 18.0237 8.74864C17.9697 9.19889 17.8983 9.6471 17.8268 10.0951C17.7116 10.8048 17.5465 11.5055 17.3329 12.192C16.9012 13.594 16.271 14.8947 15.3589 16.0513C14.422 17.2389 13.2683 18.1633 11.9423 18.8796C11.1051 19.3319 10.227 19.6872 9.31775 19.9694C9.19166 20.0104 9.05586 20.0104 8.92978 19.9694C7.86898 19.6358 6.8484 19.2104 5.88929 18.6436C5.23097 18.2567 4.61383 17.8037 4.04744 17.2916C2.6926 16.0617 1.75616 14.5607 1.13622 12.8489C0.815476 11.9632 0.577723 11.0495 0.426024 10.1198C0.347204 9.64261 0.270222 9.16417 0.224686 8.68329C0.153626 7.94696 0.0911417 7.20818 0.061329 6.47001C0.0219191 5.52234 0.0159975 4.57405 7.01464e-05 3.62494C-0.00503476 3.31069 0.269201 3.06769 0.591014 3.06973C1.06067 3.07259 1.53154 3.09015 1.99813 3.05279C3.86244 2.90556 5.59709 2.35035 7.18614 1.35449C7.73022 1.01502 8.24191 0.62623 8.71476 0.193018C8.99471 -0.0646781 9.25833 -0.0624319 9.53154 0.188321C10.2687 0.867886 11.0906 1.42391 11.9854 1.87437C12.8703 2.31925 13.8099 2.64564 14.78 2.84512C15.1535 2.92251 15.5339 2.96764 15.9125 3.01746C16.4973 3.09505 17.0856 3.08648 17.6737 3.07198C17.9612 3.06483 18.1819 3.25004 18.2338 3.53122C18.2388 3.55097 18.2452 3.57035 18.253 3.58921L18.2519 3.83424ZM1.14357 4.23018C1.14234 4.2506 1.14051 4.26796 1.14051 4.2845C1.14561 5.3112 1.15909 6.33769 1.24117 7.36194C1.27691 7.8079 1.3057 8.2555 1.36594 8.69861C1.44639 9.29078 1.53828 9.88294 1.65406 10.47C1.8566 11.512 2.19104 12.524 2.64931 13.4815C3.38217 15.0048 4.43154 16.26 5.8168 17.2318C6.81512 17.932 7.91002 18.4351 9.06352 18.8157C9.10641 18.8298 9.16338 18.8204 9.20871 18.8059C10.016 18.548 10.7953 18.2098 11.5351 17.7964C12.69 17.1464 13.6912 16.3147 14.5041 15.2643C15.2209 14.3385 15.7444 13.3089 16.1248 12.2051C16.5681 10.9186 16.806 9.59033 16.94 8.24162C16.9965 7.66987 17.0388 7.09812 17.0625 6.52453C17.0917 5.78064 17.0948 5.03553 17.1084 4.29103C17.1074 4.27041 17.1046 4.24991 17.1001 4.22977C14.1084 4.17934 11.4336 3.27209 9.12519 1.36204C6.80675 3.27556 4.13545 4.18281 1.14357 4.23018Z" fill="white"/>
<path d="M9.14607 4.94972C11.8259 4.94441 14.0988 7.1632 14.0031 9.99602C13.9177 12.5297 11.8153 14.7417 9.0064 14.6744C6.4176 14.6131 4.27742 12.4823 4.28028 9.80264C4.28314 7.12298 6.46538 4.94665 9.14607 4.94972ZM9.15995 14.0048C11.4214 14.0213 13.3431 12.1926 13.3439 9.83368C13.3484 8.73124 12.9154 7.67203 12.1398 6.88851C11.3643 6.10499 10.3096 5.66115 9.20712 5.6544C6.87255 5.63398 4.98843 7.51115 4.98925 9.82756C4.99006 12.1613 6.89154 14.0142 9.15995 14.0048V14.0048Z" fill="white"/>
<path d="M11.6461 8.61876L8.21272 12.0554L6.34229 10.2082L6.86687 9.68508L8.20558 11.0289L11.1368 8.09766C11.3123 8.27735 11.482 8.45105 11.6461 8.61876Z" fill="white"/>
</g>
<defs>
<clipPath id="clip0_1195_1218">
<rect width="18.2519" height="20" fill="white"/>
</clipPath>
</defs>
</svg>
