<svg width="20" height="21" viewBox="0 0 20 21" fill="none" xmlns="http://www.w3.org/2000/svg">
<g clip-path="url(#clip0_1216_915)">
<path d="M13.1394 20.3396C12.9757 18.7963 13.6148 17.4756 13.9675 16.1041C14.267 14.9397 14.3251 13.7957 14.0117 12.6353C13.898 12.2147 13.7867 11.7941 13.6844 11.3711C13.6197 11.1002 13.4675 10.9161 13.1869 10.9161C12.9062 10.9161 12.7556 11.0716 12.6812 11.3563C12.6476 11.4873 12.4668 11.5805 12.3538 11.691C12.2556 11.5503 12.0862 11.4161 12.0732 11.268C12.0462 10.9578 12.0183 10.6951 11.6468 10.633C11.3048 10.5773 11.074 10.6681 10.9676 11.0421C10.9308 11.1738 10.7565 11.268 10.6452 11.3792C10.5349 11.2521 10.4363 11.1151 10.3506 10.9701C10.3073 10.8817 10.3433 10.7557 10.34 10.6469C10.3302 10.3089 10.1387 10.1559 9.81793 10.151C9.49716 10.1461 9.29586 10.286 9.26231 10.6199C9.23694 10.876 9.34413 11.2516 8.92271 11.2254C8.52911 11.2017 8.62894 10.8302 8.62649 10.5708C8.61831 9.45215 8.62649 8.33354 8.62649 7.21574C8.62649 6.74522 8.48656 6.54883 8.1617 6.5431C7.82374 6.53656 7.66335 6.7485 7.66253 7.23538C7.66253 9.81302 7.66253 12.3907 7.65681 14.9699C7.65681 15.2154 7.78201 15.6057 7.37449 15.618C6.92361 15.6311 7.06354 15.2228 7.05781 14.9634C7.04308 14.2678 7.05208 13.5723 7.0529 12.8759C7.0529 12.5535 6.95143 12.2966 6.58729 12.2777C6.22315 12.2589 6.10368 12.4938 6.06685 12.8227C5.94575 13.9061 5.81673 14.9882 5.6798 16.0689C5.58815 16.7849 5.86228 17.3479 6.3729 17.8168C6.67403 18.0934 6.9768 18.3708 7.30167 18.6179C7.57989 18.829 7.69854 19.0753 7.66663 19.4231C7.64126 19.7054 7.66172 19.991 7.66172 20.3126C7.8982 20.3249 8.10932 20.2995 8.29344 20.3584C8.41782 20.3985 8.50374 20.5573 8.60685 20.662C8.49638 20.7602 8.38591 20.86 8.27217 20.9541C8.2558 20.968 8.21898 20.9541 8.19034 20.9541C6.91216 20.9451 7.02999 21.0965 7.06436 19.8683C7.07827 19.3953 6.95634 19.0622 6.56847 18.8045C6.38323 18.6651 6.20644 18.5148 6.03903 18.3544C5.29275 17.717 4.93842 16.9388 5.07344 15.9322C5.2371 14.7318 5.35494 13.524 5.50059 12.2499C5.28456 12.2499 5.06199 12.2409 4.84023 12.2499C4.481 12.2679 4.31979 12.1296 4.33288 11.7475C4.35498 11.0822 4.33861 10.4161 4.33861 9.71073C4.16104 9.70255 4.01129 9.68946 3.86973 9.68946C2.75111 9.68946 1.63332 9.68127 0.514709 9.68946C0.163659 9.69437 0 9.59699 0 9.20421C0.0120017 6.64021 0.0120017 4.07621 0 1.51221C0 1.12925 0.155476 1.00814 0.511436 1.01142C1.62923 1.02042 2.74784 1.01142 3.86645 1.01142C4.01211 1.01142 4.15695 0.999141 4.28542 0.993413C4.30653 0.958838 4.32381 0.922072 4.33697 0.883761C4.40244 0 4.40244 0 5.3132 0H14.8054C15.4994 0 15.4985 0 15.5157 0.699644C15.5157 0.781474 15.5256 0.863303 15.5337 0.98523C15.6892 0.995049 15.8316 1.01142 15.9748 1.01142C17.1343 1.01142 18.293 1.01142 19.4526 1.01142C19.937 1.01142 19.9926 1.07115 19.9926 1.55395C19.9926 4.09067 19.9861 6.62739 20 9.16411C20 9.5618 19.8617 9.69518 19.4763 9.687C18.5901 9.66982 17.703 9.68209 16.8168 9.68127C16.6073 9.68127 16.3758 9.68618 16.3659 9.39569C16.3545 9.07982 16.591 9.07655 16.8217 9.07737C17.6629 9.07737 18.5042 9.07737 19.3658 9.07737V2.89595H15.5403C15.5321 3.04979 15.5157 3.20609 15.5157 3.3632C15.5157 6.07722 15.5157 8.79178 15.5157 11.5069C15.5157 12.2082 15.5157 12.2082 14.7956 12.2483C14.7442 12.2526 14.6933 12.2614 14.6434 12.2745C14.7113 12.9864 14.8071 13.6713 14.8365 14.3587C14.8906 15.5272 14.4683 16.6098 14.1484 17.703C13.8849 18.6032 13.6827 19.4918 13.7613 20.4304C13.7932 20.8093 13.6418 20.9721 13.2433 20.9656C12.1386 20.9476 11.0339 20.9574 9.92922 20.9656C9.70828 20.9656 9.4857 20.9476 9.47261 20.6808C9.45788 20.3862 9.69109 20.3437 9.92758 20.3437H13.1402L13.1394 20.3396ZM7.04881 11.61V11.1288C7.04881 9.76474 7.04881 8.40064 7.04881 7.03736C7.03922 6.79017 7.11548 6.54728 7.26465 6.34993C7.41381 6.15259 7.62668 6.01296 7.86711 5.95475C8.09845 5.88305 8.34761 5.89481 8.57116 5.98797C8.79472 6.08113 8.9785 6.24979 9.09046 6.46455C9.20257 6.66748 9.3245 6.71576 9.53398 6.71004C10.3245 6.70022 11.1157 6.70349 11.907 6.71004C12.6173 6.71004 12.9455 7.04881 12.9496 7.77382C12.9496 7.91048 12.9496 8.04632 12.9496 8.18297C12.9332 8.74514 12.5969 9.09701 12.0281 9.11419C11.5102 9.12974 10.9922 9.11992 10.4734 9.11828C10.2713 9.11828 10.0732 9.08883 10.0732 8.8237C10.0732 8.53975 10.2762 8.51029 10.4996 8.51193C10.9496 8.51193 11.3997 8.51602 11.8498 8.51193C12.281 8.50702 12.3407 8.4301 12.3407 7.91539C12.3407 7.40068 12.2794 7.32867 11.8391 7.3254C11.0757 7.31967 10.3122 7.3254 9.54789 7.3254C9.45063 7.33287 9.35408 7.34764 9.25903 7.36958V9.60681C9.97341 9.38341 10.4947 9.58144 10.8834 10.1272C11.5257 9.85312 12.0715 9.96359 12.5199 10.4685C13.4463 10.0945 14.0747 10.3752 14.3022 11.3138C14.3988 11.7074 14.6172 11.6321 14.8799 11.6084V2.90741H4.97852V11.61H7.04881ZM4.3157 9.06264V2.90495H0.633362V9.06264H4.3157ZM4.96543 2.23641H14.8816V0.649728H4.96543V2.23641ZM19.3675 2.24868V1.65951H15.5476V2.24868H19.3675ZM0.642363 1.65705V2.24704H4.31897V1.65705H0.642363Z" fill="white"/>
<path d="M17.3637 5.81409C17.6492 5.81409 17.9365 5.78626 18.218 5.82636C18.3448 5.84436 18.452 5.99738 18.5682 6.08903C18.4569 6.20196 18.3513 6.40653 18.2343 6.41635C17.6374 6.44786 17.0392 6.44786 16.4423 6.41635C16.3359 6.41062 16.2393 6.21996 16.1387 6.1144C16.2483 6.01702 16.3482 5.85173 16.466 5.83454C16.7622 5.78626 17.065 5.81409 17.3637 5.81409Z" fill="white"/>
<path d="M17.3897 4.50075C17.6745 4.50075 17.9625 4.47211 18.2424 4.51466C18.3635 4.53267 18.4625 4.69714 18.5697 4.79616C18.4617 4.89681 18.3586 5.07929 18.2424 5.0842C17.6467 5.11366 17.0485 5.11366 16.4528 5.0842C16.3423 5.07929 16.2392 4.9009 16.1328 4.8027C16.2515 4.70123 16.3595 4.53267 16.4896 4.51303C16.7883 4.46802 17.091 4.50075 17.3897 4.50075Z" fill="white"/>
<path d="M7.42495 5.48237C7.07145 5.48237 6.71794 5.47419 6.36526 5.48237C6.07885 5.49055 5.9242 5.3719 5.92174 5.08222C5.91765 4.67307 5.92174 4.26393 5.92174 3.85478C5.92174 3.58965 6.06658 3.45136 6.33089 3.45054C7.07881 3.44617 7.82674 3.44617 8.57466 3.45054C8.83979 3.45054 8.97153 3.58801 8.9699 3.85969C8.9699 4.25411 8.9699 4.64853 8.9699 5.04295C8.9699 5.34735 8.84633 5.49383 8.52884 5.48237C8.15978 5.47501 7.79237 5.48237 7.42495 5.48237ZM6.58374 4.10927V4.82773H8.32917V4.10927H6.58374Z" fill="white"/>
<path d="M11.8 4.1735C12.3164 4.1735 12.8335 4.15223 13.3474 4.18741C13.4882 4.19642 13.6183 4.37562 13.7525 4.47627C13.6166 4.57856 13.4833 4.76513 13.3433 4.7684C12.3243 4.7935 11.3055 4.7935 10.287 4.7684C10.1536 4.7684 10.0243 4.57611 9.89258 4.473C10.0251 4.37317 10.152 4.19642 10.2911 4.1866C10.7927 4.15223 11.2968 4.1735 11.8 4.1735Z" fill="white"/>
<path d="M2.47977 5.80994C2.75144 5.80994 3.02885 5.77885 3.29316 5.82304C3.43309 5.84595 3.55092 5.99979 3.67857 6.09471C3.56319 6.20518 3.45272 6.40321 3.33162 6.40976C2.74838 6.44331 2.1637 6.44331 1.58046 6.40976C1.46263 6.40321 1.35625 6.20518 1.24414 6.09471C1.37098 6.00061 1.48963 5.84513 1.62547 5.82385C1.90451 5.78294 2.19418 5.80994 2.47977 5.80994Z" fill="white"/>
<path d="M2.44248 5.09978C2.17081 5.09978 1.89995 5.09978 1.62828 5.09978C1.41716 5.09978 1.21095 5.0294 1.26168 4.78801C1.28623 4.67181 1.48917 4.51797 1.61846 4.51142C2.18729 4.47992 2.75742 4.47992 3.32625 4.51142C3.44817 4.51797 3.55946 4.70536 3.67566 4.8101C3.56355 4.90502 3.45963 5.06541 3.33606 5.08259C3.04311 5.12351 2.74116 5.09568 2.44248 5.09568V5.09978Z" fill="white"/>
<path d="M9.95432 1.14551C10.4968 1.14551 11.041 1.1496 11.5835 1.14551C11.8159 1.14551 12.0328 1.21015 11.9886 1.46383C11.9673 1.58493 11.7349 1.75432 11.595 1.75759C10.4816 1.7816 9.36787 1.7816 8.2539 1.75759C8.11888 1.75759 7.8963 1.58002 7.87502 1.4581C7.8292 1.1897 8.05914 1.14551 8.28417 1.14714C8.83816 1.14551 9.39706 1.14551 9.95432 1.14551Z" fill="white"/>
</g>
<defs>
<clipPath id="clip0_1216_915">
<rect width="20" height="20.9656" fill="white"/>
</clipPath>
</defs>
</svg>
