<svg width="20" height="21" viewBox="0 0 20 21" fill="none" xmlns="http://www.w3.org/2000/svg">
<g clip-path="url(#clip0_1195_1209)">
<path d="M3.40355 20.0876C3.14435 19.5293 3.12425 18.9462 3.01711 18.3838C2.83866 17.4485 2.68817 16.5079 2.52417 15.5698C2.39473 14.8289 2.69351 14.215 3.35768 13.8506C4.41739 13.2694 5.47521 12.6844 6.53586 12.1044C6.63357 12.051 6.6675 12.0064 6.63011 11.8876C6.37877 11.0783 6.13403 10.2671 5.89589 9.45405C5.86196 9.33938 5.80792 9.30199 5.68979 9.29508C4.19527 9.20805 2.70137 9.11411 1.20716 9.02426C0.545507 8.9853 0.0337173 8.47728 0.00167158 7.82286C-0.013317 7.50802 0.0901652 7.19899 0.291724 6.95667C0.493283 6.71434 0.778298 6.5563 1.0906 6.5137C2.44909 6.32833 3.80883 6.15177 5.16795 5.9708C5.73346 5.8954 6.29897 5.81372 6.86449 5.74617C7.01914 5.72843 7.17566 5.73596 7.32789 5.76848C7.84942 5.88032 8.36467 6.02547 8.88808 6.12538C9.65969 6.27241 10.4203 6.17062 11.1706 5.96358C11.3119 5.92462 11.4602 5.90608 11.5956 5.8533C12.0945 5.65883 12.595 5.75905 13.0971 5.82754C14.7825 6.05542 16.4681 6.28194 18.1537 6.5071C18.8449 6.59884 19.3199 7.13733 19.297 7.815C19.274 8.49268 18.7604 8.9875 18.0585 9.02897C16.5693 9.11694 15.0805 9.21088 13.5913 9.29791C13.4819 9.30419 13.4395 9.34409 13.4094 9.44462C13.1559 10.2969 12.8983 11.148 12.6365 11.9979C12.6022 12.1085 12.6415 12.1729 12.7028 12.2493C14.295 14.2465 15.8832 16.2481 17.4836 18.239C17.9341 18.7995 18.045 19.3797 17.7198 20.0298C17.7149 20.0493 17.7125 20.0693 17.7129 20.0895H18.247C18.7079 20.0895 19.1685 20.0866 19.6294 20.0917C19.8493 20.0942 19.9985 20.2409 19.9988 20.4373C19.9992 20.6336 19.8509 20.7728 19.6278 20.7769C19.5807 20.7769 19.5336 20.7769 19.4864 20.7769L6.21478 20.775H1.89677C1.84964 20.775 1.80252 20.775 1.75539 20.775C1.54427 20.7681 1.40352 20.6308 1.40352 20.4335C1.40352 20.2362 1.54678 20.0904 1.75476 20.0879C2.24142 20.0835 2.7287 20.0863 3.21536 20.0863L3.40355 20.0876ZM9.64116 11.8506C10.3638 11.8506 11.0864 11.8474 11.809 11.8534C11.9309 11.8534 11.9805 11.8163 12.0144 11.7007C12.2683 10.8427 12.529 9.9872 12.787 9.13045C12.9324 8.64757 12.9422 8.64505 13.4467 8.61521C14.9728 8.52556 16.4985 8.4334 18.0239 8.33873C18.3749 8.31737 18.6005 8.09839 18.6099 7.78484C18.6193 7.4713 18.4079 7.24132 18.0594 7.1942C16.4364 6.97428 14.8093 6.77949 13.1898 6.52783C12.5249 6.41891 11.8438 6.46405 11.1991 6.65979C10.4269 6.89133 9.63205 6.95354 8.83687 6.81467C8.27576 6.71697 7.72438 6.56334 7.16798 6.43955C7.10248 6.42272 7.03453 6.41751 6.96722 6.42416C5.05411 6.67864 3.14069 6.93542 1.22695 7.19451C0.89424 7.23912 0.679973 7.47727 0.689713 7.78233C0.699766 8.0965 0.931941 8.31643 1.27565 8.33779C2.85385 8.43393 4.43184 8.52996 6.00962 8.62589C6.32034 8.64505 6.38506 8.6994 6.47366 8.99347C6.74322 9.89012 7.01655 10.7858 7.28014 11.6844C7.32035 11.821 7.38256 11.8572 7.52048 11.8556C8.22737 11.8465 8.93427 11.8506 9.64116 11.8506ZM9.59969 12.5418C8.8353 12.5418 8.07092 12.5399 7.30622 12.5439C7.22398 12.5432 7.14271 12.5618 7.06901 12.5983C5.93422 13.2172 4.80099 13.8392 3.66934 14.4642C3.28479 14.6766 3.12707 14.9867 3.20091 15.4193C3.42879 16.7597 3.66201 18.1002 3.90057 19.4407C3.92888 19.6104 4.01291 19.7658 4.13938 19.8823C4.26586 19.9989 4.42758 20.07 4.59898 20.0844C5.12962 20.13 5.51542 19.774 5.49532 19.239C5.45762 18.2336 5.40515 17.2308 5.36808 16.2264C5.34891 15.7152 5.63135 15.3552 6.13058 15.2396C7.25689 14.9785 8.38477 14.7234 9.5114 14.4639C9.5847 14.4443 9.66184 14.4441 9.73522 14.4634C9.8086 14.4827 9.87569 14.5207 9.92988 14.5738C11.4913 15.969 13.0541 17.3626 14.6183 18.7549C15.0406 19.1319 15.4593 19.5111 15.8863 19.8815C16.3617 20.2937 17.0585 20.075 17.1996 19.4731C17.2674 19.1837 17.1631 18.9443 16.9831 18.719C15.3682 16.6989 13.7561 14.6769 12.1467 12.653C12.12 12.6149 12.0839 12.5845 12.042 12.5644C12 12.5444 11.9537 12.5355 11.9073 12.5386C11.1391 12.5424 10.3694 12.5405 9.59969 12.5408V12.5418ZM5.9804 20.0756H15.0286C15.0257 20.0584 15.0191 20.0419 15.0093 20.0274C14.9995 20.0129 14.9867 20.0006 14.9717 19.9914C13.1931 18.4076 11.4139 16.8244 9.63424 15.2418C9.60438 15.2201 9.57043 15.2048 9.53447 15.1967C9.4985 15.1886 9.46125 15.1879 9.425 15.1946C8.38823 15.4252 7.35334 15.6631 6.31814 15.9003C6.10921 15.948 6.04826 16.0259 6.05706 16.2415C6.08282 16.8698 6.12963 17.4966 6.13435 18.1243C6.13906 18.774 6.33699 19.4407 5.9804 20.0756Z" fill="white"/>
<path d="M9.65765 4.83094C8.32429 4.83409 7.23065 3.74736 7.23097 2.41872C7.2296 1.94029 7.37013 1.47219 7.63479 1.07362C7.89944 0.675057 8.27633 0.363913 8.71781 0.179535C9.15929 -0.00484281 9.64552 -0.0541749 10.115 0.0377767C10.5846 0.129728 11.0163 0.358834 11.3556 0.696125C11.6949 1.03342 11.9266 1.46375 12.0213 1.9327C12.1161 2.40166 12.0696 2.88818 11.8879 3.33075C11.7062 3.77332 11.3973 4.15207 11.0003 4.4191C10.6033 4.68613 10.1361 4.82945 9.65765 4.83094V4.83094ZM9.65765 0.68856C9.43067 0.687195 9.20566 0.73056 8.99545 0.816178C8.78524 0.901796 8.59396 1.02799 8.43253 1.18755C8.2711 1.34711 8.14269 1.53691 8.05463 1.74611C7.96658 1.95531 7.9206 2.17981 7.91932 2.40678C7.91367 3.3537 8.69376 4.13945 9.64445 4.14479C10.5951 4.15013 11.379 3.36941 11.3812 2.41997C11.3823 2.19301 11.3385 1.96808 11.2524 1.75808C11.1663 1.54808 11.0396 1.35716 10.8795 1.19628C10.7194 1.0354 10.5291 0.907732 10.3195 0.820602C10.11 0.733472 9.88524 0.688599 9.65828 0.68856H9.65765Z" fill="white"/>
</g>
<defs>
<clipPath id="clip0_1195_1209">
<rect width="20" height="20.7785" fill="white"/>
</clipPath>
</defs>
</svg>
