<svg width="20" height="20" viewBox="0 0 20 20" fill="none" xmlns="http://www.w3.org/2000/svg">
<g clip-path="url(#clip0_1197_927)">
<path d="M7.71979 10.9248C7.71979 10.3158 7.72682 9.70599 7.71277 9.09619C7.69918 8.98469 7.64328 8.88266 7.55661 8.8112C6.64074 8.05384 6.13635 7.08331 6.12776 5.89885C6.12073 4.91349 6.0692 3.90392 6.25581 2.94667C6.61575 1.11259 8.3944 -0.120281 10.2714 0.00933095C12.1281 0.137381 13.6819 1.63338 13.8162 3.5065C13.8982 4.65661 13.9935 5.82155 13.6601 6.95682C13.4499 7.65885 13.0377 8.28344 12.4748 8.75265C12.3694 8.84322 12.2585 8.99391 12.2539 9.12118C12.2304 9.71849 12.2437 10.3166 12.2437 10.9475C13.0667 11.127 13.8756 11.3027 14.6845 11.4807C15.2037 11.5955 15.7354 11.6736 16.239 11.8383C17.9326 12.3911 18.8843 13.5865 19.1912 15.3293C19.4293 16.6847 19.687 18.0371 19.9392 19.3894C20.0298 19.875 19.9353 19.9961 19.4286 19.9961H0.534158C0.0313281 19.9961 -0.0600247 19.8766 0.031328 19.3824C0.292894 17.9769 0.530254 16.5715 0.812121 15.1661C1.21111 13.1899 2.4104 12.0242 4.38425 11.6416C5.42895 11.4378 6.47052 11.2168 7.51288 11.0021C7.58358 10.9812 7.65273 10.9554 7.71979 10.9248V10.9248ZM14.5174 19.3636V15.2254H15.1475V18.0714H19.0335C18.8445 17.0275 18.7087 16.0086 18.4666 15.0154C18.166 13.7817 17.3735 12.9307 16.1664 12.5168C15.6199 12.3287 15.0327 12.2412 14.4635 12.114C14.1668 12.0476 13.8685 11.9929 13.5265 11.9242C13.5176 12.0756 13.5176 12.2273 13.5265 12.3786C13.5874 12.837 13.4165 13.1977 13.1315 13.5498C12.6333 14.1667 12.168 14.81 11.7026 15.4526C11.6169 15.5751 11.5693 15.7201 11.566 15.8696C11.566 16.6761 11.5878 17.4819 11.5996 18.29C11.5996 18.582 11.4489 18.7148 11.1615 18.7117C10.8742 18.7085 10.5892 18.7117 10.3027 18.7117C9.69285 18.7117 9.64757 18.6796 9.66397 18.0808C9.67177 17.8223 9.59682 17.7013 9.34774 17.599C8.65987 17.3164 8.31163 16.6621 8.37644 15.9406C8.3865 15.7665 8.33964 15.5939 8.24292 15.4487C7.87829 14.9264 7.51054 14.4025 7.09672 13.9199C6.62824 13.3734 6.30109 12.805 6.4307 12.0562C6.4279 11.9967 6.41605 11.938 6.39557 11.8821C5.59682 12.0601 4.80744 12.2092 4.03367 12.4153C2.72116 12.7659 1.84745 13.6201 1.51249 14.9272C1.25093 15.9422 1.11585 16.9853 0.922993 18.0285H4.84491V15.1754H5.46955V19.3636H14.5174ZM6.77659 4.72688C6.77659 5.16959 6.76801 5.56857 6.77659 5.96756C6.83047 7.94218 8.80666 9.43428 10.7251 8.93457C12.5513 8.45907 13.4914 6.85766 13.1244 4.673C12.9816 4.83697 12.8652 4.95565 12.7668 5.08761C12.5279 5.40929 12.2203 5.4983 11.8213 5.48737C10.7953 5.46082 9.76625 5.4413 8.74263 5.48737C7.98995 5.52407 7.33174 5.43896 6.87263 4.76826C6.87107 4.7628 6.85233 4.7628 6.77659 4.72688ZM6.87107 3.1934H13.0885C12.9246 1.82077 11.509 0.662854 10.0013 0.645677C8.49356 0.628499 7.06393 1.78876 6.87107 3.1934ZM11.2295 15.0271C11.7674 14.3158 12.3468 13.6287 12.8231 12.8752C12.9847 12.6199 12.8902 12.1991 12.8941 11.8532C12.8941 11.8118 12.7832 11.7642 12.7192 11.7282C12.3702 11.5346 12.2031 11.811 12.0056 12.0078C10.7657 13.2422 9.12366 13.2219 7.91343 11.9562C7.84671 11.8765 7.77415 11.8019 7.69637 11.7329C7.53006 11.6033 7.0975 11.7228 7.09672 11.9078C7.09672 12.349 7.00537 12.7901 7.35829 13.193C7.8658 13.7731 8.30383 14.4142 8.77074 15.0279C9.73111 14.3338 10.2332 14.3361 11.2326 15.0271H11.2295ZM11.5972 9.3195C10.4885 9.79969 9.45159 9.77158 8.36863 9.33512C8.36863 10.0597 8.36395 10.7187 8.3741 11.3777C8.39209 11.4653 8.43682 11.5453 8.50215 11.6064C8.68828 11.8199 8.91839 11.9906 9.1767 12.1067C9.43501 12.2229 9.7154 12.2817 9.99861 12.2793C10.2818 12.2768 10.5611 12.2131 10.8174 12.0925C11.0737 11.9719 11.3008 11.7973 11.4832 11.5807C11.5427 11.5156 11.5809 11.4338 11.5925 11.3464C11.6042 10.6968 11.6003 10.0503 11.6003 9.3195H11.5972ZM7.01942 3.90392L6.97335 3.99372C7.20759 4.21624 7.42934 4.45282 7.67607 4.65505C7.79916 4.75937 7.95174 4.8227 8.11253 4.83619C9.3618 4.85024 10.604 4.84556 11.8502 4.84088C11.9595 4.84088 12.0985 4.82994 12.1734 4.7628C12.4631 4.5145 12.7317 4.24279 13.0081 3.982L12.948 3.90392H7.01942ZM10.9234 18.0363C10.9234 17.3297 10.9452 16.6574 10.9156 15.9867C10.8945 15.5112 10.4752 15.1692 9.99346 15.1614C9.77142 15.1581 9.55516 15.2322 9.38178 15.371C9.20841 15.5098 9.08871 15.7045 9.04324 15.9219C8.95266 16.4317 9.19939 16.8791 9.66787 17.0353C10.28 17.2414 10.2792 17.2414 10.3019 17.8793C10.3088 17.9321 10.3195 17.9843 10.3339 18.0355L10.9234 18.0363ZM0.747315 19.3316H4.80119V18.707H1.35633C0.789478 18.7085 0.789478 18.7085 0.747315 19.3316ZM19.2287 19.3441C19.1646 18.5672 19.1404 18.714 18.6118 18.7101C17.6124 18.7038 16.6122 18.7101 15.6128 18.7101H15.1693V19.3457L19.2287 19.3441Z" fill="white"/>
<path d="M9.6875 16.4332V15.8086H10.2692V16.4332H9.6875Z" fill="white"/>
</g>
<defs>
<clipPath id="clip0_1197_927">
<rect width="19.9719" height="20" fill="white"/>
</clipPath>
</defs>
</svg>
