<svg width="17" height="20" viewBox="0 0 17 20" fill="none" xmlns="http://www.w3.org/2000/svg">
<path d="M11.0202 16.9798C11.0202 17.5133 10.9968 18.0477 11.0288 18.5797C11.0483 18.9015 10.9171 19.0343 10.6421 19.1484C9.61247 19.5757 8.53285 19.7968 7.43527 19.9163C5.01745 20.1772 2.66994 19.8132 0.358373 19.1249C0.196664 19.0773 -0.000978909 19.0695 0.00370829 18.7984C0.0248007 17.6149 -0.0439451 16.4251 0.0560486 15.2494C0.227913 13.2183 1.69188 11.6973 3.71753 11.52C5.01321 11.4102 6.31655 11.4282 7.60869 11.5739C9.49451 11.784 10.9632 13.5269 11.0116 15.4182C11.0249 15.9384 11.0116 16.4595 11.0116 16.9806L11.0202 16.9798Z" fill="white"/>
<path d="M12.0701 15.1625C11.6318 13.2048 10.503 11.94 8.64062 11.269C9.21012 10.644 9.62025 9.95812 9.77415 9.12926C9.92804 8.30041 9.80696 7.50827 9.49995 6.74895C9.54838 6.71223 9.56791 6.68333 9.58744 6.68333C10.8069 6.70754 12.0498 6.59271 13.2403 6.79113C15.2238 7.12236 16.4972 8.79882 16.5362 10.8534C16.555 11.8549 16.5464 12.8572 16.5307 13.8587C16.5307 13.9844 16.4425 14.1711 16.3417 14.2227C14.9941 14.8625 13.5567 15.089 12.0701 15.1625Z" fill="white"/>
<path d="M7.80469 3.22635C7.805 2.58766 7.99478 1.96342 8.35 1.43263C8.70522 0.90184 9.20993 0.488357 9.80024 0.244514C10.3905 0.000671236 11.0399 -0.06257 11.6662 0.0627909C12.2924 0.188152 12.8674 0.496481 13.3184 0.948758C13.7694 1.40103 14.076 1.97693 14.1996 2.60355C14.3231 3.23018 14.258 3.87937 14.0124 4.46897C13.7669 5.05856 13.3519 5.56206 12.8201 5.91574C12.2883 6.26942 11.6635 6.45738 11.0248 6.45583C10.6013 6.45542 10.1819 6.37154 9.79084 6.20898C9.39973 6.04643 9.04449 5.80838 8.74544 5.50845C8.44638 5.20853 8.20937 4.8526 8.04795 4.46102C7.88653 4.06945 7.80387 3.64989 7.80469 3.22635V3.22635Z" fill="white"/>
<path d="M5.50922 4.80471C6.14672 4.80409 6.77008 4.99253 7.30048 5.34619C7.83088 5.69984 8.2445 6.20285 8.48903 6.79158C8.73356 7.38031 8.79802 8.02833 8.67425 8.6537C8.55049 9.27906 8.24406 9.85369 7.79372 10.3049C7.34338 10.7561 6.76936 11.0637 6.14423 11.1886C5.51911 11.3136 4.87096 11.2504 4.28175 11.007C3.69255 10.7636 3.18875 10.351 2.83406 9.82127C2.47937 9.29156 2.28973 8.66856 2.28911 8.03107C2.28674 7.60724 2.36836 7.18714 2.52927 6.79503C2.69017 6.40293 2.92717 6.04659 3.22658 5.7466C3.52599 5.44662 3.88186 5.20892 4.27366 5.04726C4.66545 4.88559 5.08539 4.80315 5.50922 4.80471V4.80471Z" fill="white"/>
</svg>
