<svg width="20" height="14" viewBox="0 0 20 14" fill="none" xmlns="http://www.w3.org/2000/svg">
<g clip-path="url(#clip0_1195_1199)">
<path d="M9.98749 10.0428C8.84337 10.0428 7.69942 10.0428 6.55562 10.0428C5.99991 10.0428 5.72532 9.76825 5.72485 9.21394C5.72485 7.64145 5.72485 6.06927 5.72485 4.4974C5.72485 3.94355 5.99991 3.66943 6.55609 3.66943C8.85178 3.66943 11.1476 3.66943 13.4436 3.66943C13.9993 3.66943 14.2739 3.94495 14.2744 4.49833C14.2744 6.07082 14.2744 7.643 14.2744 9.21487C14.2744 9.76871 13.9993 10.0428 13.4432 10.0433C12.2913 10.0436 11.1394 10.0435 9.98749 10.0428ZM8.69721 6.83792C8.69721 7.2498 8.69721 7.66168 8.69721 8.07356C8.69721 8.35375 8.76726 8.40045 9.01663 8.2795C9.89144 7.86077 10.7649 7.43909 11.6369 7.01444C11.6995 6.98409 11.7802 6.91497 11.7835 6.85987C11.7868 6.80477 11.7069 6.73098 11.6462 6.7011C10.7602 6.2696 9.87292 5.84184 8.9844 5.41782C8.77566 5.31835 8.70094 5.37112 8.69908 5.60462C8.69534 6.01416 8.69768 6.42604 8.69721 6.83792Z" fill="white"/>
<path d="M0 6.62849C0.0364248 4.27723 0.925096 2.06139 2.70851 0.212129C2.90744 0.00712268 3.12179 -0.0465805 3.31232 0.056156C3.60232 0.210261 3.63921 0.558631 3.38097 0.82201C2.86749 1.34377 2.42189 1.92822 2.05473 2.56153C1.11966 4.18128 0.738448 6.06184 0.968945 7.91787C1.19944 9.7739 2.02906 11.5041 3.33193 12.8459C3.44401 12.9627 3.54021 13.1551 3.53414 13.3073C3.52853 13.4348 3.38704 13.601 3.26142 13.6683C3.09097 13.7617 2.88783 13.7094 2.75661 13.5455C2.32978 13.022 1.8628 12.5242 1.49575 11.9615C0.479593 10.4139 0.0060708 8.69163 0 6.62849Z" fill="white"/>
<path d="M20.0001 7.03166C19.9674 9.42776 19.0732 11.6548 17.2748 13.5176C17.1235 13.674 16.9414 13.7623 16.755 13.6736C16.6276 13.6124 16.4795 13.4513 16.4693 13.3247C16.4571 13.1739 16.5449 12.9754 16.656 12.8601C17.441 12.0326 18.0724 11.1061 18.4796 10.04C19.479 7.41086 19.2866 4.86579 17.8609 2.44214C17.5256 1.87149 17.0483 1.38536 16.65 0.850194C16.5542 0.72224 16.4524 0.548522 16.4632 0.404691C16.4739 0.273935 16.6108 0.110024 16.7359 0.0427781C16.9064 -0.0506187 17.095 0.0128911 17.2435 0.16326C17.8366 0.759953 18.3478 1.43286 18.7635 2.16429C19.5822 3.61334 19.9983 5.19735 20.0001 7.03166Z" fill="white"/>
<path d="M17.5895 6.95801C17.5559 8.79232 16.9003 10.4744 15.5675 11.8842C15.5261 11.9306 15.4818 11.9743 15.4349 12.015C15.2383 12.177 14.995 12.1728 14.8213 12.0066C14.738 11.9237 14.6894 11.8121 14.6854 11.6947C14.6814 11.5772 14.7223 11.4627 14.7998 11.3743C15.0333 11.0941 15.2906 10.8302 15.5003 10.5337C17.2799 8.0204 17.0236 4.66325 14.8932 2.4334C14.8147 2.35121 14.7321 2.25361 14.7031 2.14901C14.6475 1.94587 14.7059 1.76281 14.9007 1.64746C15.0954 1.53212 15.3032 1.55407 15.4531 1.71891C15.7492 2.0458 16.0513 2.37643 16.3035 2.73834C17.1655 3.97305 17.5737 5.35579 17.5895 6.95801Z" fill="white"/>
<path d="M2.41284 6.57504C2.446 4.93499 3.08717 3.26272 4.4008 1.85849C4.43255 1.82441 4.46477 1.79032 4.49793 1.75763C4.72675 1.53487 4.98312 1.5162 5.18019 1.70719C5.36699 1.88932 5.3455 2.1625 5.15404 2.39459C4.8477 2.76538 4.51754 3.12449 4.26677 3.5317C2.73413 6.02213 3.08483 9.16586 5.10734 11.2804C5.18995 11.3603 5.25375 11.4576 5.29414 11.5652C5.32498 11.6631 5.31965 11.7688 5.27911 11.8631C5.23857 11.9574 5.16552 12.034 5.07325 12.0789C4.86544 12.1859 4.66511 12.1476 4.52361 11.9757C4.1589 11.5321 3.7699 11.1006 3.46496 10.6177C2.75514 9.48715 2.41191 8.18053 2.41284 6.57504Z" fill="white"/>
</g>
<defs>
<clipPath id="clip0_1195_1199">
<rect width="20" height="13.7135" fill="white"/>
</clipPath>
</defs>
</svg>
