<svg width="233" height="45" viewBox="0 0 233 45" fill="none" xmlns="http://www.w3.org/2000/svg">
<g clip-path="url(#clip0)">
<path d="M206.576 0V6.79688H205.485V6.32812C205.242 6.5625 205.121 6.67969 204.758 6.79688C204.515 6.91406 204.152 6.91406 203.788 6.91406C203.303 6.91406 202.939 6.79688 202.576 6.5625C202.212 6.32812 201.97 6.09375 201.727 5.74219C201.485 5.39062 201.364 4.92188 201.364 4.45312C201.364 3.98438 201.485 3.51562 201.727 3.16406C201.97 2.8125 202.212 2.57812 202.576 2.34375C202.939 2.10938 203.424 1.99219 203.788 1.99219C204.152 1.99219 204.394 1.99219 204.636 2.10938C204.879 2.22656 205.121 2.34375 205.364 2.57812V0H206.576ZM204.758 5.85938C205 5.74219 205.121 5.625 205.242 5.39062C205.364 5.15625 205.485 4.92188 205.485 4.57031C205.485 4.33594 205.364 3.98438 205.242 3.75C205.121 3.51562 205 3.39844 204.758 3.28125C204.515 3.16406 204.273 3.04688 204.03 3.04688C203.788 3.04688 203.545 3.16406 203.303 3.28125C203.061 3.39844 202.939 3.51562 202.818 3.75C202.697 3.98438 202.576 4.21875 202.576 4.57031C202.576 4.92188 202.697 5.15625 202.818 5.39062C202.939 5.625 203.061 5.74219 203.303 5.85938C203.545 5.97656 203.788 6.09375 204.03 6.09375C204.273 5.97656 204.515 5.97656 204.758 5.85938Z" fill="#597DB3"/>
<path d="M212.515 4.92187H208.758C208.879 5.27344 209 5.50781 209.242 5.74219C209.485 5.97656 209.849 6.09375 210.333 6.09375C210.818 6.09375 211.303 5.97656 211.667 5.625L212.273 6.32812C212.03 6.5625 211.788 6.79688 211.424 6.91406C211.061 7.03125 210.697 7.14844 210.333 7.14844C209.849 7.14844 209.364 7.03125 208.879 6.79688C208.515 6.5625 208.152 6.32812 207.909 5.97656C207.667 5.625 207.545 5.15625 207.545 4.6875C207.545 4.21875 207.667 3.86719 207.909 3.39844C208.152 3.04688 208.394 2.69531 208.758 2.57813C209.121 2.34375 209.606 2.22656 210.091 2.22656C210.576 2.22656 210.939 2.34375 211.303 2.57813C211.667 2.8125 211.909 3.04688 212.152 3.39844C212.394 3.75 212.515 4.21875 212.515 4.6875C212.636 4.6875 212.636 4.6875 212.515 4.92187ZM209.242 3.28125C209 3.51562 208.879 3.75 208.758 4.10156H211.545C211.545 3.75 211.303 3.51562 211.061 3.28125C210.818 3.04687 210.455 2.92969 210.091 2.92969C209.727 3.04688 209.485 3.16406 209.242 3.28125Z" fill="#597DB3"/>
<path d="M214.091 6.79688C213.727 6.67969 213.364 6.5625 213.242 6.44531L213.727 5.625C213.97 5.74219 214.212 5.85937 214.576 5.97656C214.939 6.09375 215.182 6.09375 215.424 6.09375C216.152 6.09375 216.394 5.97656 216.394 5.625C216.394 5.50781 216.273 5.39062 216.152 5.27344C216.03 5.15625 215.667 5.15625 215.303 5.03906C214.939 4.92188 214.576 4.92187 214.333 4.80469C214.091 4.6875 213.848 4.57031 213.727 4.45312C213.485 4.21875 213.485 3.98437 213.485 3.63281C213.485 3.16406 213.727 2.8125 214.091 2.57813C214.455 2.34375 214.939 2.22656 215.667 2.22656C216.03 2.22656 216.273 2.22656 216.636 2.34375C217 2.46094 217.242 2.46094 217.485 2.69531L217 3.51562C216.636 3.28125 216.152 3.16406 215.667 3.16406C215.303 3.16406 215.061 3.16406 214.939 3.28125C214.818 3.39844 214.697 3.51562 214.697 3.63281C214.697 3.86719 214.818 3.98438 214.939 3.98438C215.182 4.10156 215.424 4.10156 215.788 4.21875C216.152 4.21875 216.515 4.33594 216.758 4.45312C217 4.57031 217.242 4.6875 217.364 4.80469C217.485 5.03906 217.606 5.27344 217.606 5.625C217.606 6.09375 217.364 6.44531 217 6.67969C216.636 6.91406 216.03 7.03125 215.424 7.03125C214.818 6.91406 214.455 6.91406 214.091 6.79688Z" fill="#597DB3"/>
<path d="M218.455 1.17188C218.333 1.05469 218.212 0.9375 218.212 0.703125C218.212 0.46875 218.333 0.351562 218.455 0.234375C218.576 0.117188 218.818 0 218.939 0C219.182 0 219.303 0.117188 219.424 0.234375C219.546 0.351562 219.667 0.46875 219.667 0.703125C219.667 0.9375 219.546 1.05469 219.424 1.17188C219.303 1.28906 219.061 1.40625 218.939 1.40625C218.697 1.40625 218.576 1.28906 218.455 1.17188ZM218.333 2.22656H219.424V6.91406H218.333V2.22656Z" fill="#597DB3"/>
<path d="M225.848 2.22656V6.21094C225.848 7.85156 225 8.67187 223.182 8.67187C222.697 8.67187 222.212 8.67187 221.848 8.55469C221.485 8.4375 221.121 8.32031 220.758 8.08594L221.242 7.26562C221.485 7.38281 221.727 7.61719 222.091 7.61719C222.455 7.73437 222.697 7.73437 223.061 7.73437C223.545 7.73437 224.03 7.61719 224.273 7.38281C224.515 7.14844 224.636 6.79687 224.636 6.32812V6.09375C224.394 6.32812 224.152 6.44531 223.909 6.5625C223.667 6.67969 223.303 6.67969 222.939 6.67969C222.455 6.67969 222.091 6.5625 221.727 6.44531C221.364 6.21094 221.121 5.97656 220.879 5.625C220.636 5.27344 220.515 4.92187 220.515 4.45312C220.515 3.98437 220.636 3.63281 220.879 3.28125C221.121 2.92969 221.364 2.69531 221.727 2.46094C222.091 2.22656 222.576 2.22656 222.939 2.22656C223.303 2.22656 223.667 2.22656 223.909 2.34375C224.152 2.46094 224.394 2.57813 224.636 2.8125V2.22656H225.848ZM224.273 5.39062C224.515 5.15625 224.636 4.80469 224.636 4.45312C224.636 4.10156 224.515 3.75 224.273 3.51562C224.03 3.28125 223.667 3.16406 223.182 3.16406C222.697 3.16406 222.333 3.28125 222.091 3.51562C221.848 3.75 221.727 4.10156 221.727 4.45312C221.727 4.80469 221.848 5.15625 222.091 5.39062C222.333 5.625 222.697 5.74219 223.182 5.74219C223.667 5.74219 224.03 5.625 224.273 5.39062Z" fill="#597DB3"/>
<path d="M231.545 2.69531C231.909 3.04688 232.152 3.51562 232.152 4.21875V6.91406H230.939V4.33594C230.939 3.86719 230.818 3.63281 230.697 3.39844C230.455 3.16406 230.212 3.04687 229.849 3.04687C229.485 3.04687 229.121 3.16406 228.879 3.39844C228.636 3.63281 228.515 3.98438 228.515 4.45312V6.79688H227.303V2.10938H228.394V2.69531C228.636 2.46094 228.879 2.34375 229.121 2.22656C229.364 2.10938 229.727 2.10938 230.091 2.10938C230.697 2.10937 231.182 2.34375 231.545 2.69531Z" fill="#597DB3"/>
<path d="M77 3.39844V0H84.2727C88.0303 0 90.8182 2.10938 90.8182 5.625V11.4844C90.8182 13.8281 89.7273 15.4688 87.6667 16.4062C89.9697 17.3438 91.0606 18.9844 91.0606 21.4453V28.3594C91.0606 31.875 88.2727 33.9844 84.6364 33.9844H77V30.4688H77.9697V3.39844H77ZM82.3333 14.7656H84.2727C85.4848 14.7656 86.4545 13.9453 86.4545 12.5391V5.50781C86.4545 4.21875 85.4848 3.39844 84.2727 3.39844H82.3333V14.7656ZM82.3333 18.1641V30.4688H84.3939C85.6061 30.4688 86.5758 29.6484 86.5758 28.2422V20.2734C86.5758 18.9844 85.6061 18.0469 84.3939 18.0469H82.3333V18.1641Z" fill="#597DB3"/>
<path d="M94.2121 17.8125V11.25C95.9091 10.0781 97.9697 9.49219 100.636 9.49219C104.273 9.49219 107.061 11.6016 107.061 15.1172V30.4687H108.03V33.8672H102.697V31.875C101.485 33.3984 99.9091 34.1016 97.9697 34.1016C95.7879 34.1016 94.0909 32.5781 94.0909 30.2344V25.3125C94.0909 21.9141 96.2727 20.1562 99.6667 19.6875L102.697 19.3359V14.8828C102.697 13.5937 101.848 12.6562 100.636 12.6562C99.9091 12.6562 99.1818 12.8906 98.8182 13.125L98.5758 13.2422V17.5781H94.2121V17.8125ZM102.697 22.8516L100.636 23.0859C99.1818 23.2031 98.4545 24.0234 98.4545 25.3125V29.0625C98.4545 30 99.0606 30.7031 99.9091 30.7031C101.364 30.7031 102.697 29.6484 102.697 27.8906V22.8516Z" fill="#597DB3"/>
<path d="M110.576 17.8125V9.72656H123.303V11.7188L115.667 30.4688H120.03V25.7813H123.424V33.8672H110.576V31.875L118.333 13.0078H113.849V17.6953H110.576V17.8125Z" fill="#597DB3"/>
<path d="M126.212 33.8672V30.4688H127.182V13.125H126.212V9.72656H131.545V30.4688H132.515V33.8672H126.212ZM127.303 5.27344V0H131.667V5.27344H127.303Z" fill="#597DB3"/>
<path d="M135.182 3.39844V0H140.515V30.4688H141.485V33.8672H135.182V30.4688H136.152V3.39844H135.182Z" fill="#597DB3"/>
<path d="M157.364 23.0859H148.758V28.4766C148.758 29.8828 149.606 30.7031 150.818 30.7031C152.03 30.7031 153 29.8828 153 28.4766V25.7813H157.364V28.5938C157.364 32.1094 154.576 34.2188 150.818 34.2188C147.182 34.2188 144.394 32.1094 144.394 28.5938V15C144.394 11.4844 147.182 9.375 150.818 9.375C154.455 9.375 157.364 11.4844 157.364 15V23.0859ZM148.758 19.8047H153V15.1172C153 13.7109 152.152 12.8906 150.818 12.8906C149.606 12.8906 148.758 13.7109 148.758 15.1172V19.8047Z" fill="#597DB3"/>
<path d="M169 13.125V9.72656H175.303V13.125H174.091L170.091 33.9844H164.394L160.394 13.125H159.182V9.72656H164.273L167.182 30.3516H167.303L169.848 13.0078H169V13.125Z" fill="#597DB3"/>
<path d="M185.606 13.4766C185 13.0078 184.394 12.8906 183.667 12.8906C182.576 12.8906 181.727 13.7109 181.727 15V17.5781C181.727 18.8672 183.788 19.8047 185.849 20.3906C188.03 20.9766 190.091 22.6172 190.091 25.3125V28.5937C190.091 31.9922 187.303 34.1016 183.667 34.1016C181.364 34.1016 179.061 33.2812 178.091 32.6953L177.364 32.2266V25.7812H181.727V30.1172C182.333 30.5859 182.939 30.7031 183.788 30.7031C185 30.7031 185.849 29.8828 185.849 28.5937V25.3125C185.849 22.2656 177.485 23.4375 177.485 17.4609V14.7656C177.485 11.4844 180.152 9.25781 183.788 9.25781C186.091 9.25781 188.394 10.0781 189.364 10.6641L190.091 11.1328V17.6953H185.727V13.4766H185.606Z" fill="#597DB3"/>
<path d="M193 33.8672V30.4688H193.97V3.39844H193V0H198.333V19.8047H199.667L202.091 13.125H201.242V9.72656H207.545V13.125H206.333L202.818 21.4453L206.455 30.5859H207.667V33.9844H203.182L199.667 23.0859H198.333V30.4688H199.303V33.8672H193Z" fill="#597DB3"/>
<path d="M218.212 13.125V9.72656H223.545V39.4922C223.545 43.0078 220.758 45.1172 217.121 45.1172C214.818 45.1172 212.394 44.4141 211.424 43.7109L210.697 43.2422V37.5H215.061V41.0156C215.667 41.4844 216.273 41.6016 217.121 41.6016C218.212 41.6016 219.182 40.7813 219.182 39.375V31.7578C217.97 33.2813 216.394 33.9844 214.576 33.9844C212.273 33.9844 210.576 32.4609 210.576 30V13.125H209.606V9.72656H214.939V29.0625C214.939 30.1172 215.667 30.7031 216.515 30.7031C218.091 30.7031 219.182 29.6484 219.182 27.8906V13.125H218.212Z" fill="#597DB3"/>
<path d="M226.576 33.8672V30.4688H227.667V13.125H226.576V9.72656H232.03V30.4688H233V33.8672H226.576Z" fill="#597DB3"/>
</g>
<path d="M0.468 29.68C0.468 29.16 0.556 28.652 0.732 28.156C0.916 27.652 1.18 27.196 1.524 26.788C1.876 26.372 2.304 26.044 2.808 25.804C3.312 25.556 3.884 25.432 4.524 25.432C5.284 25.432 5.936 25.608 6.48 25.96C7.024 26.304 7.428 26.748 7.692 27.292L6.84 27.844C6.672 27.484 6.456 27.2 6.192 26.992C5.936 26.776 5.656 26.624 5.352 26.536C5.056 26.448 4.764 26.404 4.476 26.404C4.004 26.404 3.584 26.5 3.216 26.692C2.856 26.884 2.552 27.14 2.304 27.46C2.056 27.78 1.868 28.14 1.74 28.54C1.62 28.932 1.56 29.328 1.56 29.728C1.56 30.168 1.632 30.592 1.776 31C1.928 31.408 2.136 31.768 2.4 32.08C2.664 32.392 2.976 32.64 3.336 32.824C3.696 33.008 4.088 33.1 4.512 33.1C4.808 33.1 5.112 33.048 5.424 32.944C5.736 32.84 6.028 32.68 6.3 32.464C6.572 32.24 6.788 31.952 6.948 31.6L7.848 32.092C7.672 32.516 7.4 32.876 7.032 33.172C6.664 33.468 6.252 33.692 5.796 33.844C5.348 33.996 4.904 34.072 4.464 34.072C3.88 34.072 3.344 33.948 2.856 33.7C2.368 33.444 1.944 33.108 1.584 32.692C1.232 32.268 0.956 31.796 0.756 31.276C0.564 30.748 0.468 30.216 0.468 29.68ZM12.4637 28.66C11.9357 28.668 11.4677 28.804 11.0597 29.068C10.6597 29.324 10.3757 29.68 10.2077 30.136V34H9.15169V27.736H10.1357V29.188C10.3517 28.756 10.6357 28.408 10.9877 28.144C11.3477 27.872 11.7237 27.72 12.1157 27.688C12.1957 27.688 12.2637 27.688 12.3197 27.688C12.3757 27.688 12.4237 27.692 12.4637 27.7V28.66ZM16.2624 34.12C15.7904 34.12 15.3584 34.036 14.9664 33.868C14.5824 33.692 14.2464 33.456 13.9584 33.16C13.6784 32.856 13.4584 32.508 13.2984 32.116C13.1464 31.724 13.0704 31.308 13.0704 30.868C13.0704 30.276 13.2064 29.736 13.4784 29.248C13.7504 28.76 14.1264 28.368 14.6064 28.072C15.0944 27.776 15.6504 27.628 16.2744 27.628C16.9064 27.628 17.4544 27.78 17.9184 28.084C18.3904 28.38 18.7544 28.772 19.0104 29.26C19.2744 29.74 19.4064 30.26 19.4064 30.82C19.4064 30.9 19.4024 30.98 19.3944 31.06C19.3944 31.132 19.3904 31.188 19.3824 31.228H14.1864C14.2184 31.636 14.3304 32 14.5224 32.32C14.7224 32.632 14.9784 32.88 15.2904 33.064C15.6024 33.24 15.9384 33.328 16.2984 33.328C16.6824 33.328 17.0424 33.232 17.3784 33.04C17.7224 32.848 17.9584 32.596 18.0864 32.284L18.9984 32.536C18.8624 32.84 18.6584 33.112 18.3864 33.352C18.1224 33.592 17.8064 33.78 17.4384 33.916C17.0784 34.052 16.6864 34.12 16.2624 34.12ZM14.1504 30.496H18.4224C18.3904 30.088 18.2744 29.728 18.0744 29.416C17.8744 29.104 17.6184 28.86 17.3064 28.684C16.9944 28.508 16.6504 28.42 16.2744 28.42C15.9064 28.42 15.5664 28.508 15.2544 28.684C14.9424 28.86 14.6864 29.104 14.4864 29.416C14.2944 29.728 14.1824 30.088 14.1504 30.496ZM20.2083 32.188C20.2083 31.788 20.3203 31.444 20.5443 31.156C20.7763 30.86 21.0923 30.632 21.4923 30.472C21.8923 30.312 22.3563 30.232 22.8843 30.232C23.1643 30.232 23.4603 30.256 23.7723 30.304C24.0843 30.344 24.3603 30.408 24.6003 30.496V30.04C24.6003 29.56 24.4563 29.184 24.1683 28.912C23.8803 28.632 23.4723 28.492 22.9443 28.492C22.6003 28.492 22.2683 28.556 21.9483 28.684C21.6363 28.804 21.3043 28.98 20.9523 29.212L20.5683 28.468C20.9763 28.188 21.3843 27.98 21.7923 27.844C22.2003 27.7 22.6243 27.628 23.0643 27.628C23.8643 27.628 24.4963 27.852 24.9603 28.3C25.4243 28.74 25.6563 29.356 25.6563 30.148V32.8C25.6563 32.928 25.6803 33.024 25.7283 33.088C25.7843 33.144 25.8723 33.176 25.9923 33.184V34C25.8883 34.016 25.7963 34.028 25.7163 34.036C25.6443 34.044 25.5843 34.048 25.5363 34.048C25.2883 34.048 25.1003 33.98 24.9723 33.844C24.8523 33.708 24.7843 33.564 24.7683 33.412L24.7443 33.016C24.4723 33.368 24.1163 33.64 23.6763 33.832C23.2363 34.024 22.8003 34.12 22.3683 34.12C21.9523 34.12 21.5803 34.036 21.2523 33.868C20.9243 33.692 20.6683 33.46 20.4843 33.172C20.3003 32.876 20.2083 32.548 20.2083 32.188ZM24.2883 32.632C24.3843 32.52 24.4603 32.408 24.5163 32.296C24.5723 32.176 24.6003 32.076 24.6003 31.996V31.216C24.3523 31.12 24.0923 31.048 23.8203 31C23.5483 30.944 23.2803 30.916 23.0163 30.916C22.4803 30.916 22.0443 31.024 21.7083 31.24C21.3803 31.448 21.2163 31.736 21.2163 32.104C21.2163 32.304 21.2683 32.5 21.3723 32.692C21.4843 32.876 21.6443 33.028 21.8523 33.148C22.0683 33.268 22.3323 33.328 22.6443 33.328C22.9723 33.328 23.2843 33.264 23.5803 33.136C23.8763 33 24.1123 32.832 24.2883 32.632ZM30.6579 33.688C30.5699 33.728 30.4499 33.78 30.2979 33.844C30.1459 33.908 29.9699 33.964 29.7699 34.012C29.5699 34.06 29.3579 34.084 29.1339 34.084C28.8779 34.084 28.6419 34.04 28.4259 33.952C28.2099 33.856 28.0379 33.712 27.9099 33.52C27.7819 33.32 27.7179 33.072 27.7179 32.776V28.564H26.8659V27.736H27.7179V25.648H28.7739V27.736H30.1779V28.564H28.7739V32.452C28.7899 32.676 28.8659 32.844 29.0019 32.956C29.1379 33.06 29.2979 33.112 29.4819 33.112C29.6899 33.112 29.8819 33.076 30.0579 33.004C30.2339 32.932 30.3499 32.88 30.4059 32.848L30.6579 33.688ZM34.4467 34.12C33.9747 34.12 33.5427 34.036 33.1507 33.868C32.7667 33.692 32.4307 33.456 32.1427 33.16C31.8627 32.856 31.6427 32.508 31.4827 32.116C31.3307 31.724 31.2547 31.308 31.2547 30.868C31.2547 30.276 31.3907 29.736 31.6627 29.248C31.9347 28.76 32.3107 28.368 32.7907 28.072C33.2787 27.776 33.8347 27.628 34.4587 27.628C35.0907 27.628 35.6387 27.78 36.1027 28.084C36.5747 28.38 36.9387 28.772 37.1947 29.26C37.4587 29.74 37.5907 30.26 37.5907 30.82C37.5907 30.9 37.5867 30.98 37.5787 31.06C37.5787 31.132 37.5747 31.188 37.5667 31.228H32.3707C32.4027 31.636 32.5147 32 32.7067 32.32C32.9067 32.632 33.1627 32.88 33.4747 33.064C33.7867 33.24 34.1227 33.328 34.4827 33.328C34.8667 33.328 35.2267 33.232 35.5627 33.04C35.9067 32.848 36.1427 32.596 36.2707 32.284L37.1827 32.536C37.0467 32.84 36.8427 33.112 36.5707 33.352C36.3067 33.592 35.9907 33.78 35.6227 33.916C35.2627 34.052 34.8707 34.12 34.4467 34.12ZM32.3347 30.496H36.6067C36.5747 30.088 36.4587 29.728 36.2587 29.416C36.0587 29.104 35.8027 28.86 35.4907 28.684C35.1787 28.508 34.8347 28.42 34.4587 28.42C34.0907 28.42 33.7507 28.508 33.4387 28.684C33.1267 28.86 32.8707 29.104 32.6707 29.416C32.4787 29.728 32.3667 30.088 32.3347 30.496ZM38.4765 30.88C38.4765 30.288 38.5965 29.748 38.8365 29.26C39.0845 28.764 39.4205 28.368 39.8445 28.072C40.2765 27.776 40.7685 27.628 41.3205 27.628C41.8245 27.628 42.2765 27.76 42.6765 28.024C43.0765 28.288 43.3885 28.608 43.6125 28.984V25.24H44.6685V32.8C44.6685 32.928 44.6925 33.024 44.7405 33.088C44.7965 33.144 44.8845 33.176 45.0045 33.184V34C44.8045 34.032 44.6485 34.048 44.5365 34.048C44.3285 34.048 44.1445 33.976 43.9845 33.832C43.8325 33.688 43.7565 33.528 43.7565 33.352V32.824C43.5085 33.224 43.1765 33.54 42.7605 33.772C42.3445 34.004 41.9125 34.12 41.4645 34.12C41.0325 34.12 40.6325 34.036 40.2645 33.868C39.9045 33.692 39.5885 33.452 39.3165 33.148C39.0525 32.844 38.8445 32.5 38.6925 32.116C38.5485 31.724 38.4765 31.312 38.4765 30.88ZM43.6125 31.804V30.004C43.5165 29.732 43.3605 29.488 43.1445 29.272C42.9285 29.048 42.6845 28.872 42.4125 28.744C42.1485 28.608 41.8845 28.54 41.6205 28.54C41.3085 28.54 41.0245 28.608 40.7685 28.744C40.5205 28.872 40.3045 29.048 40.1205 29.272C39.9445 29.488 39.8085 29.736 39.7125 30.016C39.6165 30.296 39.5685 30.588 39.5685 30.892C39.5685 31.204 39.6205 31.5 39.7245 31.78C39.8365 32.06 39.9885 32.308 40.1805 32.524C40.3805 32.74 40.6085 32.908 40.8645 33.028C41.1285 33.148 41.4125 33.208 41.7165 33.208C41.9085 33.208 42.1045 33.172 42.3045 33.1C42.5125 33.028 42.7085 32.928 42.8925 32.8C43.0765 32.672 43.2325 32.524 43.3605 32.356C43.4885 32.18 43.5725 31.996 43.6125 31.804ZM52.9225 34.12C52.4345 34.12 51.9905 34 51.5905 33.76C51.1905 33.52 50.8745 33.208 50.6425 32.824V34H49.7065V25.24H50.7625V28.984C51.0265 28.576 51.3505 28.248 51.7345 28C52.1185 27.752 52.5665 27.628 53.0785 27.628C53.5105 27.628 53.8985 27.72 54.2425 27.904C54.5865 28.08 54.8785 28.324 55.1185 28.636C55.3665 28.94 55.5545 29.288 55.6825 29.68C55.8185 30.064 55.8865 30.468 55.8865 30.892C55.8865 31.332 55.8105 31.748 55.6585 32.14C55.5145 32.524 55.3065 32.868 55.0345 33.172C54.7625 33.468 54.4465 33.7 54.0865 33.868C53.7345 34.036 53.3465 34.12 52.9225 34.12ZM52.6585 33.208C52.9705 33.208 53.2585 33.144 53.5225 33.016C53.7865 32.888 54.0145 32.716 54.2065 32.5C54.3985 32.284 54.5465 32.036 54.6505 31.756C54.7545 31.476 54.8065 31.188 54.8065 30.892C54.8065 30.484 54.7185 30.1 54.5425 29.74C54.3745 29.38 54.1345 29.092 53.8225 28.876C53.5185 28.652 53.1625 28.54 52.7545 28.54C52.4585 28.54 52.1825 28.608 51.9265 28.744C51.6705 28.88 51.4425 29.06 51.2425 29.284C51.0505 29.5 50.8905 29.74 50.7625 30.004V31.816C50.8025 32.016 50.8865 32.2 51.0145 32.368C51.1425 32.536 51.2985 32.684 51.4825 32.812C51.6665 32.932 51.8585 33.028 52.0585 33.1C52.2665 33.172 52.4665 33.208 52.6585 33.208ZM57.3802 35.704C57.4842 35.712 57.5882 35.72 57.6922 35.728C57.7962 35.744 57.8762 35.752 57.9322 35.752C58.0602 35.752 58.1722 35.708 58.2682 35.62C58.3642 35.532 58.4682 35.36 58.5802 35.104C58.7002 34.856 58.8522 34.488 59.0362 34L56.3842 27.736H57.5002L59.6122 32.932L61.5202 27.736H62.5642L59.5162 35.644C59.4442 35.828 59.3362 36 59.1922 36.16C59.0562 36.328 58.8802 36.46 58.6642 36.556C58.4482 36.652 58.1882 36.7 57.8842 36.7C57.8122 36.7 57.7362 36.696 57.6562 36.688C57.5842 36.68 57.4922 36.664 57.3802 36.64V35.704Z" fill="#597DB3"/>
<defs>
<clipPath id="clip0">
<rect width="156" height="45" fill="white" transform="translate(77)"/>
</clipPath>
</defs>
</svg>
