<svg width="274" height="33" viewBox="0 0 274 33" fill="none" xmlns="http://www.w3.org/2000/svg">
<path opacity="0.2" d="M0.546 23.96C0.546 23.3533 0.648667 22.7607 0.854 22.182C1.06867 21.594 1.37667 21.062 1.778 20.586C2.18867 20.1007 2.688 19.718 3.276 19.438C3.864 19.1487 4.53133 19.004 5.278 19.004C6.16467 19.004 6.92533 19.2093 7.56 19.62C8.19467 20.0213 8.666 20.5393 8.974 21.174L7.98 21.818C7.784 21.398 7.532 21.0667 7.224 20.824C6.92533 20.572 6.59867 20.3947 6.244 20.292C5.89867 20.1893 5.558 20.138 5.222 20.138C4.67133 20.138 4.18133 20.25 3.752 20.474C3.332 20.698 2.97733 20.9967 2.688 21.37C2.39867 21.7433 2.17933 22.1633 2.03 22.63C1.89 23.0873 1.82 23.5493 1.82 24.016C1.82 24.5293 1.904 25.024 2.072 25.5C2.24933 25.976 2.492 26.396 2.8 26.76C3.108 27.124 3.472 27.4133 3.892 27.628C4.312 27.8427 4.76933 27.95 5.264 27.95C5.60933 27.95 5.964 27.8893 6.328 27.768C6.692 27.6467 7.03267 27.46 7.35 27.208C7.66733 26.9467 7.91933 26.6107 8.106 26.2L9.156 26.774C8.95067 27.2687 8.63333 27.6887 8.204 28.034C7.77467 28.3793 7.294 28.6407 6.762 28.818C6.23933 28.9953 5.72133 29.084 5.208 29.084C4.52667 29.084 3.90133 28.9393 3.332 28.65C2.76267 28.3513 2.268 27.9593 1.848 27.474C1.43733 26.9793 1.11533 26.4287 0.882 25.822C0.658 25.206 0.546 24.5853 0.546 23.96ZM14.401 22.77C13.785 22.7793 13.239 22.938 12.763 23.246C12.2963 23.5447 11.965 23.96 11.769 24.492V29H10.537V21.692H11.685V23.386C11.937 22.882 12.2683 22.476 12.679 22.168C13.099 21.8507 13.5376 21.6733 13.995 21.636C14.0883 21.636 14.1676 21.636 14.233 21.636C14.2983 21.636 14.3543 21.6407 14.401 21.65V22.77ZM18.6792 29.14C18.1285 29.14 17.6245 29.042 17.1672 28.846C16.7192 28.6407 16.3272 28.3653 15.9912 28.02C15.6645 27.6653 15.4078 27.2593 15.2212 26.802C15.0438 26.3447 14.9552 25.8593 14.9552 25.346C14.9552 24.6553 15.1138 24.0253 15.4312 23.456C15.7485 22.8867 16.1872 22.4293 16.7472 22.084C17.3165 21.7387 17.9652 21.566 18.6932 21.566C19.4305 21.566 20.0698 21.7433 20.6112 22.098C21.1618 22.4433 21.5865 22.9007 21.8852 23.47C22.1932 24.03 22.3472 24.6367 22.3472 25.29C22.3472 25.3833 22.3425 25.4767 22.3332 25.57C22.3332 25.654 22.3285 25.7193 22.3192 25.766H16.2572C16.2945 26.242 16.4252 26.6667 16.6492 27.04C16.8825 27.404 17.1812 27.6933 17.5452 27.908C17.9092 28.1133 18.3012 28.216 18.7212 28.216C19.1692 28.216 19.5892 28.104 19.9812 27.88C20.3825 27.656 20.6578 27.362 20.8072 26.998L21.8712 27.292C21.7125 27.6467 21.4745 27.964 21.1572 28.244C20.8492 28.524 20.4805 28.7433 20.0512 28.902C19.6312 29.0607 19.1738 29.14 18.6792 29.14ZM16.2152 24.912H21.1992C21.1618 24.436 21.0265 24.016 20.7932 23.652C20.5598 23.288 20.2612 23.0033 19.8972 22.798C19.5332 22.5927 19.1318 22.49 18.6932 22.49C18.2638 22.49 17.8672 22.5927 17.5032 22.798C17.1392 23.0033 16.8405 23.288 16.6072 23.652C16.3832 24.016 16.2525 24.436 16.2152 24.912ZM23.1427 26.886C23.1427 26.4193 23.2733 26.018 23.5347 25.682C23.8053 25.3367 24.174 25.0707 24.6407 24.884C25.1073 24.6973 25.6487 24.604 26.2647 24.604C26.5913 24.604 26.9367 24.632 27.3007 24.688C27.6647 24.7347 27.9867 24.8093 28.2667 24.912V24.38C28.2667 23.82 28.0987 23.3813 27.7627 23.064C27.4267 22.7373 26.9507 22.574 26.3347 22.574C25.9333 22.574 25.546 22.6487 25.1727 22.798C24.8087 22.938 24.4213 23.1433 24.0107 23.414L23.5627 22.546C24.0387 22.2193 24.5147 21.9767 24.9907 21.818C25.4667 21.65 25.9613 21.566 26.4747 21.566C27.408 21.566 28.1453 21.8273 28.6867 22.35C29.228 22.8633 29.4987 23.582 29.4987 24.506V27.6C29.4987 27.7493 29.5267 27.8613 29.5827 27.936C29.648 28.0013 29.7507 28.0387 29.8907 28.048V29C29.7693 29.0187 29.662 29.0327 29.5687 29.042C29.4847 29.0513 29.4147 29.056 29.3587 29.056C29.0693 29.056 28.85 28.9767 28.7007 28.818C28.5607 28.6593 28.4813 28.4913 28.4627 28.314L28.4347 27.852C28.1173 28.2627 27.702 28.58 27.1887 28.804C26.6753 29.028 26.1667 29.14 25.6627 29.14C25.1773 29.14 24.7433 29.042 24.3607 28.846C23.978 28.6407 23.6793 28.37 23.4647 28.034C23.25 27.6887 23.1427 27.306 23.1427 26.886ZM27.9027 27.404C28.0147 27.2733 28.1033 27.1427 28.1687 27.012C28.234 26.872 28.2667 26.7553 28.2667 26.662V25.752C27.9773 25.64 27.674 25.556 27.3567 25.5C27.0393 25.4347 26.7267 25.402 26.4187 25.402C25.7933 25.402 25.2847 25.528 24.8927 25.78C24.51 26.0227 24.3187 26.3587 24.3187 26.788C24.3187 27.0213 24.3793 27.25 24.5007 27.474C24.6313 27.6887 24.818 27.866 25.0607 28.006C25.3127 28.146 25.6207 28.216 25.9847 28.216C26.3673 28.216 26.7313 28.1413 27.0767 27.992C27.422 27.8333 27.6973 27.6373 27.9027 27.404ZM35.1939 28.636C35.0913 28.6827 34.9513 28.7433 34.7739 28.818C34.5966 28.8927 34.3913 28.958 34.1579 29.014C33.9246 29.07 33.6773 29.098 33.4159 29.098C33.1173 29.098 32.8419 29.0467 32.5899 28.944C32.3379 28.832 32.1373 28.664 31.9879 28.44C31.8386 28.2067 31.7639 27.9173 31.7639 27.572V22.658H30.7699V21.692H31.7639V19.256H32.9959V21.692H34.6339V22.658H32.9959V27.194C33.0146 27.4553 33.1033 27.6513 33.2619 27.782C33.4206 27.9033 33.6073 27.964 33.8219 27.964C34.0646 27.964 34.2886 27.922 34.4939 27.838C34.6993 27.754 34.8346 27.6933 34.8999 27.656L35.1939 28.636ZM39.4741 29.14C38.9234 29.14 38.4194 29.042 37.9621 28.846C37.5141 28.6407 37.1221 28.3653 36.7861 28.02C36.4594 27.6653 36.2028 27.2593 36.0161 26.802C35.8388 26.3447 35.7501 25.8593 35.7501 25.346C35.7501 24.6553 35.9088 24.0253 36.2261 23.456C36.5434 22.8867 36.9821 22.4293 37.5421 22.084C38.1114 21.7387 38.7601 21.566 39.4881 21.566C40.2254 21.566 40.8648 21.7433 41.4061 22.098C41.9568 22.4433 42.3814 22.9007 42.6801 23.47C42.9881 24.03 43.1421 24.6367 43.1421 25.29C43.1421 25.3833 43.1374 25.4767 43.1281 25.57C43.1281 25.654 43.1234 25.7193 43.1141 25.766H37.0521C37.0894 26.242 37.2201 26.6667 37.4441 27.04C37.6774 27.404 37.9761 27.6933 38.3401 27.908C38.7041 28.1133 39.0961 28.216 39.5161 28.216C39.9641 28.216 40.3841 28.104 40.7761 27.88C41.1774 27.656 41.4528 27.362 41.6021 26.998L42.6661 27.292C42.5074 27.6467 42.2694 27.964 41.9521 28.244C41.6441 28.524 41.2754 28.7433 40.8461 28.902C40.4261 29.0607 39.9688 29.14 39.4741 29.14ZM37.0101 24.912H41.9941C41.9568 24.436 41.8214 24.016 41.5881 23.652C41.3548 23.288 41.0561 23.0033 40.6921 22.798C40.3281 22.5927 39.9268 22.49 39.4881 22.49C39.0588 22.49 38.6621 22.5927 38.2981 22.798C37.9341 23.0033 37.6354 23.288 37.4021 23.652C37.1781 24.016 37.0474 24.436 37.0101 24.912ZM44.0356 25.36C44.0356 24.6693 44.1756 24.0393 44.4556 23.47C44.7449 22.8913 45.1369 22.4293 45.6316 22.084C46.1356 21.7387 46.7096 21.566 47.3536 21.566C47.9416 21.566 48.4689 21.72 48.9356 22.028C49.4022 22.336 49.7662 22.7093 50.0276 23.148V18.78H51.2596V27.6C51.2596 27.7493 51.2876 27.8613 51.3436 27.936C51.4089 28.0013 51.5116 28.0387 51.6516 28.048V29C51.4182 29.0373 51.2362 29.056 51.1056 29.056C50.8629 29.056 50.6482 28.972 50.4616 28.804C50.2842 28.636 50.1956 28.4493 50.1956 28.244V27.628C49.9062 28.0947 49.5189 28.4633 49.0336 28.734C48.5482 29.0047 48.0442 29.14 47.5216 29.14C47.0176 29.14 46.5509 29.042 46.1216 28.846C45.7016 28.6407 45.3329 28.3607 45.0156 28.006C44.7076 27.6513 44.4649 27.25 44.2876 26.802C44.1196 26.3447 44.0356 25.864 44.0356 25.36ZM50.0276 26.438V24.338C49.9156 24.0207 49.7336 23.736 49.4816 23.484C49.2296 23.2227 48.9449 23.0173 48.6276 22.868C48.3196 22.7093 48.0116 22.63 47.7036 22.63C47.3396 22.63 47.0082 22.7093 46.7096 22.868C46.4202 23.0173 46.1682 23.2227 45.9536 23.484C45.7482 23.736 45.5896 24.0253 45.4776 24.352C45.3656 24.6787 45.3096 25.0193 45.3096 25.374C45.3096 25.738 45.3702 26.0833 45.4916 26.41C45.6222 26.7367 45.7996 27.026 46.0236 27.278C46.2569 27.53 46.5229 27.726 46.8216 27.866C47.1296 28.006 47.4609 28.076 47.8156 28.076C48.0396 28.076 48.2682 28.034 48.5016 27.95C48.7442 27.866 48.9729 27.7493 49.1876 27.6C49.4022 27.4507 49.5842 27.278 49.7336 27.082C49.8829 26.8767 49.9809 26.662 50.0276 26.438ZM60.6093 29.14C60.0399 29.14 59.5219 29 59.0553 28.72C58.5886 28.44 58.2199 28.076 57.9493 27.628V29H56.8573V18.78H58.0893V23.148C58.3973 22.672 58.7753 22.2893 59.2233 22C59.6713 21.7107 60.1939 21.566 60.7913 21.566C61.2953 21.566 61.7479 21.6733 62.1493 21.888C62.5506 22.0933 62.8913 22.378 63.1713 22.742C63.4606 23.0967 63.6799 23.5027 63.8293 23.96C63.9879 24.408 64.0673 24.8793 64.0673 25.374C64.0673 25.8873 63.9786 26.3727 63.8013 26.83C63.6333 27.278 63.3906 27.6793 63.0733 28.034C62.7559 28.3793 62.3873 28.65 61.9673 28.846C61.5566 29.042 61.1039 29.14 60.6093 29.14ZM60.3013 28.076C60.6653 28.076 61.0013 28.0013 61.3093 27.852C61.6173 27.7027 61.8833 27.502 62.1073 27.25C62.3313 26.998 62.5039 26.7087 62.6253 26.382C62.7466 26.0553 62.8073 25.7193 62.8073 25.374C62.8073 24.898 62.7046 24.45 62.4993 24.03C62.3033 23.61 62.0233 23.274 61.6593 23.022C61.3046 22.7607 60.8893 22.63 60.4133 22.63C60.0679 22.63 59.7459 22.7093 59.4473 22.868C59.1486 23.0267 58.8826 23.2367 58.6493 23.498C58.4253 23.75 58.2386 24.03 58.0893 24.338V26.452C58.1359 26.6853 58.2339 26.9 58.3833 27.096C58.5326 27.292 58.7146 27.4647 58.9293 27.614C59.1439 27.754 59.3679 27.866 59.6013 27.95C59.8439 28.034 60.0773 28.076 60.3013 28.076ZM65.6698 30.988C65.7912 30.9973 65.9125 31.0067 66.0338 31.016C66.1552 31.0347 66.2485 31.044 66.3138 31.044C66.4632 31.044 66.5938 30.9927 66.7058 30.89C66.8178 30.7873 66.9392 30.5867 67.0698 30.288C67.2098 29.9987 67.3872 29.5693 67.6018 29L64.5078 21.692H65.8098L68.2738 27.754L70.4998 21.692H71.7178L68.1618 30.918C68.0778 31.1327 67.9518 31.3333 67.7838 31.52C67.6252 31.716 67.4198 31.87 67.1678 31.982C66.9158 32.094 66.6125 32.15 66.2578 32.15C66.1738 32.15 66.0852 32.1453 65.9918 32.136C65.9078 32.1267 65.8005 32.108 65.6698 32.08V30.988ZM72.8648 23.316V21.748H73.8868V23.316H72.8648ZM72.8648 29V27.432H73.8868V29H72.8648Z" fill="white"/>
<g opacity="0.2">
<path d="M232.125 32.1356C231.344 32.1356 230.684 31.9636 230.147 31.6267C229.609 31.2898 229.229 30.8167 229 30.2002L230.541 29.3043C230.856 30.0282 231.401 30.3866 232.183 30.3866C232.892 30.3866 233.243 30.1716 233.243 29.7487C233.243 29.5121 233.129 29.3329 232.899 29.2111C232.663 29.0677 232.24 28.9172 231.623 28.7523C231 28.5803 230.469 28.3366 230.039 28.014C229.566 27.627 229.323 27.0822 229.323 26.3726C229.323 25.6486 229.581 25.0752 230.09 24.6451C230.613 24.215 231.229 24 231.946 24C232.584 24 233.15 24.1505 233.645 24.4516C234.139 24.7526 234.526 25.1899 234.806 25.7633L233.301 26.645C233.014 26.0429 232.57 25.7418 231.953 25.7418C231.695 25.7418 231.487 25.7991 231.337 25.9067C231.186 26.0214 231.115 26.1575 231.115 26.3296C231.115 26.5159 231.201 26.6808 231.38 26.8313C231.573 26.9819 231.953 27.1395 232.519 27.2972L233.243 27.5338C233.43 27.5911 233.645 27.6915 233.889 27.8348C234.154 27.971 234.354 28.1144 234.491 28.2721C234.849 28.6591 235.028 29.1394 235.028 29.72C235.028 30.4583 234.763 31.0461 234.225 31.4833C233.688 31.9205 232.985 32.1356 232.125 32.1356Z" fill="white"/>
<path d="M236.197 24.1648H242.003V25.8851H239.996V31.9778H238.211V25.8851H236.204V24.1648H236.197Z" fill="white"/>
<path d="M243.845 29.4547V24.1648H245.63V29.3042C245.63 30.0353 246.038 30.4009 246.855 30.4009C247.672 30.4009 248.081 30.0353 248.081 29.3042V24.1648H249.866V29.4547C249.866 30.279 249.586 30.9313 249.02 31.4116C248.447 31.899 247.723 32.1355 246.855 32.1355C245.988 32.1355 245.264 31.8918 244.691 31.4116C244.131 30.9313 243.845 30.279 243.845 29.4547Z" fill="white"/>
<path d="M252.274 24.1648H255.399C256.475 24.1648 257.371 24.5375 258.102 25.2902C258.833 26.0428 259.199 26.9675 259.199 28.0713C259.199 29.1823 258.833 30.1142 258.102 30.8596C257.378 31.6051 256.482 31.9778 255.399 31.9778H252.274V24.1648ZM254.066 30.2575H255.407C256.023 30.2575 256.525 30.064 256.905 29.6626C257.292 29.2684 257.485 28.7379 257.485 28.0641C257.485 27.3904 257.292 26.8671 256.905 26.48C256.525 26.0786 256.023 25.8779 255.407 25.8779H254.066V30.2575Z" fill="white"/>
<path d="M261.32 31.9778V24.1648H263.105V31.9778H261.32Z" fill="white"/>
<path d="M272.172 30.9602C271.384 31.7415 270.423 32.1357 269.291 32.1357C268.158 32.1357 267.198 31.7415 266.409 30.9602C265.621 30.1789 265.227 29.2112 265.227 28.0715C265.227 26.9318 265.621 25.9642 266.409 25.1829C267.198 24.4016 268.158 24.0073 269.291 24.0073C270.423 24.0073 271.384 24.4016 272.172 25.1829C272.961 25.9642 273.355 26.9318 273.355 28.0715C273.355 29.2112 272.961 30.1789 272.172 30.9602ZM267.019 28.0715C267.019 28.7597 267.234 29.3116 267.664 29.7488C268.094 30.1789 268.639 30.3939 269.291 30.3939C269.936 30.3939 270.481 30.1789 270.911 29.7488C271.348 29.3116 271.57 28.7525 271.57 28.0715C271.57 27.3906 271.348 26.8387 270.911 26.3942C270.481 25.9642 269.936 25.7491 269.291 25.7491C268.639 25.7491 268.094 25.9642 267.664 26.3942C267.234 26.8243 267.019 27.3834 267.019 28.0715Z" fill="white"/>
<path d="M192 0L178.395 32H169.557L156 0H165.702L174.316 20.8466L183.114 0H192Z" fill="white"/>
<path d="M114.198 21.9434C116.175 20.97 117.7 19.6195 118.766 17.8989C119.833 16.1782 120.366 14.156 120.366 11.8389C120.366 9.43273 119.799 7.33505 118.658 5.5527C117.518 3.77035 115.899 2.39931 113.8 1.43959C111.701 0.479863 109.225 0 106.377 0H90L94.818 7.12939H100.884H102.706H105.837C107.666 7.12939 109.049 7.5407 109.981 8.36333C110.912 9.18595 111.377 10.3445 111.377 11.8389C111.377 13.3333 110.912 14.485 109.981 15.2939C109.049 16.1028 107.673 16.5073 105.837 16.5073H101.094L111.458 32H121L114.198 21.9434Z" fill="white"/>
<path d="M208 7.5407C212.662 7.5407 216.459 11.3385 216.459 16C216.459 20.6615 212.662 24.4593 208 24.4593C203.338 24.4593 199.541 20.6615 199.541 16C199.541 11.3385 203.332 7.54071 207.993 7.54071L208 7.5407ZM208 0C199.164 0 192 7.16367 192 16C192 24.8363 199.164 32 208 32C216.836 32 224 24.8363 224 16C224 7.16367 216.836 0 208 0Z" fill="white"/>
<path d="M152 7.83548V0H125V2.46787V7.83548V12.3873V21.7789V32H152V24.3291H134.156V21.7789V20.0925H147.285V12.3873H134.156V7.83548H152Z" fill="white"/>
<rect x="90" y="23" width="9" height="9" fill="white"/>
</g>
</svg>
