<svg width="265" height="305" viewBox="0 0 265 305" fill="none" xmlns="http://www.w3.org/2000/svg">
<g opacity="0.17">
<circle cx="102.5" cy="2.5" r="2.5" transform="rotate(90 102.5 2.5)" fill="#2E3A87"/>
<circle cx="102.5" cy="22.5" r="2.5" transform="rotate(90 102.5 22.5)" fill="#2E3A87"/>
<circle cx="102.5" cy="42.5" r="2.5" transform="rotate(90 102.5 42.5)" fill="#2E3A87"/>
<circle cx="102.5" cy="62.5" r="2.5" transform="rotate(90 102.5 62.5)" fill="#2E3A87"/>
<circle cx="102.5" cy="82.5" r="2.5" transform="rotate(90 102.5 82.5)" fill="#2E3A87"/>
<circle cx="102.5" cy="102.5" r="2.5" transform="rotate(90 102.5 102.5)" fill="#2E3A87"/>
<circle cx="102.5" cy="122.5" r="2.5" transform="rotate(90 102.5 122.5)" fill="#2E3A87"/>
<circle cx="102.5" cy="142.5" r="2.5" transform="rotate(90 102.5 142.5)" fill="#2E3A87"/>
<circle cx="102.5" cy="162.5" r="2.5" transform="rotate(90 102.5 162.5)" fill="#2E3A87"/>
<circle cx="102.5" cy="182.5" r="2.5" transform="rotate(90 102.5 182.5)" fill="#2E3A87"/>
<circle cx="102.5" cy="202.5" r="2.5" transform="rotate(90 102.5 202.5)" fill="#2E3A87"/>
<circle cx="102.5" cy="222.5" r="2.5" transform="rotate(90 102.5 222.5)" fill="#2E3A87"/>
<circle cx="102.5" cy="242.5" r="2.5" transform="rotate(90 102.5 242.5)" fill="#2E3A87"/>
<circle cx="102.5" cy="262.5" r="2.5" transform="rotate(90 102.5 262.5)" fill="#2E3A87"/>
<circle cx="102.5" cy="282.5" r="2.5" transform="rotate(90 102.5 282.5)" fill="#2E3A87"/>
<circle cx="102.5" cy="302.5" r="2.5" transform="rotate(90 102.5 302.5)" fill="#2E3A87"/>
<circle cx="82.5" cy="2.5" r="2.5" transform="rotate(90 82.5 2.5)" fill="#2E3A87"/>
<circle cx="82.5" cy="22.5" r="2.5" transform="rotate(90 82.5 22.5)" fill="#2E3A87"/>
<circle cx="82.5" cy="42.5" r="2.5" transform="rotate(90 82.5 42.5)" fill="#2E3A87"/>
<circle cx="82.5" cy="62.5" r="2.5" transform="rotate(90 82.5 62.5)" fill="#2E3A87"/>
<circle cx="82.5" cy="82.5" r="2.5" transform="rotate(90 82.5 82.5)" fill="#2E3A87"/>
<circle cx="82.5" cy="102.5" r="2.5" transform="rotate(90 82.5 102.5)" fill="#2E3A87"/>
<circle cx="82.5" cy="122.5" r="2.5" transform="rotate(90 82.5 122.5)" fill="#2E3A87"/>
<circle cx="82.5" cy="142.5" r="2.5" transform="rotate(90 82.5 142.5)" fill="#2E3A87"/>
<circle cx="82.5" cy="162.5" r="2.5" transform="rotate(90 82.5 162.5)" fill="#2E3A87"/>
<circle cx="82.5" cy="182.5" r="2.5" transform="rotate(90 82.5 182.5)" fill="#2E3A87"/>
<circle cx="82.5" cy="202.5" r="2.5" transform="rotate(90 82.5 202.5)" fill="#2E3A87"/>
<circle cx="82.5" cy="222.5" r="2.5" transform="rotate(90 82.5 222.5)" fill="#2E3A87"/>
<circle cx="82.5" cy="242.5" r="2.5" transform="rotate(90 82.5 242.5)" fill="#2E3A87"/>
<circle cx="82.5" cy="262.5" r="2.5" transform="rotate(90 82.5 262.5)" fill="#2E3A87"/>
<circle cx="82.5" cy="282.5" r="2.5" transform="rotate(90 82.5 282.5)" fill="#2E3A87"/>
<circle cx="82.5" cy="302.5" r="2.5" transform="rotate(90 82.5 302.5)" fill="#2E3A87"/>
<circle cx="62.5" cy="2.5" r="2.5" transform="rotate(90 62.5 2.5)" fill="#2E3A87"/>
<circle cx="62.5" cy="22.5" r="2.5" transform="rotate(90 62.5 22.5)" fill="#2E3A87"/>
<circle cx="62.5" cy="42.5" r="2.5" transform="rotate(90 62.5 42.5)" fill="#2E3A87"/>
<circle cx="62.5" cy="62.5" r="2.5" transform="rotate(90 62.5 62.5)" fill="#2E3A87"/>
<circle cx="62.5" cy="82.5" r="2.5" transform="rotate(90 62.5 82.5)" fill="#2E3A87"/>
<circle cx="62.5" cy="102.5" r="2.5" transform="rotate(90 62.5 102.5)" fill="#2E3A87"/>
<circle cx="62.5" cy="122.5" r="2.5" transform="rotate(90 62.5 122.5)" fill="#2E3A87"/>
<circle cx="62.5" cy="142.5" r="2.5" transform="rotate(90 62.5 142.5)" fill="#2E3A87"/>
<circle cx="62.5" cy="162.5" r="2.5" transform="rotate(90 62.5 162.5)" fill="#2E3A87"/>
<circle cx="62.5" cy="182.5" r="2.5" transform="rotate(90 62.5 182.5)" fill="#2E3A87"/>
<circle cx="62.5" cy="202.5" r="2.5" transform="rotate(90 62.5 202.5)" fill="#2E3A87"/>
<circle cx="62.5" cy="222.5" r="2.5" transform="rotate(90 62.5 222.5)" fill="#2E3A87"/>
<circle cx="62.5" cy="242.5" r="2.5" transform="rotate(90 62.5 242.5)" fill="#2E3A87"/>
<circle cx="62.5" cy="262.5" r="2.5" transform="rotate(90 62.5 262.5)" fill="#2E3A87"/>
<circle cx="62.5" cy="282.5" r="2.5" transform="rotate(90 62.5 282.5)" fill="#2E3A87"/>
<circle cx="62.5" cy="302.5" r="2.5" transform="rotate(90 62.5 302.5)" fill="#2E3A87"/>
<circle cx="42.5" cy="2.5" r="2.5" transform="rotate(90 42.5 2.5)" fill="#2E3A87"/>
<circle cx="42.5" cy="22.5" r="2.5" transform="rotate(90 42.5 22.5)" fill="#2E3A87"/>
<circle cx="42.5" cy="42.5" r="2.5" transform="rotate(90 42.5 42.5)" fill="#2E3A87"/>
<circle cx="42.5" cy="62.5" r="2.5" transform="rotate(90 42.5 62.5)" fill="#2E3A87"/>
<circle cx="42.5" cy="82.5" r="2.5" transform="rotate(90 42.5 82.5)" fill="#2E3A87"/>
<circle cx="42.5" cy="102.5" r="2.5" transform="rotate(90 42.5 102.5)" fill="#2E3A87"/>
<circle cx="42.5" cy="122.5" r="2.5" transform="rotate(90 42.5 122.5)" fill="#2E3A87"/>
<circle cx="42.5" cy="142.5" r="2.5" transform="rotate(90 42.5 142.5)" fill="#2E3A87"/>
<circle cx="42.5" cy="162.5" r="2.5" transform="rotate(90 42.5 162.5)" fill="#2E3A87"/>
<circle cx="42.5" cy="182.5" r="2.5" transform="rotate(90 42.5 182.5)" fill="#2E3A87"/>
<circle cx="42.5" cy="202.5" r="2.5" transform="rotate(90 42.5 202.5)" fill="#2E3A87"/>
<circle cx="42.5" cy="222.5" r="2.5" transform="rotate(90 42.5 222.5)" fill="#2E3A87"/>
<circle cx="42.5" cy="242.5" r="2.5" transform="rotate(90 42.5 242.5)" fill="#2E3A87"/>
<circle cx="42.5" cy="262.5" r="2.5" transform="rotate(90 42.5 262.5)" fill="#2E3A87"/>
<circle cx="42.5" cy="282.5" r="2.5" transform="rotate(90 42.5 282.5)" fill="#2E3A87"/>
<circle cx="42.5" cy="302.5" r="2.5" transform="rotate(90 42.5 302.5)" fill="#2E3A87"/>
<circle cx="22.5" cy="2.5" r="2.5" transform="rotate(90 22.5 2.5)" fill="#2E3A87"/>
<circle cx="22.5" cy="22.5" r="2.5" transform="rotate(90 22.5 22.5)" fill="#2E3A87"/>
<circle cx="22.5" cy="42.5" r="2.5" transform="rotate(90 22.5 42.5)" fill="#2E3A87"/>
<circle cx="22.5" cy="62.5" r="2.5" transform="rotate(90 22.5 62.5)" fill="#2E3A87"/>
<circle cx="22.5" cy="82.5" r="2.5" transform="rotate(90 22.5 82.5)" fill="#2E3A87"/>
<circle cx="22.5" cy="102.5" r="2.5" transform="rotate(90 22.5 102.5)" fill="#2E3A87"/>
<circle cx="22.5" cy="122.5" r="2.5" transform="rotate(90 22.5 122.5)" fill="#2E3A87"/>
<circle cx="22.5" cy="142.5" r="2.5" transform="rotate(90 22.5 142.5)" fill="#2E3A87"/>
<circle cx="22.5" cy="162.5" r="2.5" transform="rotate(90 22.5 162.5)" fill="#2E3A87"/>
<circle cx="22.5" cy="182.5" r="2.5" transform="rotate(90 22.5 182.5)" fill="#2E3A87"/>
<circle cx="22.5" cy="202.5" r="2.5" transform="rotate(90 22.5 202.5)" fill="#2E3A87"/>
<circle cx="22.5" cy="222.5" r="2.5" transform="rotate(90 22.5 222.5)" fill="#2E3A87"/>
<circle cx="22.5" cy="242.5" r="2.5" transform="rotate(90 22.5 242.5)" fill="#2E3A87"/>
<circle cx="22.5" cy="262.5" r="2.5" transform="rotate(90 22.5 262.5)" fill="#2E3A87"/>
<circle cx="22.5" cy="282.5" r="2.5" transform="rotate(90 22.5 282.5)" fill="#2E3A87"/>
<circle cx="22.5" cy="302.5" r="2.5" transform="rotate(90 22.5 302.5)" fill="#2E3A87"/>
<circle cx="2.5" cy="2.5" r="2.5" transform="rotate(90 2.5 2.5)" fill="#2E3A87"/>
<circle cx="2.5" cy="22.5" r="2.5" transform="rotate(90 2.5 22.5)" fill="#2E3A87"/>
<circle cx="2.5" cy="42.5" r="2.5" transform="rotate(90 2.5 42.5)" fill="#2E3A87"/>
<circle cx="2.5" cy="62.5" r="2.5" transform="rotate(90 2.5 62.5)" fill="#2E3A87"/>
<circle cx="2.5" cy="82.5" r="2.5" transform="rotate(90 2.5 82.5)" fill="#2E3A87"/>
<circle cx="2.5" cy="102.5" r="2.5" transform="rotate(90 2.5 102.5)" fill="#2E3A87"/>
<circle cx="2.5" cy="122.5" r="2.5" transform="rotate(90 2.5 122.5)" fill="#2E3A87"/>
<circle cx="2.5" cy="142.5" r="2.5" transform="rotate(90 2.5 142.5)" fill="#2E3A87"/>
<circle cx="2.5" cy="162.5" r="2.5" transform="rotate(90 2.5 162.5)" fill="#2E3A87"/>
<circle cx="2.5" cy="182.5" r="2.5" transform="rotate(90 2.5 182.5)" fill="#2E3A87"/>
<circle cx="2.5" cy="202.5" r="2.5" transform="rotate(90 2.5 202.5)" fill="#2E3A87"/>
<circle cx="2.5" cy="222.5" r="2.5" transform="rotate(90 2.5 222.5)" fill="#2E3A87"/>
<circle cx="2.5" cy="242.5" r="2.5" transform="rotate(90 2.5 242.5)" fill="#2E3A87"/>
<circle cx="2.5" cy="262.5" r="2.5" transform="rotate(90 2.5 262.5)" fill="#2E3A87"/>
<circle cx="2.5" cy="282.5" r="2.5" transform="rotate(90 2.5 282.5)" fill="#2E3A87"/>
<circle cx="2.5" cy="302.5" r="2.5" transform="rotate(90 2.5 302.5)" fill="#2E3A87"/>
</g>
<g opacity="0.17">
<circle cx="262.5" cy="2.5" r="2.5" transform="rotate(90 262.5 2.5)" fill="#2E3A87"/>
<circle cx="262.5" cy="22.5" r="2.5" transform="rotate(90 262.5 22.5)" fill="#2E3A87"/>
<circle cx="262.5" cy="42.5" r="2.5" transform="rotate(90 262.5 42.5)" fill="#2E3A87"/>
<circle cx="262.5" cy="62.5" r="2.5" transform="rotate(90 262.5 62.5)" fill="#2E3A87"/>
<circle cx="262.5" cy="82.5" r="2.5" transform="rotate(90 262.5 82.5)" fill="#2E3A87"/>
<circle cx="262.5" cy="102.5" r="2.5" transform="rotate(90 262.5 102.5)" fill="#2E3A87"/>
<circle cx="262.5" cy="122.5" r="2.5" transform="rotate(90 262.5 122.5)" fill="#2E3A87"/>
<circle cx="262.5" cy="142.5" r="2.5" transform="rotate(90 262.5 142.5)" fill="#2E3A87"/>
<circle cx="262.5" cy="162.5" r="2.5" transform="rotate(90 262.5 162.5)" fill="#2E3A87"/>
<circle cx="262.5" cy="182.5" r="2.5" transform="rotate(90 262.5 182.5)" fill="#2E3A87"/>
<circle cx="262.5" cy="202.5" r="2.5" transform="rotate(90 262.5 202.5)" fill="#2E3A87"/>
<circle cx="262.5" cy="222.5" r="2.5" transform="rotate(90 262.5 222.5)" fill="#2E3A87"/>
<circle cx="262.5" cy="242.5" r="2.5" transform="rotate(90 262.5 242.5)" fill="#2E3A87"/>
<circle cx="262.5" cy="262.5" r="2.5" transform="rotate(90 262.5 262.5)" fill="#2E3A87"/>
<circle cx="262.5" cy="282.5" r="2.5" transform="rotate(90 262.5 282.5)" fill="#2E3A87"/>
<circle cx="262.5" cy="302.5" r="2.5" transform="rotate(90 262.5 302.5)" fill="#2E3A87"/>
<circle cx="242.5" cy="2.5" r="2.5" transform="rotate(90 242.5 2.5)" fill="#2E3A87"/>
<circle cx="242.5" cy="22.5" r="2.5" transform="rotate(90 242.5 22.5)" fill="#2E3A87"/>
<circle cx="242.5" cy="42.5" r="2.5" transform="rotate(90 242.5 42.5)" fill="#2E3A87"/>
<circle cx="242.5" cy="62.5" r="2.5" transform="rotate(90 242.5 62.5)" fill="#2E3A87"/>
<circle cx="242.5" cy="82.5" r="2.5" transform="rotate(90 242.5 82.5)" fill="#2E3A87"/>
<circle cx="242.5" cy="102.5" r="2.5" transform="rotate(90 242.5 102.5)" fill="#2E3A87"/>
<circle cx="242.5" cy="122.5" r="2.5" transform="rotate(90 242.5 122.5)" fill="#2E3A87"/>
<circle cx="242.5" cy="142.5" r="2.5" transform="rotate(90 242.5 142.5)" fill="#2E3A87"/>
<circle cx="242.5" cy="162.5" r="2.5" transform="rotate(90 242.5 162.5)" fill="#2E3A87"/>
<circle cx="242.5" cy="182.5" r="2.5" transform="rotate(90 242.5 182.5)" fill="#2E3A87"/>
<circle cx="242.5" cy="202.5" r="2.5" transform="rotate(90 242.5 202.5)" fill="#2E3A87"/>
<circle cx="242.5" cy="222.5" r="2.5" transform="rotate(90 242.5 222.5)" fill="#2E3A87"/>
<circle cx="242.5" cy="242.5" r="2.5" transform="rotate(90 242.5 242.5)" fill="#2E3A87"/>
<circle cx="242.5" cy="262.5" r="2.5" transform="rotate(90 242.5 262.5)" fill="#2E3A87"/>
<circle cx="242.5" cy="282.5" r="2.5" transform="rotate(90 242.5 282.5)" fill="#2E3A87"/>
<circle cx="242.5" cy="302.5" r="2.5" transform="rotate(90 242.5 302.5)" fill="#2E3A87"/>
<circle cx="222.5" cy="2.5" r="2.5" transform="rotate(90 222.5 2.5)" fill="#2E3A87"/>
<circle cx="222.5" cy="22.5" r="2.5" transform="rotate(90 222.5 22.5)" fill="#2E3A87"/>
<circle cx="222.5" cy="42.5" r="2.5" transform="rotate(90 222.5 42.5)" fill="#2E3A87"/>
<circle cx="222.5" cy="62.5" r="2.5" transform="rotate(90 222.5 62.5)" fill="#2E3A87"/>
<circle cx="222.5" cy="82.5" r="2.5" transform="rotate(90 222.5 82.5)" fill="#2E3A87"/>
<circle cx="222.5" cy="102.5" r="2.5" transform="rotate(90 222.5 102.5)" fill="#2E3A87"/>
<circle cx="222.5" cy="122.5" r="2.5" transform="rotate(90 222.5 122.5)" fill="#2E3A87"/>
<circle cx="222.5" cy="142.5" r="2.5" transform="rotate(90 222.5 142.5)" fill="#2E3A87"/>
<circle cx="222.5" cy="162.5" r="2.5" transform="rotate(90 222.5 162.5)" fill="#2E3A87"/>
<circle cx="222.5" cy="182.5" r="2.5" transform="rotate(90 222.5 182.5)" fill="#2E3A87"/>
<circle cx="222.5" cy="202.5" r="2.5" transform="rotate(90 222.5 202.5)" fill="#2E3A87"/>
<circle cx="222.5" cy="222.5" r="2.5" transform="rotate(90 222.5 222.5)" fill="#2E3A87"/>
<circle cx="222.5" cy="242.5" r="2.5" transform="rotate(90 222.5 242.5)" fill="#2E3A87"/>
<circle cx="222.5" cy="262.5" r="2.5" transform="rotate(90 222.5 262.5)" fill="#2E3A87"/>
<circle cx="222.5" cy="282.5" r="2.5" transform="rotate(90 222.5 282.5)" fill="#2E3A87"/>
<circle cx="222.5" cy="302.5" r="2.5" transform="rotate(90 222.5 302.5)" fill="#2E3A87"/>
<circle cx="202.5" cy="2.5" r="2.5" transform="rotate(90 202.5 2.5)" fill="#2E3A87"/>
<circle cx="202.5" cy="22.5" r="2.5" transform="rotate(90 202.5 22.5)" fill="#2E3A87"/>
<circle cx="202.5" cy="42.5" r="2.5" transform="rotate(90 202.5 42.5)" fill="#2E3A87"/>
<circle cx="202.5" cy="62.5" r="2.5" transform="rotate(90 202.5 62.5)" fill="#2E3A87"/>
<circle cx="202.5" cy="82.5" r="2.5" transform="rotate(90 202.5 82.5)" fill="#2E3A87"/>
<circle cx="202.5" cy="102.5" r="2.5" transform="rotate(90 202.5 102.5)" fill="#2E3A87"/>
<circle cx="202.5" cy="122.5" r="2.5" transform="rotate(90 202.5 122.5)" fill="#2E3A87"/>
<circle cx="202.5" cy="142.5" r="2.5" transform="rotate(90 202.5 142.5)" fill="#2E3A87"/>
<circle cx="202.5" cy="162.5" r="2.5" transform="rotate(90 202.5 162.5)" fill="#2E3A87"/>
<circle cx="202.5" cy="182.5" r="2.5" transform="rotate(90 202.5 182.5)" fill="#2E3A87"/>
<circle cx="202.5" cy="202.5" r="2.5" transform="rotate(90 202.5 202.5)" fill="#2E3A87"/>
<circle cx="202.5" cy="222.5" r="2.5" transform="rotate(90 202.5 222.5)" fill="#2E3A87"/>
<circle cx="202.5" cy="242.5" r="2.5" transform="rotate(90 202.5 242.5)" fill="#2E3A87"/>
<circle cx="202.5" cy="262.5" r="2.5" transform="rotate(90 202.5 262.5)" fill="#2E3A87"/>
<circle cx="202.5" cy="282.5" r="2.5" transform="rotate(90 202.5 282.5)" fill="#2E3A87"/>
<circle cx="202.5" cy="302.5" r="2.5" transform="rotate(90 202.5 302.5)" fill="#2E3A87"/>
<circle cx="182.5" cy="2.5" r="2.5" transform="rotate(90 182.5 2.5)" fill="#2E3A87"/>
<circle cx="182.5" cy="22.5" r="2.5" transform="rotate(90 182.5 22.5)" fill="#2E3A87"/>
<circle cx="182.5" cy="42.5" r="2.5" transform="rotate(90 182.5 42.5)" fill="#2E3A87"/>
<circle cx="182.5" cy="62.5" r="2.5" transform="rotate(90 182.5 62.5)" fill="#2E3A87"/>
<circle cx="182.5" cy="82.5" r="2.5" transform="rotate(90 182.5 82.5)" fill="#2E3A87"/>
<circle cx="182.5" cy="102.5" r="2.5" transform="rotate(90 182.5 102.5)" fill="#2E3A87"/>
<circle cx="182.5" cy="122.5" r="2.5" transform="rotate(90 182.5 122.5)" fill="#2E3A87"/>
<circle cx="182.5" cy="142.5" r="2.5" transform="rotate(90 182.5 142.5)" fill="#2E3A87"/>
<circle cx="182.5" cy="162.5" r="2.5" transform="rotate(90 182.5 162.5)" fill="#2E3A87"/>
<circle cx="182.5" cy="182.5" r="2.5" transform="rotate(90 182.5 182.5)" fill="#2E3A87"/>
<circle cx="182.5" cy="202.5" r="2.5" transform="rotate(90 182.5 202.5)" fill="#2E3A87"/>
<circle cx="182.5" cy="222.5" r="2.5" transform="rotate(90 182.5 222.5)" fill="#2E3A87"/>
<circle cx="182.5" cy="242.5" r="2.5" transform="rotate(90 182.5 242.5)" fill="#2E3A87"/>
<circle cx="182.5" cy="262.5" r="2.5" transform="rotate(90 182.5 262.5)" fill="#2E3A87"/>
<circle cx="182.5" cy="282.5" r="2.5" transform="rotate(90 182.5 282.5)" fill="#2E3A87"/>
<circle cx="182.5" cy="302.5" r="2.5" transform="rotate(90 182.5 302.5)" fill="#2E3A87"/>
<circle cx="162.5" cy="2.5" r="2.5" transform="rotate(90 162.5 2.5)" fill="#2E3A87"/>
<circle cx="162.5" cy="22.5" r="2.5" transform="rotate(90 162.5 22.5)" fill="#2E3A87"/>
<circle cx="162.5" cy="42.5" r="2.5" transform="rotate(90 162.5 42.5)" fill="#2E3A87"/>
<circle cx="162.5" cy="62.5" r="2.5" transform="rotate(90 162.5 62.5)" fill="#2E3A87"/>
<circle cx="162.5" cy="82.5" r="2.5" transform="rotate(90 162.5 82.5)" fill="#2E3A87"/>
<circle cx="162.5" cy="102.5" r="2.5" transform="rotate(90 162.5 102.5)" fill="#2E3A87"/>
<circle cx="162.5" cy="122.5" r="2.5" transform="rotate(90 162.5 122.5)" fill="#2E3A87"/>
<circle cx="162.5" cy="142.5" r="2.5" transform="rotate(90 162.5 142.5)" fill="#2E3A87"/>
<circle cx="162.5" cy="162.5" r="2.5" transform="rotate(90 162.5 162.5)" fill="#2E3A87"/>
<circle cx="162.5" cy="182.5" r="2.5" transform="rotate(90 162.5 182.5)" fill="#2E3A87"/>
<circle cx="162.5" cy="202.5" r="2.5" transform="rotate(90 162.5 202.5)" fill="#2E3A87"/>
<circle cx="162.5" cy="222.5" r="2.5" transform="rotate(90 162.5 222.5)" fill="#2E3A87"/>
<circle cx="162.5" cy="242.5" r="2.5" transform="rotate(90 162.5 242.5)" fill="#2E3A87"/>
<circle cx="162.5" cy="262.5" r="2.5" transform="rotate(90 162.5 262.5)" fill="#2E3A87"/>
<circle cx="162.5" cy="282.5" r="2.5" transform="rotate(90 162.5 282.5)" fill="#2E3A87"/>
<circle cx="162.5" cy="302.5" r="2.5" transform="rotate(90 162.5 302.5)" fill="#2E3A87"/>
<circle cx="142.5" cy="2.5" r="2.5" transform="rotate(90 142.5 2.5)" fill="#2E3A87"/>
<circle cx="142.5" cy="22.5" r="2.5" transform="rotate(90 142.5 22.5)" fill="#2E3A87"/>
<circle cx="142.5" cy="42.5" r="2.5" transform="rotate(90 142.5 42.5)" fill="#2E3A87"/>
<circle cx="142.5" cy="62.5" r="2.5" transform="rotate(90 142.5 62.5)" fill="#2E3A87"/>
<circle cx="142.5" cy="82.5" r="2.5" transform="rotate(90 142.5 82.5)" fill="#2E3A87"/>
<circle cx="142.5" cy="102.5" r="2.5" transform="rotate(90 142.5 102.5)" fill="#2E3A87"/>
<circle cx="142.5" cy="122.5" r="2.5" transform="rotate(90 142.5 122.5)" fill="#2E3A87"/>
<circle cx="142.5" cy="142.5" r="2.5" transform="rotate(90 142.5 142.5)" fill="#2E3A87"/>
<circle cx="142.5" cy="162.5" r="2.5" transform="rotate(90 142.5 162.5)" fill="#2E3A87"/>
<circle cx="142.5" cy="182.5" r="2.5" transform="rotate(90 142.5 182.5)" fill="#2E3A87"/>
<circle cx="142.5" cy="202.5" r="2.5" transform="rotate(90 142.5 202.5)" fill="#2E3A87"/>
<circle cx="142.5" cy="222.5" r="2.5" transform="rotate(90 142.5 222.5)" fill="#2E3A87"/>
<circle cx="142.5" cy="242.5" r="2.5" transform="rotate(90 142.5 242.5)" fill="#2E3A87"/>
<circle cx="142.5" cy="262.5" r="2.5" transform="rotate(90 142.5 262.5)" fill="#2E3A87"/>
<circle cx="142.5" cy="282.5" r="2.5" transform="rotate(90 142.5 282.5)" fill="#2E3A87"/>
<circle cx="142.5" cy="302.5" r="2.5" transform="rotate(90 142.5 302.5)" fill="#2E3A87"/>
<circle cx="122.5" cy="2.5" r="2.5" transform="rotate(90 122.5 2.5)" fill="#2E3A87"/>
<circle cx="122.5" cy="22.5" r="2.5" transform="rotate(90 122.5 22.5)" fill="#2E3A87"/>
<circle cx="122.5" cy="42.5" r="2.5" transform="rotate(90 122.5 42.5)" fill="#2E3A87"/>
<circle cx="122.5" cy="62.5" r="2.5" transform="rotate(90 122.5 62.5)" fill="#2E3A87"/>
<circle cx="122.5" cy="82.5" r="2.5" transform="rotate(90 122.5 82.5)" fill="#2E3A87"/>
<circle cx="122.5" cy="102.5" r="2.5" transform="rotate(90 122.5 102.5)" fill="#2E3A87"/>
<circle cx="122.5" cy="122.5" r="2.5" transform="rotate(90 122.5 122.5)" fill="#2E3A87"/>
<circle cx="122.5" cy="142.5" r="2.5" transform="rotate(90 122.5 142.5)" fill="#2E3A87"/>
<circle cx="122.5" cy="162.5" r="2.5" transform="rotate(90 122.5 162.5)" fill="#2E3A87"/>
<circle cx="122.5" cy="182.5" r="2.5" transform="rotate(90 122.5 182.5)" fill="#2E3A87"/>
<circle cx="122.5" cy="202.5" r="2.5" transform="rotate(90 122.5 202.5)" fill="#2E3A87"/>
<circle cx="122.5" cy="222.5" r="2.5" transform="rotate(90 122.5 222.5)" fill="#2E3A87"/>
<circle cx="122.5" cy="242.5" r="2.5" transform="rotate(90 122.5 242.5)" fill="#2E3A87"/>
<circle cx="122.5" cy="262.5" r="2.5" transform="rotate(90 122.5 262.5)" fill="#2E3A87"/>
<circle cx="122.5" cy="282.5" r="2.5" transform="rotate(90 122.5 282.5)" fill="#2E3A87"/>
<circle cx="122.5" cy="302.5" r="2.5" transform="rotate(90 122.5 302.5)" fill="#2E3A87"/>
</g>
</svg>
