<svg width="259" height="50" viewBox="0 0 259 50" fill="none" xmlns="http://www.w3.org/2000/svg">
<g clip-path="url(#clip0_207_2131)">
<path d="M152.813 13.8955C145.272 13.8955 139.356 19.5953 139.356 26.8719C139.356 34.2412 145.144 39.8061 152.813 39.8061C160.388 39.8061 166.312 34.1232 166.312 26.8719C166.312 19.5953 160.379 13.8955 152.813 13.8955ZM152.659 34.2749C148.625 34.2749 145.586 31.0878 145.586 26.8719C145.586 22.6813 148.693 19.511 152.813 19.511C156.932 19.511 160.039 22.6729 160.039 26.8719C160.039 31.0203 156.796 34.2749 152.659 34.2749Z" fill="white"/>
<path d="M188.654 30.624C187.505 32.3525 185.726 34.2244 182.253 34.2244C178.057 34.2244 175.129 31.1974 175.129 26.8635C175.129 22.4959 177.989 19.5532 182.253 19.5532C185.734 19.5532 187.513 21.425 188.662 23.1535L193.59 20.1097C191.011 16.0287 187.011 13.8787 182.006 13.8787C174.448 13.8787 168.754 19.4605 168.754 26.8551C168.754 34.2244 174.448 39.7893 182.006 39.7893C187.054 39.7893 190.935 37.7404 193.539 33.7016L188.654 30.624Z" fill="white"/>
<path d="M219.244 39.2074L209.234 26.7285L218.852 14.3844H211.745L202.757 26.4333V5.85156H196.382V39.2074H202.757V28.1366L211.388 39.2074H219.244Z" fill="white"/>
<path d="M229.202 5.85156H222.827V39.199H229.202V5.85156Z" fill="white"/>
<path d="M259 39.2073V27.6306C259 20.2023 252.906 14.1483 245.416 14.1399H245.322C237.713 14.1399 232.189 19.5193 232.189 26.9224C232.189 33.8869 237.866 39.553 244.846 39.553C247.663 39.553 250.404 38.7436 252.165 37.3861L252.676 36.9898V39.1989H259V39.2073ZM245.441 34.0809C241.475 34.0809 238.369 30.9358 238.369 26.9224C238.369 22.9089 241.475 19.7638 245.441 19.7638C249.484 19.7638 252.77 22.9763 252.77 26.9224C252.77 30.9358 249.552 34.0809 245.441 34.0809Z" fill="white"/>
<path d="M125.304 20.5312C127.934 20.5312 130.07 22.6475 130.07 25.2529V39.2074H136.454V25.2445C136.454 19.1568 131.449 14.199 125.304 14.199C122.461 14.199 119.755 15.2698 117.669 17.2091L117.346 17.5126L117.022 17.2091C114.946 15.2698 112.231 14.199 109.388 14.199C103.243 14.199 98.2379 19.1568 98.2379 25.2445V39.2074H104.621V25.2445C104.621 22.6391 106.758 20.5228 109.388 20.5228C112.018 20.5228 114.154 22.6391 114.154 25.2445V39.2074H120.538V25.2445C120.546 22.6475 122.682 20.5312 125.304 20.5312Z" fill="white"/>
<path d="M29.8663 50H58.0644L37.7308 26.5599C35.3391 23.8027 31.8579 22.2175 28.1896 22.2175H0L20.3336 45.6577C22.7168 48.4148 26.2064 50 29.8663 50Z" fill="url(#paint0_radial_207_2131)"/>
<path opacity="0.22" d="M37.7307 26.5599L53.0171 44.1821H38.0627C34.3943 44.1821 30.9132 42.597 28.5215 39.8398L13.2351 22.2175H28.1895C31.8579 22.2175 35.3476 23.8027 37.7307 26.5599Z" fill="#2E3A87"/>
<path d="M40.0969 39.2075H68.295L47.9614 15.7674C45.5697 13.0102 42.0886 11.425 38.4202 11.425H10.2307L30.5642 34.8652C32.9559 37.6224 36.4371 39.2075 40.0969 39.2075Z" fill="url(#paint1_radial_207_2131)"/>
<path opacity="0.22" d="M47.9699 15.7674L62.8648 32.9343H49.0509C45.3825 32.9343 41.9013 31.3492 39.5096 28.592L24.6148 11.425H38.4287C42.0971 11.425 45.5782 13.0102 47.9699 15.7674Z" fill="#2E3A87"/>
<path d="M50.8978 27.7825H79.0958L58.7623 4.34233C56.3706 1.58516 52.8894 0 49.2296 0H21.0315L41.3651 23.4401C43.7483 26.1973 47.2379 27.7825 50.8978 27.7825Z" fill="url(#paint2_radial_207_2131)"/>
</g>
<defs>
<radialGradient id="paint0_radial_207_2131" cx="0" cy="0" r="1" gradientUnits="userSpaceOnUse" gradientTransform="translate(53.1279 49.4129) rotate(180) scale(52.2752 51.7861)">
<stop stop-color="#00FFDB"/>
<stop offset="1" stop-color="#00BBFF"/>
</radialGradient>
<radialGradient id="paint1_radial_207_2131" cx="0" cy="0" r="1" gradientUnits="userSpaceOnUse" gradientTransform="translate(63.3592 38.6201) rotate(180) scale(52.2752 51.7861)">
<stop stop-color="#00FFDB"/>
<stop offset="1" stop-color="#00BBFF"/>
</radialGradient>
<radialGradient id="paint2_radial_207_2131" cx="0" cy="0" r="1" gradientUnits="userSpaceOnUse" gradientTransform="translate(74.1576 27.1958) rotate(180) scale(52.2752 51.7861)">
<stop stop-color="#00FFDB"/>
<stop offset="1" stop-color="#00BBFF"/>
</radialGradient>
<clipPath id="clip0_207_2131">
<rect width="259" height="50" fill="white"/>
</clipPath>
</defs>
</svg>
