<svg width="128" height="31" viewBox="0 0 128 31" fill="none" xmlns="http://www.w3.org/2000/svg">
<path d="M15.5018 7.66351C11.274 7.66351 7.82918 11.1043 7.82918 15.1706C7.82918 19.3934 11.274 22.6777 15.3452 22.6777H30.3772L25.9929 30.3412H15.5018C6.88968 30.4976 0 23.6161 0 15.1706C0 6.88152 6.88968 0 15.5018 0H27.5587L23.1744 7.66351H15.5018ZM74.5338 30.4976H65.7651V13.2938H88.9395L84.5552 20.8009H74.5338V30.4976ZM51.2029 11.4171H40.5552C39.6157 11.4171 38.6762 10.6351 38.6762 9.54028C38.6762 8.4455 39.4591 7.66351 40.5552 7.66351H54.0214L58.4057 0H40.5552C35.2313 0 30.847 4.22275 30.847 9.54028C30.847 14.8578 35.2313 19.0806 40.5552 19.0806H51.2029C52.1423 19.0806 53.0819 19.8626 53.0819 20.9573C53.0819 21.8957 52.2989 22.8341 51.2029 22.8341H37.7367L33.5089 30.4976H51.2029C56.5267 30.4976 60.911 26.2749 60.911 20.9573C60.911 15.6398 56.6833 11.4171 51.2029 11.4171ZM109.765 15.6398L116.498 0H127.929V30.4976H119.63V13.2938L112.114 30.4976H107.416L97.5516 7.66351H70.3061H61.3808L65.7651 0H94.4199H103.032H103.189L109.765 15.6398Z" fill="white"/>
</svg>
