<svg width="466" height="107" viewBox="0 0 466 107" fill="none" xmlns="http://www.w3.org/2000/svg">
 <path d="M32.6946 100.886V25.3915H2.37598V5.43945H85.6513V25.3915H55.4675V100.886H32.6946Z" fill="white"/>
 <path d="M96.5889 100.886V5.43945H155.34V25.1221H118.688V42.3778H150.085V61.9255H118.688V80.7992H155.879V100.886H96.5889Z" fill="white"/>
 <path d="M199.088 22.8304H195.337V49.2533H200.143C205.893 49.2533 210.272 48.0851 213.304 45.7708C216.336 43.4566 217.841 40.1086 217.841 35.772C217.841 31.2112 216.381 27.9305 213.438 25.886C210.497 23.8412 205.713 22.8304 199.088 22.8304V22.8304ZM173.238 100.886V5.43945H197.763C205.623 5.43945 211.709 5.95611 216.044 6.98981C220.378 8.0235 224.196 9.73092 227.543 12.1575C231.091 14.6965 233.853 17.8423 235.807 21.5945C237.761 25.3468 238.727 29.3012 238.727 33.4578C238.727 39.4796 237.199 44.7371 234.145 49.2533C231.091 53.7694 226.689 57.297 220.939 59.8585L250.045 100.886H224.039L198.571 63.4086H195.337V100.886H173.238Z" fill="white"/>
 <path d="M259.366 100.886V5.43945H282.139V100.886H259.366Z" fill="white"/>
 <path d="M336.825 104.526H335.253L290.224 5.43945H314.322L336.825 57.6341L359.53 5.43945H381.853L336.825 104.526Z" fill="white"/>
 <path d="M401.639 70.5535H426.703L414.328 40.6703L401.639 70.5535ZM365.931 100.886L414.597 2.47363H416.035L463.624 100.886H439.796L433.755 87.0006H395.037L388.861 100.886H365.931Z" fill="white"/>
 <path d="M451.211 6.08887C454.822 6.08887 457.797 7.29147 460.126 9.69095C462.46 12.0908 463.624 14.9271 463.624 18.1898C463.624 21.5167 462.438 24.3641 460.072 26.7368C457.7 29.1042 454.854 30.2904 451.529 30.2904C448.181 30.2904 445.33 29.1095 442.969 26.7422C440.614 24.3801 439.434 21.5274 439.434 18.1898C439.434 15.8385 440.059 13.687 441.304 11.7186C442.554 9.75591 444.112 8.3267 445.988 7.43172C447.858 6.53636 449.605 6.08887 451.211 6.08887ZM451.82 8.45089C448.85 8.45089 446.441 9.43223 444.592 11.3896C442.748 13.3473 441.827 15.6176 441.827 18.1952C441.827 20.8698 442.781 23.1615 444.689 25.0703C446.597 26.9741 448.893 27.9283 451.572 27.9283C454.234 27.9283 456.525 26.9741 458.433 25.0703C460.341 23.1615 461.295 20.8698 461.295 18.1952C461.295 16.3563 460.816 14.6577 459.856 13.1046C458.897 11.5516 457.663 10.3868 456.153 9.61031C454.65 8.83915 453.205 8.45089 451.82 8.45089V8.45089ZM446.193 24.6606V11.8157H452.267C453.771 11.8157 454.865 12.1661 455.55 12.862C456.234 13.5628 456.574 14.4257 456.574 15.4449C456.574 16.4316 456.288 17.2245 455.712 17.8229C455.14 18.4214 454.272 18.8261 453.113 19.0362C453.642 19.2411 454.062 19.5109 454.369 19.8559C454.682 20.1957 455.173 20.9397 455.846 22.0777L457.35 24.6606H454.148L453.076 22.5844C452.434 21.3497 451.868 20.5083 451.378 20.0608C450.887 19.6133 450.246 19.3867 449.459 19.3867H448.78V24.6606H446.193V24.6606ZM448.78 17.3483H450.893C451.954 17.3483 452.709 17.2081 453.157 16.928C453.604 16.6475 453.825 16.1943 453.825 15.5633C453.825 14.992 453.604 14.5659 453.162 14.2801C452.72 13.9943 452.052 13.854 451.162 13.854H448.78V17.3483Z" fill="white"/>
</svg>
